%TF.GenerationSoftware,KiCad,Pcbnew,7.0.7*%
%TF.CreationDate,2023-08-26T23:34:29+05:30*%
%TF.ProjectId,ir_project,69725f70-726f-46a6-9563-742e6b696361,rev?*%
%TF.SameCoordinates,Original*%
%TF.FileFunction,Legend,Top*%
%TF.FilePolarity,Positive*%
%FSLAX46Y46*%
G04 Gerber Fmt 4.6, Leading zero omitted, Abs format (unit mm)*
G04 Created by KiCad (PCBNEW 7.0.7) date 2023-08-26 23:34:29*
%MOMM*%
%LPD*%
G01*
G04 APERTURE LIST*
%ADD10C,0.150000*%
%ADD11C,0.120000*%
%ADD12C,0.100000*%
G04 APERTURE END LIST*
D10*
G36*
X162937704Y-72599119D02*
G01*
X162951696Y-72599471D01*
X162965410Y-72600058D01*
X162978845Y-72600879D01*
X162992002Y-72601935D01*
X163004880Y-72603226D01*
X163017480Y-72604752D01*
X163029801Y-72606512D01*
X163041843Y-72608507D01*
X163053607Y-72610737D01*
X163065092Y-72613201D01*
X163076298Y-72615900D01*
X163087226Y-72618834D01*
X163097876Y-72622002D01*
X163108246Y-72625406D01*
X163118339Y-72629043D01*
X163128220Y-72632871D01*
X163137897Y-72636905D01*
X163147370Y-72641145D01*
X163156639Y-72645591D01*
X163165704Y-72650243D01*
X163174564Y-72655101D01*
X163183220Y-72660165D01*
X163191673Y-72665436D01*
X163199921Y-72670912D01*
X163207964Y-72676594D01*
X163215804Y-72682483D01*
X163227181Y-72691702D01*
X163238098Y-72701385D01*
X163248556Y-72711532D01*
X163251939Y-72715017D01*
X163261831Y-72725758D01*
X163271262Y-72736916D01*
X163280235Y-72748490D01*
X163285961Y-72756437D01*
X163291483Y-72764570D01*
X163296801Y-72772887D01*
X163301915Y-72781390D01*
X163306825Y-72790078D01*
X163311530Y-72798951D01*
X163316032Y-72808009D01*
X163320329Y-72817252D01*
X163324422Y-72826680D01*
X163328310Y-72836293D01*
X163331995Y-72846092D01*
X163333761Y-72851060D01*
X163337133Y-72861124D01*
X163340287Y-72871348D01*
X163343223Y-72881732D01*
X163345942Y-72892276D01*
X163348444Y-72902981D01*
X163350728Y-72913846D01*
X163352795Y-72924871D01*
X163354644Y-72936057D01*
X163356275Y-72947403D01*
X163357689Y-72958909D01*
X163358885Y-72970575D01*
X163359864Y-72982402D01*
X163360626Y-72994389D01*
X163361169Y-73006536D01*
X163361496Y-73018844D01*
X163361605Y-73031311D01*
X163361489Y-73045668D01*
X163361143Y-73059796D01*
X163360566Y-73073695D01*
X163359757Y-73087365D01*
X163358718Y-73100806D01*
X163357449Y-73114018D01*
X163355948Y-73127001D01*
X163354216Y-73139755D01*
X163352254Y-73152280D01*
X163350060Y-73164576D01*
X163347636Y-73176644D01*
X163344981Y-73188482D01*
X163342095Y-73200091D01*
X163338978Y-73211471D01*
X163335630Y-73222622D01*
X163332051Y-73233545D01*
X163328251Y-73244237D01*
X163324239Y-73254698D01*
X163320016Y-73264929D01*
X163315580Y-73274928D01*
X163310933Y-73284697D01*
X163306074Y-73294235D01*
X163301003Y-73303542D01*
X163295720Y-73312618D01*
X163290226Y-73321463D01*
X163284519Y-73330078D01*
X163278601Y-73338461D01*
X163272471Y-73346614D01*
X163266129Y-73354535D01*
X163259576Y-73362226D01*
X163252811Y-73369686D01*
X163245833Y-73376915D01*
X163238649Y-73383887D01*
X163231263Y-73390638D01*
X163223674Y-73397168D01*
X163215883Y-73403476D01*
X163207890Y-73409563D01*
X163199694Y-73415429D01*
X163191297Y-73421073D01*
X163182697Y-73426496D01*
X163173894Y-73431698D01*
X163164890Y-73436678D01*
X163155683Y-73441437D01*
X163146274Y-73445975D01*
X163136663Y-73450291D01*
X163126849Y-73454386D01*
X163116833Y-73458259D01*
X163106615Y-73461912D01*
X163096202Y-73465313D01*
X163085541Y-73468495D01*
X163074633Y-73471457D01*
X163063476Y-73474200D01*
X163052071Y-73476724D01*
X163040418Y-73479028D01*
X163028516Y-73481112D01*
X163016367Y-73482978D01*
X163003970Y-73484623D01*
X162991325Y-73486050D01*
X162978431Y-73487257D01*
X162965290Y-73488244D01*
X162951901Y-73489012D01*
X162938263Y-73489561D01*
X162924377Y-73489890D01*
X162910244Y-73490000D01*
X162722177Y-73490000D01*
X162712421Y-73488974D01*
X162703000Y-73485897D01*
X162693912Y-73480769D01*
X162692135Y-73479497D01*
X162685405Y-73472177D01*
X162680878Y-73462307D01*
X162678702Y-73451392D01*
X162678213Y-73441884D01*
X162678213Y-72696699D01*
X162796427Y-72696699D01*
X162796427Y-73388394D01*
X162917815Y-73388394D01*
X162928365Y-73388311D01*
X162938706Y-73388062D01*
X162948836Y-73387647D01*
X162958756Y-73387066D01*
X162973244Y-73385884D01*
X162987258Y-73384327D01*
X163000801Y-73382397D01*
X163013871Y-73380094D01*
X163026469Y-73377417D01*
X163038595Y-73374367D01*
X163050249Y-73370943D01*
X163061430Y-73367145D01*
X163072206Y-73362961D01*
X163082642Y-73358378D01*
X163092739Y-73353396D01*
X163102497Y-73348014D01*
X163111916Y-73342233D01*
X163120996Y-73336053D01*
X163129736Y-73329474D01*
X163138138Y-73322495D01*
X163146200Y-73315117D01*
X163153923Y-73307339D01*
X163158883Y-73301933D01*
X163166082Y-73293494D01*
X163172934Y-73284665D01*
X163179437Y-73275445D01*
X163185593Y-73265834D01*
X163191401Y-73255833D01*
X163196862Y-73245441D01*
X163201974Y-73234658D01*
X163206739Y-73223485D01*
X163211156Y-73211921D01*
X163215226Y-73199966D01*
X163217745Y-73191779D01*
X163221237Y-73179110D01*
X163224386Y-73166016D01*
X163227191Y-73152497D01*
X163229652Y-73138553D01*
X163231770Y-73124184D01*
X163232992Y-73114369D01*
X163234060Y-73104364D01*
X163234976Y-73094171D01*
X163235739Y-73083789D01*
X163236350Y-73073217D01*
X163236808Y-73062457D01*
X163237113Y-73051508D01*
X163237266Y-73040371D01*
X163237285Y-73034731D01*
X163237128Y-73021266D01*
X163236658Y-73007981D01*
X163235875Y-72994876D01*
X163234778Y-72981951D01*
X163233367Y-72969207D01*
X163231643Y-72956644D01*
X163229606Y-72944260D01*
X163227256Y-72932057D01*
X163224592Y-72920034D01*
X163221614Y-72908192D01*
X163219455Y-72900397D01*
X163215934Y-72888870D01*
X163212056Y-72877643D01*
X163207822Y-72866716D01*
X163203232Y-72856090D01*
X163198285Y-72845765D01*
X163192983Y-72835740D01*
X163187323Y-72826015D01*
X163181308Y-72816591D01*
X163174935Y-72807468D01*
X163168207Y-72798645D01*
X163163524Y-72792930D01*
X163156201Y-72784588D01*
X163148523Y-72776599D01*
X163140488Y-72768961D01*
X163132096Y-72761675D01*
X163123349Y-72754741D01*
X163114245Y-72748160D01*
X163104784Y-72741930D01*
X163094968Y-72736052D01*
X163084795Y-72730527D01*
X163074265Y-72725353D01*
X163067048Y-72722100D01*
X163055806Y-72717561D01*
X163043972Y-72713468D01*
X163031546Y-72709821D01*
X163018527Y-72706621D01*
X163004916Y-72703868D01*
X162990712Y-72701561D01*
X162980914Y-72700271D01*
X162970852Y-72699179D01*
X162960527Y-72698286D01*
X162949939Y-72697592D01*
X162939087Y-72697096D01*
X162927972Y-72696798D01*
X162916594Y-72696699D01*
X162796427Y-72696699D01*
X162678213Y-72696699D01*
X162678213Y-72647117D01*
X162678879Y-72636146D01*
X162681272Y-72625526D01*
X162686044Y-72616022D01*
X162692135Y-72609748D01*
X162701156Y-72604081D01*
X162710510Y-72600513D01*
X162720199Y-72599044D01*
X162722177Y-72599002D01*
X162923433Y-72599002D01*
X162937704Y-72599119D01*
G37*
G36*
X163811939Y-72818045D02*
G01*
X163825712Y-72818650D01*
X163839141Y-72819659D01*
X163852227Y-72821072D01*
X163864970Y-72822888D01*
X163877369Y-72825108D01*
X163889425Y-72827731D01*
X163901137Y-72830758D01*
X163912506Y-72834188D01*
X163923531Y-72838022D01*
X163930690Y-72840802D01*
X163941150Y-72845291D01*
X163951278Y-72850150D01*
X163961076Y-72855378D01*
X163970544Y-72860975D01*
X163979681Y-72866941D01*
X163988487Y-72873277D01*
X163996963Y-72879982D01*
X164005108Y-72887056D01*
X164012923Y-72894499D01*
X164020407Y-72902311D01*
X164025212Y-72907725D01*
X164032143Y-72916087D01*
X164038739Y-72924781D01*
X164045000Y-72933804D01*
X164050927Y-72943159D01*
X164056518Y-72952844D01*
X164061774Y-72962860D01*
X164066696Y-72973206D01*
X164071283Y-72983883D01*
X164075534Y-72994890D01*
X164079451Y-73006228D01*
X164081877Y-73013970D01*
X164085238Y-73025836D01*
X164088268Y-73037984D01*
X164090968Y-73050416D01*
X164093337Y-73063132D01*
X164095376Y-73076130D01*
X164097084Y-73089413D01*
X164098461Y-73102978D01*
X164099508Y-73116827D01*
X164100224Y-73130959D01*
X164100610Y-73145375D01*
X164100683Y-73155143D01*
X164100507Y-73169371D01*
X164099979Y-73183390D01*
X164099099Y-73197198D01*
X164097867Y-73210796D01*
X164096283Y-73224183D01*
X164094346Y-73237360D01*
X164092058Y-73250326D01*
X164089418Y-73263083D01*
X164086425Y-73275628D01*
X164083081Y-73287964D01*
X164080655Y-73296071D01*
X164076772Y-73307960D01*
X164072541Y-73319541D01*
X164067962Y-73330812D01*
X164063036Y-73341775D01*
X164057761Y-73352428D01*
X164052139Y-73362772D01*
X164046169Y-73372807D01*
X164039852Y-73382533D01*
X164033186Y-73391949D01*
X164026173Y-73401057D01*
X164021304Y-73406957D01*
X164013753Y-73415480D01*
X164005846Y-73423647D01*
X163997582Y-73431457D01*
X163988961Y-73438911D01*
X163979985Y-73446008D01*
X163970652Y-73452750D01*
X163960962Y-73459135D01*
X163950917Y-73465163D01*
X163940515Y-73470835D01*
X163929756Y-73476151D01*
X163922386Y-73479497D01*
X163911092Y-73484167D01*
X163899468Y-73488379D01*
X163887514Y-73492130D01*
X163875228Y-73495422D01*
X163862612Y-73498255D01*
X163849666Y-73500629D01*
X163836389Y-73502543D01*
X163822781Y-73503998D01*
X163808843Y-73504993D01*
X163794574Y-73505529D01*
X163784877Y-73505631D01*
X163770717Y-73505429D01*
X163756905Y-73504824D01*
X163743440Y-73503815D01*
X163730323Y-73502402D01*
X163717554Y-73500586D01*
X163705133Y-73498367D01*
X163693059Y-73495744D01*
X163681334Y-73492717D01*
X163669956Y-73489286D01*
X163658925Y-73485452D01*
X163651765Y-73482672D01*
X163641306Y-73478185D01*
X163631177Y-73473333D01*
X163621379Y-73468116D01*
X163611911Y-73462534D01*
X163602775Y-73456587D01*
X163593968Y-73450275D01*
X163585492Y-73443598D01*
X163577347Y-73436556D01*
X163569533Y-73429149D01*
X163562049Y-73421378D01*
X163557243Y-73415994D01*
X163550358Y-73407588D01*
X163543808Y-73398855D01*
X163537592Y-73389796D01*
X163531712Y-73380411D01*
X163526166Y-73370699D01*
X163520956Y-73360661D01*
X163516080Y-73350297D01*
X163511539Y-73339607D01*
X163507333Y-73328590D01*
X163503462Y-73317247D01*
X163501067Y-73309504D01*
X163497750Y-73297632D01*
X163494759Y-73285464D01*
X163492094Y-73273000D01*
X163489756Y-73260239D01*
X163487744Y-73247183D01*
X163486058Y-73233830D01*
X163484698Y-73220181D01*
X163483665Y-73206235D01*
X163482958Y-73191993D01*
X163482577Y-73177455D01*
X163482505Y-73167599D01*
X163482593Y-73160272D01*
X163601451Y-73160272D01*
X163601596Y-73172995D01*
X163602031Y-73185520D01*
X163602756Y-73197847D01*
X163603771Y-73209975D01*
X163605076Y-73221905D01*
X163606672Y-73233636D01*
X163608557Y-73245169D01*
X163610732Y-73256503D01*
X163613243Y-73267563D01*
X163616136Y-73278271D01*
X163619410Y-73288629D01*
X163623066Y-73298635D01*
X163627104Y-73308290D01*
X163631523Y-73317595D01*
X163636324Y-73326548D01*
X163641507Y-73335150D01*
X163647170Y-73343301D01*
X163653292Y-73351025D01*
X163659871Y-73358322D01*
X163666908Y-73365191D01*
X163674403Y-73371633D01*
X163682356Y-73377648D01*
X163690768Y-73383235D01*
X163699637Y-73388394D01*
X163709013Y-73392974D01*
X163718947Y-73396943D01*
X163729438Y-73400301D01*
X163740486Y-73403049D01*
X163752092Y-73405186D01*
X163764254Y-73406713D01*
X163776974Y-73407629D01*
X163786879Y-73407915D01*
X163790251Y-73407934D01*
X163802440Y-73407655D01*
X163814217Y-73406820D01*
X163825582Y-73405427D01*
X163836535Y-73403476D01*
X163847075Y-73400969D01*
X163857204Y-73397905D01*
X163866920Y-73394283D01*
X163876224Y-73390104D01*
X163885116Y-73385361D01*
X163893596Y-73380167D01*
X163901664Y-73374522D01*
X163909319Y-73368428D01*
X163918309Y-73360176D01*
X163925037Y-73353068D01*
X163931353Y-73345510D01*
X163935819Y-73339546D01*
X163941487Y-73331230D01*
X163946765Y-73322525D01*
X163951653Y-73313431D01*
X163956153Y-73303948D01*
X163960263Y-73294075D01*
X163963984Y-73283813D01*
X163967315Y-73273161D01*
X163970258Y-73262121D01*
X163972834Y-73250745D01*
X163975066Y-73239086D01*
X163976955Y-73227145D01*
X163978501Y-73214921D01*
X163979703Y-73202415D01*
X163980562Y-73189627D01*
X163980980Y-73179850D01*
X163981206Y-73169914D01*
X163981249Y-73163203D01*
X163981104Y-73150651D01*
X163980669Y-73138275D01*
X163979943Y-73126074D01*
X163978928Y-73114049D01*
X163977623Y-73102199D01*
X163976028Y-73090525D01*
X163974143Y-73079027D01*
X163971967Y-73067704D01*
X163969460Y-73056640D01*
X163966579Y-73045920D01*
X163963323Y-73035544D01*
X163959694Y-73025511D01*
X163955691Y-73015821D01*
X163951314Y-73006475D01*
X163946562Y-72997472D01*
X163941437Y-72988813D01*
X163935888Y-72980551D01*
X163929866Y-72972739D01*
X163923371Y-72965377D01*
X163916402Y-72958466D01*
X163908960Y-72952005D01*
X163901045Y-72945994D01*
X163892657Y-72940434D01*
X163883796Y-72935324D01*
X163874415Y-72930687D01*
X163864470Y-72926669D01*
X163853960Y-72923268D01*
X163842885Y-72920486D01*
X163831245Y-72918322D01*
X163819041Y-72916777D01*
X163806272Y-72915849D01*
X163796324Y-72915560D01*
X163792937Y-72915540D01*
X163780637Y-72915823D01*
X163768773Y-72916670D01*
X163757343Y-72918082D01*
X163746348Y-72920059D01*
X163735788Y-72922600D01*
X163725664Y-72925707D01*
X163715974Y-72929378D01*
X163706720Y-72933614D01*
X163697938Y-72938308D01*
X163689546Y-72943476D01*
X163681544Y-72949116D01*
X163672088Y-72956832D01*
X163664961Y-72963537D01*
X163658223Y-72970716D01*
X163651875Y-72978368D01*
X163647369Y-72984417D01*
X163641751Y-72992790D01*
X163636500Y-73001544D01*
X163631615Y-73010681D01*
X163627096Y-73020198D01*
X163622944Y-73030098D01*
X163619159Y-73040379D01*
X163615739Y-73051042D01*
X163612686Y-73062086D01*
X163610053Y-73073451D01*
X163607771Y-73085075D01*
X163605840Y-73096959D01*
X163604260Y-73109103D01*
X163603031Y-73121506D01*
X163602153Y-73134168D01*
X163601627Y-73147090D01*
X163601462Y-73156952D01*
X163601451Y-73160272D01*
X163482593Y-73160272D01*
X163482676Y-73153372D01*
X163483192Y-73139360D01*
X163484050Y-73125563D01*
X163485252Y-73111980D01*
X163486798Y-73098612D01*
X163488687Y-73085459D01*
X163490920Y-73072520D01*
X163493496Y-73059796D01*
X163496415Y-73047287D01*
X163499678Y-73034992D01*
X163502044Y-73026915D01*
X163505884Y-73014984D01*
X163510076Y-73003370D01*
X163514619Y-72992075D01*
X163519515Y-72981097D01*
X163524763Y-72970436D01*
X163530363Y-72960094D01*
X163536315Y-72950069D01*
X163542619Y-72940362D01*
X163549275Y-72930972D01*
X163556283Y-72921900D01*
X163561151Y-72916029D01*
X163568742Y-72907466D01*
X163576676Y-72899273D01*
X163584953Y-72891449D01*
X163593574Y-72883995D01*
X163602539Y-72876909D01*
X163611847Y-72870193D01*
X163621498Y-72863846D01*
X163631493Y-72857868D01*
X163641831Y-72852260D01*
X163652513Y-72847021D01*
X163659825Y-72843733D01*
X163671081Y-72839106D01*
X163682686Y-72834934D01*
X163694638Y-72831218D01*
X163706937Y-72827956D01*
X163719585Y-72825150D01*
X163732580Y-72822799D01*
X163745923Y-72820902D01*
X163759614Y-72819461D01*
X163773652Y-72818475D01*
X163788038Y-72817944D01*
X163797822Y-72817843D01*
X163811939Y-72818045D01*
G37*
G36*
X164595282Y-72818075D02*
G01*
X164607394Y-72818771D01*
X164619153Y-72819930D01*
X164630561Y-72821553D01*
X164641616Y-72823639D01*
X164652319Y-72826189D01*
X164662670Y-72829203D01*
X164672670Y-72832681D01*
X164682317Y-72836622D01*
X164691612Y-72841027D01*
X164697613Y-72844221D01*
X164706343Y-72849339D01*
X164714763Y-72854800D01*
X164722875Y-72860605D01*
X164730677Y-72866753D01*
X164738171Y-72873244D01*
X164745355Y-72880079D01*
X164752230Y-72887258D01*
X164758796Y-72894780D01*
X164765053Y-72902645D01*
X164771000Y-72910854D01*
X164774794Y-72916517D01*
X164780283Y-72925260D01*
X164785484Y-72934269D01*
X164790398Y-72943544D01*
X164795024Y-72953085D01*
X164799362Y-72962892D01*
X164803413Y-72972966D01*
X164807176Y-72983306D01*
X164810652Y-72993912D01*
X164813839Y-73004784D01*
X164816739Y-73015922D01*
X164818513Y-73023496D01*
X164820957Y-73034963D01*
X164823161Y-73046559D01*
X164825125Y-73058285D01*
X164826848Y-73070138D01*
X164828331Y-73082121D01*
X164829573Y-73094233D01*
X164830575Y-73106473D01*
X164831336Y-73118842D01*
X164831857Y-73131340D01*
X164832137Y-73143967D01*
X164832191Y-73152456D01*
X164832122Y-73162649D01*
X164831916Y-73172713D01*
X164831572Y-73182647D01*
X164831092Y-73192451D01*
X164830113Y-73206913D01*
X164828825Y-73221084D01*
X164827228Y-73234963D01*
X164825321Y-73248550D01*
X164823106Y-73261845D01*
X164820582Y-73274848D01*
X164817748Y-73287559D01*
X164814605Y-73299979D01*
X164811206Y-73312034D01*
X164807510Y-73323746D01*
X164803518Y-73335115D01*
X164799229Y-73346140D01*
X164794645Y-73356822D01*
X164789764Y-73367161D01*
X164784587Y-73377155D01*
X164779114Y-73386807D01*
X164773344Y-73396115D01*
X164767278Y-73405079D01*
X164763070Y-73410865D01*
X164756563Y-73419200D01*
X164749772Y-73427171D01*
X164742698Y-73434777D01*
X164735341Y-73442017D01*
X164727700Y-73448893D01*
X164719776Y-73455404D01*
X164711569Y-73461550D01*
X164703078Y-73467331D01*
X164694304Y-73472747D01*
X164685246Y-73477798D01*
X164679050Y-73480963D01*
X164669534Y-73485371D01*
X164659759Y-73489346D01*
X164649727Y-73492887D01*
X164639437Y-73495995D01*
X164628890Y-73498669D01*
X164618085Y-73500909D01*
X164607023Y-73502716D01*
X164595703Y-73504089D01*
X164584125Y-73505029D01*
X164572290Y-73505535D01*
X164564256Y-73505631D01*
X164554135Y-73505434D01*
X164544289Y-73504841D01*
X164533150Y-73503651D01*
X164522384Y-73501923D01*
X164513454Y-73500013D01*
X164503254Y-73497264D01*
X164493171Y-73493929D01*
X164483205Y-73490011D01*
X164473356Y-73485508D01*
X164467780Y-73482672D01*
X164458068Y-73477239D01*
X164448379Y-73471199D01*
X164440093Y-73465537D01*
X164431824Y-73459429D01*
X164423572Y-73452875D01*
X164415226Y-73445874D01*
X164406674Y-73438426D01*
X164399390Y-73431879D01*
X164391962Y-73425021D01*
X164384391Y-73417854D01*
X164376678Y-73410376D01*
X164376678Y-73718122D01*
X164373991Y-73727648D01*
X164366113Y-73733970D01*
X164364954Y-73734487D01*
X164355413Y-73737482D01*
X164347857Y-73738639D01*
X164337919Y-73739588D01*
X164327936Y-73740013D01*
X164319769Y-73740104D01*
X164309937Y-73739961D01*
X164299588Y-73739412D01*
X164292170Y-73738639D01*
X164282278Y-73736990D01*
X164274584Y-73734487D01*
X164266463Y-73728663D01*
X164265792Y-73727648D01*
X164263349Y-73718122D01*
X164263349Y-73288011D01*
X164376678Y-73288011D01*
X164385425Y-73298672D01*
X164394083Y-73308856D01*
X164402650Y-73318564D01*
X164411127Y-73327796D01*
X164419515Y-73336550D01*
X164427811Y-73344829D01*
X164436018Y-73352630D01*
X164444135Y-73359955D01*
X164452161Y-73366804D01*
X164460097Y-73373176D01*
X164465338Y-73377159D01*
X164475901Y-73384372D01*
X164486587Y-73390623D01*
X164497395Y-73395913D01*
X164508325Y-73400240D01*
X164519377Y-73403606D01*
X164530551Y-73406010D01*
X164541847Y-73407453D01*
X164553265Y-73407934D01*
X164563760Y-73407606D01*
X164573873Y-73406621D01*
X164583605Y-73404980D01*
X164595233Y-73402006D01*
X164606264Y-73398006D01*
X164616699Y-73392980D01*
X164626538Y-73386929D01*
X164635793Y-73380025D01*
X164644475Y-73372441D01*
X164652584Y-73364178D01*
X164660122Y-73355235D01*
X164667086Y-73345612D01*
X164673479Y-73335309D01*
X164675875Y-73330997D01*
X164680478Y-73322136D01*
X164684760Y-73313015D01*
X164688721Y-73303635D01*
X164692362Y-73293995D01*
X164695682Y-73284095D01*
X164698681Y-73273936D01*
X164701360Y-73263518D01*
X164703719Y-73252840D01*
X164705837Y-73242021D01*
X164707673Y-73231178D01*
X164709226Y-73220313D01*
X164710497Y-73209426D01*
X164711485Y-73198515D01*
X164712191Y-73187581D01*
X164712615Y-73176624D01*
X164712756Y-73165645D01*
X164712641Y-73153608D01*
X164712298Y-73141679D01*
X164711726Y-73129856D01*
X164710924Y-73118140D01*
X164709894Y-73106531D01*
X164708634Y-73095028D01*
X164707146Y-73083633D01*
X164705429Y-73072344D01*
X164703494Y-73061266D01*
X164701231Y-73050500D01*
X164698639Y-73040047D01*
X164695720Y-73029907D01*
X164692472Y-73020080D01*
X164688896Y-73010566D01*
X164684992Y-73001365D01*
X164680760Y-72992477D01*
X164674972Y-72981902D01*
X164668600Y-72972007D01*
X164661644Y-72962792D01*
X164654103Y-72954257D01*
X164645978Y-72946401D01*
X164637269Y-72939225D01*
X164633621Y-72936545D01*
X164624034Y-72930494D01*
X164613743Y-72925468D01*
X164602749Y-72921468D01*
X164591051Y-72918494D01*
X164581185Y-72916853D01*
X164570870Y-72915869D01*
X164560104Y-72915540D01*
X164549159Y-72915968D01*
X164538306Y-72917250D01*
X164527544Y-72919387D01*
X164516873Y-72922379D01*
X164507542Y-72925638D01*
X164498140Y-72929645D01*
X164488668Y-72934400D01*
X164479126Y-72939904D01*
X164473642Y-72943384D01*
X164465322Y-72949023D01*
X164456847Y-72955314D01*
X164448217Y-72962257D01*
X164439433Y-72969854D01*
X164431995Y-72976683D01*
X164427480Y-72980997D01*
X164419929Y-72988593D01*
X164412234Y-72996725D01*
X164404396Y-73005394D01*
X164396416Y-73014600D01*
X164389928Y-73022351D01*
X164383349Y-73030445D01*
X164376678Y-73038883D01*
X164376678Y-73288011D01*
X164263349Y-73288011D01*
X164263349Y-72854724D01*
X164265303Y-72844954D01*
X164272859Y-72838700D01*
X164273607Y-72838360D01*
X164283310Y-72835354D01*
X164289483Y-72834452D01*
X164299501Y-72833750D01*
X164309572Y-72833490D01*
X164312930Y-72833475D01*
X164323017Y-72833612D01*
X164332961Y-72834120D01*
X164336622Y-72834452D01*
X164346524Y-72836215D01*
X164352009Y-72838115D01*
X164360068Y-72843787D01*
X164360558Y-72844466D01*
X164363000Y-72853747D01*
X164363000Y-72933370D01*
X164369992Y-72926165D01*
X164376922Y-72919204D01*
X164385499Y-72910846D01*
X164393981Y-72902870D01*
X164402367Y-72895276D01*
X164410658Y-72888063D01*
X164417222Y-72882568D01*
X164425395Y-72876030D01*
X164433580Y-72869850D01*
X164441776Y-72864028D01*
X164449985Y-72858563D01*
X164459851Y-72852478D01*
X164469734Y-72846908D01*
X164479761Y-72841753D01*
X164489873Y-72837096D01*
X164500071Y-72832938D01*
X164510355Y-72829277D01*
X164520725Y-72826114D01*
X164524200Y-72825170D01*
X164534745Y-72822680D01*
X164545495Y-72820705D01*
X164556452Y-72819246D01*
X164567615Y-72818301D01*
X164578983Y-72817872D01*
X164582819Y-72817843D01*
X164595282Y-72818075D01*
G37*
G36*
X165233351Y-72817976D02*
G01*
X165245326Y-72818376D01*
X165256948Y-72819041D01*
X165268218Y-72819973D01*
X165279136Y-72821171D01*
X165289701Y-72822635D01*
X165299915Y-72824365D01*
X165309777Y-72826361D01*
X165319287Y-72828624D01*
X165331419Y-72832055D01*
X165334354Y-72832986D01*
X165345738Y-72836993D01*
X165356565Y-72841443D01*
X165366834Y-72846336D01*
X165376547Y-72851671D01*
X165385702Y-72857449D01*
X165394300Y-72863669D01*
X165402341Y-72870332D01*
X165409825Y-72877438D01*
X165416782Y-72884987D01*
X165423243Y-72892978D01*
X165429208Y-72901412D01*
X165434677Y-72910289D01*
X165439649Y-72919608D01*
X165444126Y-72929371D01*
X165448106Y-72939575D01*
X165451591Y-72950223D01*
X165454682Y-72961260D01*
X165457361Y-72972754D01*
X165459628Y-72984707D01*
X165461482Y-72997117D01*
X165462925Y-73009986D01*
X165463736Y-73019938D01*
X165464316Y-73030147D01*
X165464664Y-73040615D01*
X165464780Y-73051339D01*
X165464780Y-73469239D01*
X165462124Y-73478695D01*
X165459162Y-73481695D01*
X165450216Y-73486303D01*
X165444019Y-73488046D01*
X165434001Y-73489381D01*
X165423769Y-73489906D01*
X165416175Y-73490000D01*
X165405595Y-73489809D01*
X165395609Y-73489158D01*
X165387355Y-73488046D01*
X165377781Y-73485159D01*
X165371967Y-73481695D01*
X165367549Y-73472673D01*
X165367327Y-73469239D01*
X165367327Y-73407445D01*
X165359643Y-73415455D01*
X165351796Y-73423182D01*
X165343786Y-73430625D01*
X165335613Y-73437785D01*
X165327277Y-73444661D01*
X165318778Y-73451255D01*
X165310115Y-73457564D01*
X165301290Y-73463591D01*
X165292301Y-73469334D01*
X165283149Y-73474793D01*
X165276957Y-73478276D01*
X165267563Y-73483165D01*
X165258066Y-73487572D01*
X165248466Y-73491499D01*
X165238763Y-73494945D01*
X165228957Y-73497911D01*
X165219048Y-73500395D01*
X165209036Y-73502399D01*
X165198921Y-73503921D01*
X165188703Y-73504963D01*
X165178382Y-73505524D01*
X165171444Y-73505631D01*
X165159434Y-73505429D01*
X165147707Y-73504822D01*
X165136262Y-73503811D01*
X165125099Y-73502395D01*
X165114219Y-73500574D01*
X165103621Y-73498350D01*
X165093305Y-73495720D01*
X165083272Y-73492686D01*
X165073564Y-73489267D01*
X165064221Y-73485481D01*
X165055245Y-73481329D01*
X165044541Y-73475624D01*
X165034409Y-73469346D01*
X165024849Y-73462495D01*
X165015861Y-73455073D01*
X165007464Y-73447096D01*
X164999675Y-73438582D01*
X164992495Y-73429531D01*
X164985922Y-73419944D01*
X164979958Y-73409820D01*
X164974602Y-73399159D01*
X164972630Y-73394745D01*
X164969024Y-73385616D01*
X164965898Y-73376182D01*
X164963254Y-73366443D01*
X164961090Y-73356399D01*
X164959407Y-73346049D01*
X164958205Y-73335394D01*
X164957483Y-73324433D01*
X164957243Y-73313168D01*
X164957285Y-73310969D01*
X165073258Y-73310969D01*
X165073735Y-73322636D01*
X165075167Y-73333699D01*
X165077552Y-73344160D01*
X165080891Y-73354017D01*
X165085184Y-73363272D01*
X165090432Y-73371923D01*
X165096633Y-73379972D01*
X165103789Y-73387418D01*
X165111803Y-73394058D01*
X165120580Y-73399813D01*
X165130121Y-73404682D01*
X165140425Y-73408667D01*
X165151492Y-73411765D01*
X165163323Y-73413979D01*
X165175917Y-73415307D01*
X165185863Y-73415722D01*
X165189274Y-73415750D01*
X165200345Y-73415399D01*
X165211210Y-73414345D01*
X165221869Y-73412590D01*
X165232322Y-73410132D01*
X165242568Y-73406972D01*
X165252609Y-73403110D01*
X165262444Y-73398546D01*
X165272072Y-73393279D01*
X165281659Y-73387227D01*
X165291367Y-73380426D01*
X165301198Y-73372877D01*
X165311151Y-73364581D01*
X165318696Y-73357867D01*
X165326309Y-73350733D01*
X165333991Y-73343179D01*
X165341742Y-73335203D01*
X165349562Y-73326807D01*
X165352184Y-73323914D01*
X165352184Y-73193000D01*
X165255219Y-73193000D01*
X165243748Y-73193126D01*
X165232657Y-73193504D01*
X165221949Y-73194134D01*
X165211622Y-73195015D01*
X165201677Y-73196149D01*
X165189782Y-73197920D01*
X165178483Y-73200084D01*
X165174131Y-73201060D01*
X165163725Y-73203687D01*
X165153880Y-73206684D01*
X165144596Y-73210051D01*
X165134195Y-73214579D01*
X165124601Y-73219640D01*
X165117222Y-73224263D01*
X165109125Y-73230257D01*
X165100742Y-73237814D01*
X165093504Y-73245978D01*
X165087411Y-73254750D01*
X165083761Y-73261388D01*
X165079669Y-73271107D01*
X165076581Y-73281457D01*
X165074499Y-73292438D01*
X165073515Y-73302353D01*
X165073258Y-73310969D01*
X164957285Y-73310969D01*
X164957430Y-73303263D01*
X164958260Y-73290444D01*
X164959754Y-73278068D01*
X164961912Y-73266134D01*
X164964734Y-73254643D01*
X164968220Y-73243595D01*
X164972371Y-73232990D01*
X164977185Y-73222827D01*
X164978492Y-73220355D01*
X164984094Y-73210735D01*
X164990277Y-73201533D01*
X164997039Y-73192752D01*
X165004382Y-73184391D01*
X165012305Y-73176449D01*
X165020807Y-73168927D01*
X165029890Y-73161825D01*
X165039553Y-73155143D01*
X165049784Y-73148815D01*
X165060573Y-73142900D01*
X165071919Y-73137397D01*
X165083822Y-73132306D01*
X165093115Y-73128758D01*
X165102721Y-73125442D01*
X165112641Y-73122358D01*
X165122874Y-73119506D01*
X165133421Y-73116886D01*
X165137006Y-73116064D01*
X165147984Y-73113750D01*
X165159211Y-73111664D01*
X165170687Y-73109806D01*
X165182412Y-73108175D01*
X165194386Y-73106772D01*
X165206609Y-73105597D01*
X165219081Y-73104648D01*
X165231803Y-73103928D01*
X165244773Y-73103435D01*
X165257992Y-73103169D01*
X165266943Y-73103119D01*
X165352184Y-73103119D01*
X165352184Y-73055491D01*
X165351999Y-73044697D01*
X165351444Y-73034297D01*
X165350520Y-73024290D01*
X165348923Y-73012801D01*
X165346793Y-73001879D01*
X165344612Y-72993210D01*
X165341447Y-72983286D01*
X165337628Y-72974033D01*
X165332349Y-72964083D01*
X165326181Y-72955046D01*
X165320188Y-72948025D01*
X165312336Y-72940550D01*
X165303525Y-72933940D01*
X165293756Y-72928194D01*
X165284620Y-72923958D01*
X165276468Y-72920914D01*
X165266047Y-72917759D01*
X165254750Y-72915258D01*
X165244667Y-72913672D01*
X165233975Y-72912539D01*
X165222675Y-72911859D01*
X165210767Y-72911632D01*
X165200398Y-72911785D01*
X165190297Y-72912243D01*
X165180462Y-72913006D01*
X165168544Y-72914390D01*
X165157044Y-72916250D01*
X165145961Y-72918588D01*
X165135296Y-72921402D01*
X165125113Y-72924503D01*
X165115323Y-72927699D01*
X165105926Y-72930991D01*
X165095170Y-72935066D01*
X165084980Y-72939280D01*
X165076922Y-72942896D01*
X165067863Y-72947223D01*
X165058011Y-72952099D01*
X165048930Y-72956787D01*
X165039496Y-72961916D01*
X165035157Y-72964389D01*
X165026353Y-72969112D01*
X165016719Y-72973004D01*
X165010000Y-72974159D01*
X165000474Y-72971472D01*
X164993751Y-72963953D01*
X164993147Y-72962923D01*
X164989809Y-72953698D01*
X164988750Y-72948513D01*
X164987797Y-72938498D01*
X164987529Y-72928974D01*
X164987744Y-72918698D01*
X164988568Y-72908257D01*
X164989727Y-72901130D01*
X164993520Y-72891781D01*
X164999771Y-72883540D01*
X165001451Y-72881835D01*
X165009419Y-72875194D01*
X165018300Y-72869375D01*
X165027978Y-72863910D01*
X165033447Y-72861074D01*
X165043712Y-72856145D01*
X165053031Y-72852070D01*
X165062831Y-72848131D01*
X165073112Y-72844330D01*
X165083874Y-72840667D01*
X165085715Y-72840069D01*
X165095081Y-72837106D01*
X165104710Y-72834321D01*
X165114602Y-72831715D01*
X165124755Y-72829288D01*
X165135172Y-72827040D01*
X165145850Y-72824971D01*
X165150195Y-72824193D01*
X165161198Y-72822364D01*
X165172224Y-72820845D01*
X165183275Y-72819635D01*
X165194349Y-72818736D01*
X165205448Y-72818147D01*
X165216570Y-72817868D01*
X165221025Y-72817843D01*
X165233351Y-72817976D01*
G37*
G36*
X166267606Y-73692965D02*
G01*
X166267337Y-73703115D01*
X166266372Y-73713140D01*
X166264177Y-73723311D01*
X166261988Y-73728869D01*
X166255555Y-73736933D01*
X166245618Y-73740093D01*
X166244891Y-73740104D01*
X165583482Y-73740104D01*
X165573671Y-73737743D01*
X165566223Y-73730659D01*
X165565408Y-73729357D01*
X165561687Y-73719489D01*
X165560023Y-73709472D01*
X165559355Y-73698687D01*
X165559302Y-73694187D01*
X165559594Y-73684287D01*
X165560643Y-73674376D01*
X165563029Y-73664091D01*
X165565408Y-73658283D01*
X165571454Y-73650534D01*
X165580635Y-73646502D01*
X165583482Y-73646315D01*
X166244891Y-73646315D01*
X166254600Y-73649124D01*
X166261373Y-73656859D01*
X166261744Y-73657550D01*
X166265081Y-73666804D01*
X166266782Y-73676651D01*
X166267514Y-73687123D01*
X166267606Y-73692965D01*
G37*
G36*
X166634774Y-72599062D02*
G01*
X166649112Y-72599377D01*
X166662943Y-72599963D01*
X166676269Y-72600820D01*
X166689087Y-72601947D01*
X166701399Y-72603344D01*
X166713204Y-72605012D01*
X166724503Y-72606951D01*
X166735295Y-72609160D01*
X166745580Y-72611639D01*
X166755359Y-72614389D01*
X166764736Y-72617396D01*
X166776779Y-72621787D01*
X166788294Y-72626613D01*
X166799283Y-72631873D01*
X166809746Y-72637569D01*
X166819681Y-72643700D01*
X166829090Y-72650266D01*
X166837973Y-72657267D01*
X166840111Y-72659085D01*
X166848393Y-72666623D01*
X166856140Y-72674579D01*
X166863352Y-72682956D01*
X166870031Y-72691753D01*
X166876175Y-72700969D01*
X166881785Y-72710605D01*
X166886861Y-72720661D01*
X166891402Y-72731137D01*
X166895409Y-72741937D01*
X166898882Y-72753088D01*
X166901821Y-72764591D01*
X166904225Y-72776444D01*
X166906095Y-72788649D01*
X166907431Y-72801204D01*
X166908232Y-72814111D01*
X166908482Y-72824021D01*
X166908499Y-72827369D01*
X166908314Y-72837302D01*
X166907760Y-72847104D01*
X166906606Y-72858693D01*
X166904920Y-72870093D01*
X166902702Y-72881304D01*
X166900928Y-72888674D01*
X166897831Y-72899510D01*
X166894219Y-72910037D01*
X166890091Y-72920255D01*
X166885449Y-72930164D01*
X166880291Y-72939764D01*
X166878457Y-72942896D01*
X166872696Y-72951974D01*
X166866402Y-72960710D01*
X166859575Y-72969102D01*
X166852216Y-72977151D01*
X166844325Y-72984856D01*
X166841577Y-72987348D01*
X166833001Y-72994426D01*
X166823945Y-73001006D01*
X166814408Y-73007088D01*
X166804391Y-73012673D01*
X166793892Y-73017759D01*
X166790286Y-73019344D01*
X166801609Y-73021755D01*
X166812682Y-73024715D01*
X166823505Y-73028224D01*
X166834078Y-73032281D01*
X166844399Y-73036887D01*
X166854471Y-73042041D01*
X166858429Y-73044256D01*
X166868085Y-73050079D01*
X166877358Y-73056402D01*
X166886250Y-73063226D01*
X166894760Y-73070551D01*
X166902889Y-73078376D01*
X166910636Y-73086703D01*
X166913628Y-73090174D01*
X166920787Y-73099108D01*
X166927458Y-73108506D01*
X166933639Y-73118370D01*
X166939331Y-73128699D01*
X166944534Y-73139494D01*
X166949249Y-73150753D01*
X166950997Y-73155387D01*
X166954260Y-73164847D01*
X166957088Y-73174545D01*
X166959481Y-73184478D01*
X166961439Y-73194649D01*
X166962961Y-73205056D01*
X166964049Y-73215700D01*
X166964702Y-73226580D01*
X166964919Y-73237697D01*
X166964751Y-73247978D01*
X166964248Y-73258060D01*
X166963408Y-73267945D01*
X166961886Y-73280021D01*
X166959840Y-73291787D01*
X166957269Y-73303243D01*
X166954173Y-73314389D01*
X166950676Y-73325131D01*
X166946750Y-73335526D01*
X166942395Y-73345576D01*
X166937610Y-73355280D01*
X166932396Y-73364639D01*
X166926752Y-73373651D01*
X166924375Y-73377159D01*
X166918154Y-73385699D01*
X166911552Y-73393918D01*
X166904568Y-73401814D01*
X166897203Y-73409388D01*
X166889456Y-73416640D01*
X166881327Y-73423570D01*
X166877969Y-73426252D01*
X166869330Y-73432655D01*
X166860357Y-73438736D01*
X166851050Y-73444495D01*
X166841409Y-73449932D01*
X166831434Y-73455047D01*
X166821125Y-73459840D01*
X166816908Y-73461667D01*
X166806180Y-73465921D01*
X166795212Y-73469829D01*
X166784007Y-73473392D01*
X166772563Y-73476608D01*
X166760880Y-73479479D01*
X166748959Y-73482003D01*
X166744124Y-73482916D01*
X166734236Y-73484577D01*
X166723989Y-73486015D01*
X166713383Y-73487233D01*
X166702419Y-73488229D01*
X166691096Y-73489003D01*
X166679415Y-73489557D01*
X166667374Y-73489889D01*
X166654975Y-73490000D01*
X166422944Y-73490000D01*
X166413189Y-73488974D01*
X166403767Y-73485897D01*
X166394680Y-73480769D01*
X166392903Y-73479497D01*
X166386173Y-73472177D01*
X166381645Y-73462307D01*
X166379470Y-73451392D01*
X166378981Y-73441884D01*
X166378981Y-73083579D01*
X166495729Y-73083579D01*
X166495729Y-73392302D01*
X166667431Y-73392302D01*
X166677403Y-73392154D01*
X166689407Y-73391549D01*
X166700898Y-73390479D01*
X166711875Y-73388944D01*
X166722340Y-73386944D01*
X166732292Y-73384479D01*
X166738018Y-73382777D01*
X166747303Y-73379580D01*
X166757974Y-73375160D01*
X166768129Y-73370106D01*
X166777769Y-73364416D01*
X166786893Y-73358090D01*
X166791263Y-73354689D01*
X166799603Y-73347410D01*
X166807222Y-73339496D01*
X166814120Y-73330947D01*
X166820297Y-73321762D01*
X166825752Y-73311942D01*
X166827411Y-73308527D01*
X166831893Y-73297777D01*
X166834920Y-73288346D01*
X166837302Y-73278485D01*
X166839041Y-73268196D01*
X166840136Y-73257476D01*
X166840587Y-73246328D01*
X166840600Y-73244047D01*
X166840290Y-73231991D01*
X166839359Y-73220400D01*
X166837809Y-73209275D01*
X166835638Y-73198614D01*
X166832848Y-73188418D01*
X166829437Y-73178688D01*
X166827899Y-73174926D01*
X166823644Y-73165847D01*
X166818816Y-73157233D01*
X166813416Y-73149084D01*
X166806180Y-73139919D01*
X166798120Y-73131424D01*
X166790774Y-73124856D01*
X166782837Y-73118760D01*
X166774292Y-73113140D01*
X166765139Y-73107998D01*
X166755378Y-73103333D01*
X166745008Y-73099144D01*
X166734031Y-73095433D01*
X166729469Y-73094082D01*
X166720012Y-73091620D01*
X166709960Y-73089487D01*
X166699313Y-73087682D01*
X166688070Y-73086205D01*
X166676232Y-73085056D01*
X166663798Y-73084236D01*
X166650770Y-73083744D01*
X166640607Y-73083590D01*
X166637145Y-73083579D01*
X166495729Y-73083579D01*
X166378981Y-73083579D01*
X166378981Y-72696699D01*
X166495729Y-72696699D01*
X166495729Y-72989790D01*
X166630307Y-72989790D01*
X166641565Y-72989599D01*
X166652258Y-72989027D01*
X166662386Y-72988073D01*
X166674253Y-72986344D01*
X166685236Y-72984018D01*
X166695338Y-72981096D01*
X166704556Y-72977578D01*
X166714754Y-72972707D01*
X166724283Y-72967251D01*
X166733141Y-72961212D01*
X166741330Y-72954589D01*
X166748849Y-72947382D01*
X166751207Y-72944849D01*
X166757816Y-72936824D01*
X166763720Y-72928317D01*
X166768921Y-72919330D01*
X166773418Y-72909862D01*
X166777210Y-72899913D01*
X166778318Y-72896489D01*
X166781223Y-72886071D01*
X166783527Y-72875515D01*
X166785230Y-72864822D01*
X166786332Y-72853991D01*
X166786833Y-72843023D01*
X166786866Y-72839337D01*
X166786646Y-72829258D01*
X166785984Y-72819478D01*
X166784607Y-72808135D01*
X166782595Y-72797221D01*
X166779947Y-72786737D01*
X166777829Y-72779986D01*
X166774163Y-72770285D01*
X166769758Y-72761152D01*
X166764614Y-72752586D01*
X166758732Y-72744586D01*
X166752112Y-72737152D01*
X166749741Y-72734801D01*
X166742176Y-72728149D01*
X166733770Y-72722115D01*
X166724522Y-72716700D01*
X166714433Y-72711903D01*
X166703502Y-72707724D01*
X166699672Y-72706468D01*
X166689565Y-72703654D01*
X166678482Y-72701316D01*
X166666420Y-72699456D01*
X166656066Y-72698311D01*
X166645087Y-72697472D01*
X166633481Y-72696937D01*
X166621250Y-72696708D01*
X166618094Y-72696699D01*
X166495729Y-72696699D01*
X166378981Y-72696699D01*
X166378981Y-72647117D01*
X166379647Y-72636146D01*
X166382040Y-72625526D01*
X166386812Y-72616022D01*
X166392903Y-72609748D01*
X166401923Y-72604081D01*
X166411278Y-72600513D01*
X166420967Y-72599044D01*
X166422944Y-72599002D01*
X166624933Y-72599002D01*
X166634774Y-72599062D01*
G37*
G36*
X167659302Y-73468750D02*
G01*
X167656615Y-73478032D01*
X167648736Y-73484070D01*
X167647578Y-73484626D01*
X167638037Y-73487507D01*
X167630481Y-73488778D01*
X167620624Y-73489569D01*
X167610835Y-73489923D01*
X167602882Y-73490000D01*
X167592792Y-73489880D01*
X167582259Y-73489422D01*
X167574794Y-73488778D01*
X167564963Y-73487008D01*
X167557452Y-73484626D01*
X167549385Y-73478936D01*
X167548660Y-73478032D01*
X167545973Y-73468506D01*
X167545973Y-73105073D01*
X167545843Y-73092147D01*
X167545454Y-73079870D01*
X167544805Y-73068242D01*
X167543897Y-73057262D01*
X167542729Y-73046932D01*
X167541302Y-73037250D01*
X167539153Y-73026059D01*
X167537669Y-73019832D01*
X167534889Y-73009901D01*
X167531739Y-73000412D01*
X167527472Y-72989607D01*
X167522672Y-72979437D01*
X167517339Y-72969903D01*
X167513489Y-72963900D01*
X167507292Y-72955494D01*
X167500426Y-72947861D01*
X167492889Y-72941000D01*
X167484683Y-72934912D01*
X167475808Y-72929597D01*
X167472700Y-72927997D01*
X167463074Y-72923763D01*
X167452882Y-72920406D01*
X167442123Y-72917925D01*
X167430797Y-72916319D01*
X167420926Y-72915650D01*
X167414815Y-72915540D01*
X167404133Y-72916014D01*
X167393459Y-72917433D01*
X167382792Y-72919799D01*
X167372133Y-72923112D01*
X167361482Y-72927371D01*
X167350838Y-72932576D01*
X167340202Y-72938728D01*
X167329574Y-72945826D01*
X167321567Y-72951754D01*
X167313482Y-72958180D01*
X167305321Y-72965103D01*
X167297082Y-72972525D01*
X167288766Y-72980445D01*
X167280372Y-72988863D01*
X167271902Y-72997779D01*
X167263353Y-73007192D01*
X167254728Y-73017104D01*
X167246026Y-73027514D01*
X167240181Y-73034731D01*
X167240181Y-73468506D01*
X167237494Y-73478032D01*
X167229616Y-73484070D01*
X167228457Y-73484626D01*
X167218917Y-73487507D01*
X167211360Y-73488778D01*
X167201422Y-73489569D01*
X167191439Y-73489923D01*
X167183272Y-73490000D01*
X167173441Y-73489880D01*
X167163091Y-73489422D01*
X167155673Y-73488778D01*
X167145781Y-73487008D01*
X167138087Y-73484626D01*
X167129966Y-73479176D01*
X167129295Y-73478276D01*
X167126852Y-73468750D01*
X167126852Y-72558213D01*
X167129295Y-72548688D01*
X167136931Y-72542365D01*
X167138087Y-72541849D01*
X167148048Y-72539063D01*
X167155673Y-72537941D01*
X167165530Y-72536992D01*
X167175319Y-72536567D01*
X167183272Y-72536475D01*
X167193362Y-72536619D01*
X167203895Y-72537168D01*
X167211360Y-72537941D01*
X167221130Y-72539528D01*
X167228457Y-72541849D01*
X167236565Y-72547426D01*
X167237494Y-72548688D01*
X167240181Y-72557969D01*
X167240181Y-72919692D01*
X167249344Y-72910261D01*
X167258516Y-72901294D01*
X167267697Y-72892790D01*
X167276886Y-72884750D01*
X167286084Y-72877174D01*
X167295290Y-72870062D01*
X167304505Y-72863413D01*
X167313729Y-72857227D01*
X167322961Y-72851506D01*
X167332201Y-72846248D01*
X167338367Y-72843000D01*
X167347667Y-72838504D01*
X167356977Y-72834451D01*
X167366295Y-72830839D01*
X167375621Y-72827670D01*
X167388070Y-72824132D01*
X167400534Y-72821381D01*
X167413013Y-72819415D01*
X167425508Y-72818236D01*
X167438018Y-72817843D01*
X167449474Y-72818028D01*
X167460578Y-72818582D01*
X167471330Y-72819505D01*
X167481729Y-72820797D01*
X167491777Y-72822459D01*
X167501473Y-72824489D01*
X167513853Y-72827771D01*
X167525607Y-72831710D01*
X167536736Y-72836305D01*
X167542065Y-72838848D01*
X167552377Y-72844321D01*
X167562185Y-72850236D01*
X167571489Y-72856594D01*
X167580289Y-72863394D01*
X167588586Y-72870638D01*
X167596379Y-72878324D01*
X167603668Y-72886453D01*
X167610453Y-72895024D01*
X167616754Y-72904004D01*
X167622589Y-72913357D01*
X167627958Y-72923085D01*
X167632862Y-72933187D01*
X167637301Y-72943663D01*
X167641273Y-72954512D01*
X167644781Y-72965736D01*
X167647822Y-72977334D01*
X167650513Y-72989424D01*
X167652844Y-73002124D01*
X167654358Y-73012051D01*
X167655670Y-73022320D01*
X167656779Y-73032933D01*
X167657687Y-73043890D01*
X167658394Y-73055190D01*
X167658898Y-73066834D01*
X167659201Y-73078820D01*
X167659302Y-73091151D01*
X167659302Y-73468750D01*
G37*
G36*
X168096855Y-72817976D02*
G01*
X168108829Y-72818376D01*
X168120451Y-72819041D01*
X168131721Y-72819973D01*
X168142639Y-72821171D01*
X168153205Y-72822635D01*
X168163418Y-72824365D01*
X168173280Y-72826361D01*
X168182790Y-72828624D01*
X168194922Y-72832055D01*
X168197857Y-72832986D01*
X168209241Y-72836993D01*
X168220068Y-72841443D01*
X168230338Y-72846336D01*
X168240050Y-72851671D01*
X168249205Y-72857449D01*
X168257803Y-72863669D01*
X168265844Y-72870332D01*
X168273328Y-72877438D01*
X168280285Y-72884987D01*
X168286746Y-72892978D01*
X168292711Y-72901412D01*
X168298180Y-72910289D01*
X168303153Y-72919608D01*
X168307629Y-72929371D01*
X168311609Y-72939575D01*
X168315094Y-72950223D01*
X168318185Y-72961260D01*
X168320864Y-72972754D01*
X168323131Y-72984707D01*
X168324986Y-72997117D01*
X168326428Y-73009986D01*
X168327240Y-73019938D01*
X168327819Y-73030147D01*
X168328167Y-73040615D01*
X168328283Y-73051339D01*
X168328283Y-73469239D01*
X168325628Y-73478695D01*
X168322665Y-73481695D01*
X168313719Y-73486303D01*
X168307522Y-73488046D01*
X168297504Y-73489381D01*
X168287272Y-73489906D01*
X168279678Y-73490000D01*
X168269098Y-73489809D01*
X168259112Y-73489158D01*
X168250858Y-73488046D01*
X168241284Y-73485159D01*
X168235471Y-73481695D01*
X168231052Y-73472673D01*
X168230830Y-73469239D01*
X168230830Y-73407445D01*
X168223146Y-73415455D01*
X168215300Y-73423182D01*
X168207290Y-73430625D01*
X168199117Y-73437785D01*
X168190780Y-73444661D01*
X168182281Y-73451255D01*
X168173618Y-73457564D01*
X168164793Y-73463591D01*
X168155804Y-73469334D01*
X168146652Y-73474793D01*
X168140460Y-73478276D01*
X168131066Y-73483165D01*
X168121569Y-73487572D01*
X168111970Y-73491499D01*
X168102267Y-73494945D01*
X168092461Y-73497911D01*
X168082552Y-73500395D01*
X168072540Y-73502399D01*
X168062424Y-73503921D01*
X168052206Y-73504963D01*
X168041885Y-73505524D01*
X168034947Y-73505631D01*
X168022937Y-73505429D01*
X168011210Y-73504822D01*
X167999765Y-73503811D01*
X167988602Y-73502395D01*
X167977722Y-73500574D01*
X167967124Y-73498350D01*
X167956809Y-73495720D01*
X167946775Y-73492686D01*
X167937067Y-73489267D01*
X167927725Y-73485481D01*
X167918749Y-73481329D01*
X167908044Y-73475624D01*
X167897912Y-73469346D01*
X167888352Y-73462495D01*
X167879364Y-73455073D01*
X167870967Y-73447096D01*
X167863179Y-73438582D01*
X167855998Y-73429531D01*
X167849426Y-73419944D01*
X167843461Y-73409820D01*
X167838106Y-73399159D01*
X167836133Y-73394745D01*
X167832527Y-73385616D01*
X167829402Y-73376182D01*
X167826757Y-73366443D01*
X167824593Y-73356399D01*
X167822910Y-73346049D01*
X167821708Y-73335394D01*
X167820987Y-73324433D01*
X167820746Y-73313168D01*
X167820788Y-73310969D01*
X167936762Y-73310969D01*
X167937239Y-73322636D01*
X167938670Y-73333699D01*
X167941055Y-73344160D01*
X167944394Y-73354017D01*
X167948687Y-73363272D01*
X167953935Y-73371923D01*
X167960136Y-73379972D01*
X167967292Y-73387418D01*
X167975306Y-73394058D01*
X167984084Y-73399813D01*
X167993624Y-73404682D01*
X168003928Y-73408667D01*
X168014996Y-73411765D01*
X168026826Y-73413979D01*
X168039420Y-73415307D01*
X168049366Y-73415722D01*
X168052777Y-73415750D01*
X168063848Y-73415399D01*
X168074713Y-73414345D01*
X168085372Y-73412590D01*
X168095825Y-73410132D01*
X168106071Y-73406972D01*
X168116112Y-73403110D01*
X168125947Y-73398546D01*
X168135575Y-73393279D01*
X168145162Y-73387227D01*
X168154870Y-73380426D01*
X168164701Y-73372877D01*
X168174654Y-73364581D01*
X168182199Y-73357867D01*
X168189812Y-73350733D01*
X168197495Y-73343179D01*
X168205245Y-73335203D01*
X168213065Y-73326807D01*
X168215687Y-73323914D01*
X168215687Y-73193000D01*
X168118722Y-73193000D01*
X168107251Y-73193126D01*
X168096161Y-73193504D01*
X168085452Y-73194134D01*
X168075125Y-73195015D01*
X168065180Y-73196149D01*
X168053285Y-73197920D01*
X168041986Y-73200084D01*
X168037634Y-73201060D01*
X168027228Y-73203687D01*
X168017384Y-73206684D01*
X168008099Y-73210051D01*
X167997698Y-73214579D01*
X167988104Y-73219640D01*
X167980725Y-73224263D01*
X167972628Y-73230257D01*
X167964245Y-73237814D01*
X167957007Y-73245978D01*
X167950915Y-73254750D01*
X167947264Y-73261388D01*
X167943172Y-73271107D01*
X167940085Y-73281457D01*
X167938003Y-73292438D01*
X167937018Y-73302353D01*
X167936762Y-73310969D01*
X167820788Y-73310969D01*
X167820933Y-73303263D01*
X167821763Y-73290444D01*
X167823257Y-73278068D01*
X167825415Y-73266134D01*
X167828237Y-73254643D01*
X167831724Y-73243595D01*
X167835874Y-73232990D01*
X167840688Y-73222827D01*
X167841995Y-73220355D01*
X167847598Y-73210735D01*
X167853780Y-73201533D01*
X167860543Y-73192752D01*
X167867885Y-73184391D01*
X167875808Y-73176449D01*
X167884310Y-73168927D01*
X167893393Y-73161825D01*
X167903056Y-73155143D01*
X167913288Y-73148815D01*
X167924076Y-73142900D01*
X167935422Y-73137397D01*
X167947325Y-73132306D01*
X167956618Y-73128758D01*
X167966224Y-73125442D01*
X167976144Y-73122358D01*
X167986377Y-73119506D01*
X167996924Y-73116886D01*
X168000509Y-73116064D01*
X168011487Y-73113750D01*
X168022714Y-73111664D01*
X168034190Y-73109806D01*
X168045915Y-73108175D01*
X168057889Y-73106772D01*
X168070112Y-73105597D01*
X168082585Y-73104648D01*
X168095306Y-73103928D01*
X168108276Y-73103435D01*
X168121495Y-73103169D01*
X168130446Y-73103119D01*
X168215687Y-73103119D01*
X168215687Y-73055491D01*
X168215502Y-73044697D01*
X168214947Y-73034297D01*
X168214023Y-73024290D01*
X168212426Y-73012801D01*
X168210297Y-73001879D01*
X168208115Y-72993210D01*
X168204950Y-72983286D01*
X168201132Y-72974033D01*
X168195852Y-72964083D01*
X168189685Y-72955046D01*
X168183691Y-72948025D01*
X168175839Y-72940550D01*
X168167028Y-72933940D01*
X168157259Y-72928194D01*
X168148123Y-72923958D01*
X168139972Y-72920914D01*
X168129550Y-72917759D01*
X168118253Y-72915258D01*
X168108170Y-72913672D01*
X168097478Y-72912539D01*
X168086178Y-72911859D01*
X168074270Y-72911632D01*
X168063901Y-72911785D01*
X168053800Y-72912243D01*
X168043965Y-72913006D01*
X168032047Y-72914390D01*
X168020547Y-72916250D01*
X168009465Y-72918588D01*
X167998799Y-72921402D01*
X167988616Y-72924503D01*
X167978826Y-72927699D01*
X167969429Y-72930991D01*
X167958673Y-72935066D01*
X167948484Y-72939280D01*
X167940425Y-72942896D01*
X167931366Y-72947223D01*
X167921514Y-72952099D01*
X167912433Y-72956787D01*
X167902999Y-72961916D01*
X167898660Y-72964389D01*
X167889856Y-72969112D01*
X167880222Y-72973004D01*
X167873503Y-72974159D01*
X167863977Y-72971472D01*
X167857254Y-72963953D01*
X167856650Y-72962923D01*
X167853313Y-72953698D01*
X167852254Y-72948513D01*
X167851301Y-72938498D01*
X167851032Y-72928974D01*
X167851247Y-72918698D01*
X167852071Y-72908257D01*
X167853230Y-72901130D01*
X167857023Y-72891781D01*
X167863274Y-72883540D01*
X167864954Y-72881835D01*
X167872922Y-72875194D01*
X167881803Y-72869375D01*
X167891481Y-72863910D01*
X167896950Y-72861074D01*
X167907215Y-72856145D01*
X167916534Y-72852070D01*
X167926334Y-72848131D01*
X167936616Y-72844330D01*
X167947378Y-72840667D01*
X167949218Y-72840069D01*
X167958585Y-72837106D01*
X167968214Y-72834321D01*
X167978105Y-72831715D01*
X167988259Y-72829288D01*
X167998675Y-72827040D01*
X168009353Y-72824971D01*
X168013698Y-72824193D01*
X168024701Y-72822364D01*
X168035728Y-72820845D01*
X168046778Y-72819635D01*
X168057853Y-72818736D01*
X168068951Y-72818147D01*
X168080073Y-72817868D01*
X168084528Y-72817843D01*
X168096855Y-72817976D01*
G37*
G36*
X169062477Y-73468750D02*
G01*
X169060034Y-73478032D01*
X169052020Y-73484257D01*
X169051242Y-73484626D01*
X169041544Y-73487626D01*
X169035122Y-73488778D01*
X169024943Y-73489655D01*
X169014472Y-73489980D01*
X169010942Y-73490000D01*
X169000720Y-73489855D01*
X168990425Y-73489313D01*
X168985052Y-73488778D01*
X168975297Y-73486743D01*
X168969420Y-73484626D01*
X168961649Y-73478487D01*
X168961360Y-73478032D01*
X168959406Y-73468750D01*
X168959406Y-73387662D01*
X168952787Y-73395226D01*
X168946179Y-73402530D01*
X168936289Y-73413000D01*
X168926424Y-73422886D01*
X168916585Y-73432188D01*
X168906772Y-73440907D01*
X168896985Y-73449041D01*
X168887223Y-73456592D01*
X168877487Y-73463558D01*
X168867777Y-73469941D01*
X168858093Y-73475740D01*
X168854870Y-73477543D01*
X168845197Y-73482563D01*
X168835502Y-73487089D01*
X168825785Y-73491121D01*
X168816047Y-73494659D01*
X168806288Y-73497704D01*
X168796507Y-73500255D01*
X168786704Y-73502312D01*
X168776881Y-73503876D01*
X168767035Y-73504945D01*
X168757168Y-73505521D01*
X168750579Y-73505631D01*
X168739164Y-73505451D01*
X168728093Y-73504910D01*
X168717365Y-73504008D01*
X168706981Y-73502746D01*
X168696941Y-73501123D01*
X168687243Y-73499140D01*
X168674848Y-73495934D01*
X168663063Y-73492087D01*
X168651889Y-73487599D01*
X168646531Y-73485115D01*
X168636220Y-73479696D01*
X168626412Y-73473818D01*
X168617108Y-73467483D01*
X168608307Y-73460690D01*
X168600011Y-73453439D01*
X168592218Y-73445730D01*
X168584929Y-73437564D01*
X168578143Y-73428939D01*
X168571839Y-73419845D01*
X168565992Y-73410392D01*
X168560604Y-73400580D01*
X168555673Y-73390409D01*
X168551200Y-73379880D01*
X168547185Y-73368992D01*
X168543629Y-73357746D01*
X168540530Y-73346140D01*
X168537897Y-73333982D01*
X168535614Y-73321197D01*
X168534133Y-73311198D01*
X168532850Y-73300847D01*
X168531763Y-73290143D01*
X168530875Y-73279088D01*
X168530183Y-73267681D01*
X168529690Y-73255921D01*
X168529393Y-73243810D01*
X168529295Y-73231346D01*
X168529295Y-72854724D01*
X168531737Y-72845687D01*
X168539377Y-72839409D01*
X168541018Y-72838604D01*
X168550603Y-72835608D01*
X168558848Y-72834452D01*
X168568705Y-72833819D01*
X168578494Y-72833536D01*
X168586448Y-72833475D01*
X168597063Y-72833590D01*
X168607195Y-72833979D01*
X168613803Y-72834452D01*
X168623695Y-72835978D01*
X168631388Y-72838604D01*
X168639525Y-72844247D01*
X168640669Y-72845687D01*
X168643356Y-72854968D01*
X168643356Y-73216203D01*
X168643425Y-73226225D01*
X168643730Y-73238992D01*
X168644280Y-73251080D01*
X168645073Y-73262489D01*
X168646111Y-73273218D01*
X168647394Y-73283269D01*
X168649340Y-73294876D01*
X168651172Y-73303398D01*
X168653887Y-73313393D01*
X168656996Y-73322923D01*
X168661247Y-73333745D01*
X168666064Y-73343897D01*
X168671448Y-73353380D01*
X168675352Y-73359330D01*
X168681697Y-73367662D01*
X168688644Y-73375255D01*
X168696192Y-73382110D01*
X168704340Y-73388227D01*
X168713090Y-73393605D01*
X168716140Y-73395233D01*
X168725766Y-73399550D01*
X168735958Y-73402973D01*
X168746718Y-73405503D01*
X168758043Y-73407140D01*
X168767914Y-73407822D01*
X168774026Y-73407934D01*
X168784647Y-73407442D01*
X168795260Y-73405965D01*
X168805865Y-73403503D01*
X168816463Y-73400057D01*
X168827053Y-73395626D01*
X168837636Y-73390211D01*
X168848211Y-73383811D01*
X168858778Y-73376427D01*
X168866746Y-73370259D01*
X168874804Y-73363572D01*
X168882952Y-73356366D01*
X168891190Y-73348640D01*
X168899518Y-73340395D01*
X168907937Y-73331630D01*
X168916446Y-73322346D01*
X168925044Y-73312542D01*
X168933733Y-73302218D01*
X168942513Y-73291376D01*
X168948415Y-73283859D01*
X168948415Y-72854724D01*
X168950858Y-72845443D01*
X168958895Y-72839203D01*
X168960139Y-72838604D01*
X168969552Y-72835608D01*
X168977480Y-72834452D01*
X168987260Y-72833819D01*
X168997172Y-72833536D01*
X169005324Y-72833475D01*
X169015156Y-72833570D01*
X169025506Y-72833936D01*
X169032923Y-72834452D01*
X169042693Y-72835978D01*
X169050020Y-72838604D01*
X169058238Y-72844310D01*
X169059302Y-72845443D01*
X169062477Y-72854724D01*
X169062477Y-73468750D01*
G37*
G36*
X145392805Y-73441395D02*
G01*
X145392524Y-73451687D01*
X145391517Y-73461960D01*
X145391339Y-73463133D01*
X145389028Y-73472917D01*
X145386454Y-73478520D01*
X145380253Y-73486185D01*
X145378639Y-73487313D01*
X145368975Y-73489997D01*
X145368625Y-73490000D01*
X144942177Y-73490000D01*
X144932421Y-73488974D01*
X144923000Y-73485897D01*
X144913912Y-73480769D01*
X144912135Y-73479497D01*
X144905405Y-73472177D01*
X144900878Y-73462307D01*
X144898702Y-73451392D01*
X144898213Y-73441884D01*
X144898213Y-72647117D01*
X144898879Y-72636146D01*
X144901272Y-72625526D01*
X144906044Y-72616022D01*
X144912135Y-72609748D01*
X144921156Y-72604081D01*
X144930510Y-72600513D01*
X144940199Y-72599044D01*
X144942177Y-72599002D01*
X145363984Y-72599002D01*
X145373478Y-72601523D01*
X145373754Y-72601688D01*
X145380379Y-72609195D01*
X145381081Y-72610725D01*
X145384187Y-72620107D01*
X145385478Y-72626113D01*
X145386760Y-72636310D01*
X145387172Y-72646303D01*
X145387187Y-72648827D01*
X145386860Y-72659119D01*
X145385685Y-72669392D01*
X145385478Y-72670565D01*
X145383103Y-72680177D01*
X145381081Y-72685464D01*
X145374883Y-72693291D01*
X145373754Y-72694012D01*
X145364319Y-72696696D01*
X145363984Y-72696699D01*
X145016427Y-72696699D01*
X145016427Y-72970251D01*
X145314403Y-72970251D01*
X145323862Y-72973041D01*
X145324417Y-72973426D01*
X145331175Y-72980852D01*
X145331988Y-72982219D01*
X145335314Y-72991485D01*
X145336385Y-72997850D01*
X145337437Y-73007761D01*
X145337827Y-73017565D01*
X145337850Y-73020809D01*
X145337570Y-73031268D01*
X145336647Y-73041021D01*
X145336385Y-73042791D01*
X145334095Y-73052751D01*
X145331988Y-73057445D01*
X145325497Y-73064845D01*
X145324417Y-73065505D01*
X145314753Y-73067945D01*
X145314403Y-73067948D01*
X145016427Y-73067948D01*
X145016427Y-73392302D01*
X145368625Y-73392302D01*
X145378363Y-73394824D01*
X145378639Y-73394989D01*
X145385584Y-73402122D01*
X145386454Y-73403538D01*
X145390211Y-73412704D01*
X145391339Y-73418681D01*
X145392438Y-73428878D01*
X145392792Y-73438871D01*
X145392805Y-73441395D01*
G37*
G36*
X145993886Y-73382533D02*
G01*
X145993746Y-73392397D01*
X145993242Y-73402182D01*
X145993154Y-73403293D01*
X145991771Y-73413356D01*
X145990711Y-73417704D01*
X145987158Y-73426840D01*
X145986559Y-73427962D01*
X145980420Y-73435969D01*
X145975568Y-73440907D01*
X145967474Y-73447719D01*
X145959194Y-73453594D01*
X145950245Y-73459368D01*
X145946503Y-73461667D01*
X145937270Y-73466988D01*
X145927523Y-73472052D01*
X145917261Y-73476859D01*
X145908057Y-73480775D01*
X145900097Y-73483893D01*
X145890317Y-73487345D01*
X145880210Y-73490557D01*
X145869778Y-73493528D01*
X145859019Y-73496258D01*
X145847933Y-73498748D01*
X145844166Y-73499525D01*
X145832740Y-73501600D01*
X145821176Y-73503246D01*
X145811435Y-73504289D01*
X145801599Y-73505035D01*
X145791667Y-73505482D01*
X145781639Y-73505631D01*
X145769270Y-73505436D01*
X145757167Y-73504850D01*
X145745331Y-73503873D01*
X145733760Y-73502505D01*
X145722456Y-73500747D01*
X145711418Y-73498599D01*
X145700646Y-73496059D01*
X145690140Y-73493129D01*
X145679900Y-73489808D01*
X145669927Y-73486096D01*
X145663426Y-73483405D01*
X145653911Y-73479057D01*
X145644693Y-73474349D01*
X145635770Y-73469280D01*
X145627144Y-73463850D01*
X145618815Y-73458060D01*
X145610781Y-73451909D01*
X145603044Y-73445398D01*
X145595603Y-73438525D01*
X145588458Y-73431292D01*
X145581609Y-73423699D01*
X145577208Y-73418436D01*
X145570849Y-73410207D01*
X145564778Y-73401638D01*
X145558994Y-73392730D01*
X145553498Y-73383483D01*
X145548289Y-73373897D01*
X145543368Y-73363971D01*
X145538735Y-73353707D01*
X145534389Y-73343103D01*
X145530331Y-73332160D01*
X145526561Y-73320878D01*
X145524207Y-73313168D01*
X145520977Y-73301320D01*
X145518065Y-73289134D01*
X145515471Y-73276608D01*
X145513194Y-73263743D01*
X145511234Y-73250539D01*
X145509593Y-73236995D01*
X145508269Y-73223113D01*
X145507263Y-73208891D01*
X145506575Y-73194330D01*
X145506292Y-73184435D01*
X145506151Y-73174388D01*
X145506133Y-73169309D01*
X145506220Y-73157840D01*
X145506481Y-73146575D01*
X145506915Y-73135514D01*
X145507523Y-73124658D01*
X145508304Y-73114006D01*
X145509259Y-73103558D01*
X145510388Y-73093314D01*
X145511690Y-73083274D01*
X145513166Y-73073439D01*
X145514816Y-73063807D01*
X145517616Y-73049743D01*
X145520806Y-73036138D01*
X145524388Y-73022993D01*
X145528360Y-73010307D01*
X145532717Y-72998061D01*
X145537361Y-72986235D01*
X145542294Y-72974831D01*
X145547514Y-72963847D01*
X145553021Y-72953284D01*
X145558816Y-72943142D01*
X145564899Y-72933420D01*
X145571270Y-72924119D01*
X145577928Y-72915239D01*
X145584874Y-72906780D01*
X145589665Y-72901374D01*
X145597066Y-72893599D01*
X145604708Y-72886210D01*
X145612591Y-72879208D01*
X145620714Y-72872592D01*
X145629077Y-72866362D01*
X145637681Y-72860519D01*
X145646525Y-72855062D01*
X145655610Y-72849992D01*
X145664935Y-72845308D01*
X145674501Y-72841010D01*
X145681011Y-72838360D01*
X145690933Y-72834693D01*
X145701004Y-72831387D01*
X145711226Y-72828442D01*
X145721598Y-72825857D01*
X145732120Y-72823633D01*
X145742792Y-72821770D01*
X145753615Y-72820267D01*
X145764588Y-72819125D01*
X145775712Y-72818344D01*
X145786985Y-72817923D01*
X145794584Y-72817843D01*
X145805607Y-72818049D01*
X145816509Y-72818668D01*
X145827291Y-72819698D01*
X145837953Y-72821140D01*
X145848494Y-72822995D01*
X145851981Y-72823705D01*
X145862260Y-72825949D01*
X145872212Y-72828468D01*
X145881837Y-72831261D01*
X145891137Y-72834330D01*
X145901573Y-72838257D01*
X145903028Y-72838848D01*
X145913029Y-72843049D01*
X145922516Y-72847530D01*
X145931489Y-72852292D01*
X145939947Y-72857334D01*
X145944549Y-72860341D01*
X145953083Y-72866234D01*
X145961186Y-72872352D01*
X145968939Y-72879095D01*
X145971172Y-72881346D01*
X145977776Y-72888609D01*
X145982407Y-72895024D01*
X145986623Y-72903849D01*
X145987536Y-72906748D01*
X145989790Y-72916460D01*
X145990467Y-72922135D01*
X145991039Y-72932458D01*
X145991199Y-72942823D01*
X145991200Y-72943628D01*
X145990977Y-72953486D01*
X145990152Y-72963510D01*
X145988198Y-72974063D01*
X145984849Y-72982707D01*
X145978535Y-72990596D01*
X145969951Y-72993698D01*
X145960200Y-72991361D01*
X145951752Y-72986244D01*
X145946015Y-72981486D01*
X145937997Y-72974423D01*
X145929865Y-72967821D01*
X145921972Y-72961794D01*
X145913355Y-72955533D01*
X145912065Y-72954619D01*
X145902668Y-72948325D01*
X145893944Y-72943115D01*
X145884602Y-72938078D01*
X145874642Y-72933212D01*
X145864063Y-72928518D01*
X145862240Y-72927752D01*
X145852894Y-72924234D01*
X145843025Y-72921312D01*
X145832630Y-72918987D01*
X145821711Y-72917258D01*
X145810266Y-72916125D01*
X145798298Y-72915588D01*
X145793363Y-72915540D01*
X145783284Y-72915790D01*
X145773503Y-72916540D01*
X145759389Y-72918602D01*
X145745946Y-72921790D01*
X145733172Y-72926101D01*
X145721067Y-72931538D01*
X145709633Y-72938100D01*
X145698868Y-72945786D01*
X145688773Y-72954598D01*
X145679347Y-72964534D01*
X145670592Y-72975595D01*
X145667822Y-72979532D01*
X145660053Y-72991989D01*
X145655298Y-73000854D01*
X145650882Y-73010168D01*
X145646806Y-73019930D01*
X145643070Y-73030141D01*
X145639674Y-73040799D01*
X145636617Y-73051907D01*
X145633900Y-73063463D01*
X145631522Y-73075467D01*
X145629484Y-73087919D01*
X145627786Y-73100820D01*
X145626427Y-73114170D01*
X145625408Y-73127967D01*
X145624729Y-73142214D01*
X145624389Y-73156908D01*
X145624347Y-73164424D01*
X145624446Y-73175694D01*
X145624742Y-73186698D01*
X145625236Y-73197435D01*
X145625927Y-73207907D01*
X145626816Y-73218112D01*
X145627902Y-73228051D01*
X145629657Y-73240889D01*
X145631764Y-73253254D01*
X145634222Y-73265145D01*
X145635582Y-73270914D01*
X145638616Y-73282099D01*
X145641978Y-73292819D01*
X145645669Y-73303074D01*
X145649687Y-73312862D01*
X145654034Y-73322186D01*
X145658709Y-73331043D01*
X145663712Y-73339435D01*
X145669043Y-73347362D01*
X145676151Y-73356527D01*
X145683736Y-73364940D01*
X145691798Y-73372603D01*
X145700337Y-73379514D01*
X145709353Y-73385674D01*
X145718846Y-73391082D01*
X145722777Y-73393035D01*
X145733002Y-73397327D01*
X145743681Y-73400892D01*
X145754812Y-73403729D01*
X145766397Y-73405839D01*
X145778435Y-73407221D01*
X145788392Y-73407803D01*
X145796050Y-73407934D01*
X145808029Y-73407636D01*
X145819544Y-73406741D01*
X145830593Y-73405251D01*
X145841177Y-73403164D01*
X145851297Y-73400480D01*
X145860951Y-73397201D01*
X145864682Y-73395722D01*
X145873721Y-73391775D01*
X145884048Y-73386898D01*
X145893808Y-73381866D01*
X145903001Y-73376680D01*
X145911628Y-73371339D01*
X145915729Y-73368611D01*
X145924900Y-73362233D01*
X145933393Y-73356135D01*
X145942270Y-73349510D01*
X145950261Y-73343252D01*
X145952121Y-73341744D01*
X145960789Y-73335433D01*
X145969490Y-73330945D01*
X145975324Y-73329776D01*
X145983628Y-73332707D01*
X145989181Y-73341179D01*
X145989490Y-73341988D01*
X145991971Y-73351567D01*
X145992909Y-73358597D01*
X145993611Y-73368844D01*
X145993871Y-73379113D01*
X145993886Y-73382533D01*
G37*
G36*
X146502889Y-72888185D02*
G01*
X146502786Y-72898707D01*
X146502441Y-72908632D01*
X146502156Y-72913342D01*
X146500868Y-72923294D01*
X146499225Y-72929218D01*
X146494293Y-72937810D01*
X146494096Y-72938011D01*
X146485547Y-72941186D01*
X146475512Y-72939248D01*
X146472114Y-72938011D01*
X146462626Y-72934516D01*
X146454284Y-72931905D01*
X146444535Y-72929035D01*
X146434370Y-72926551D01*
X146432058Y-72926043D01*
X146421615Y-72924303D01*
X146411402Y-72923485D01*
X146405191Y-72923356D01*
X146394553Y-72924072D01*
X146384011Y-72926218D01*
X146374604Y-72929374D01*
X146371486Y-72930683D01*
X146362126Y-72935421D01*
X146353547Y-72940897D01*
X146344724Y-72947565D01*
X146336803Y-72954375D01*
X146328803Y-72962060D01*
X146321796Y-72969485D01*
X146314652Y-72977682D01*
X146307370Y-72986652D01*
X146301197Y-72994718D01*
X146298702Y-72998094D01*
X146292412Y-73006871D01*
X146285907Y-73016255D01*
X146279188Y-73026248D01*
X146273659Y-73034680D01*
X146267991Y-73043501D01*
X146262187Y-73052712D01*
X146256245Y-73062312D01*
X146254738Y-73064773D01*
X146254738Y-73468750D01*
X146252051Y-73478032D01*
X146244173Y-73484070D01*
X146243014Y-73484626D01*
X146233473Y-73487507D01*
X146225917Y-73488778D01*
X146215979Y-73489569D01*
X146205996Y-73489923D01*
X146197829Y-73490000D01*
X146187997Y-73489880D01*
X146177648Y-73489422D01*
X146170230Y-73488778D01*
X146160338Y-73487008D01*
X146152644Y-73484626D01*
X146144523Y-73478936D01*
X146143852Y-73478032D01*
X146141409Y-73468750D01*
X146141409Y-72854724D01*
X146143363Y-72845443D01*
X146150919Y-72839003D01*
X146151667Y-72838604D01*
X146161370Y-72835383D01*
X146167543Y-72834452D01*
X146177990Y-72833750D01*
X146188203Y-72833499D01*
X146192944Y-72833475D01*
X146202749Y-72833590D01*
X146212774Y-72834024D01*
X146218101Y-72834452D01*
X146227899Y-72836246D01*
X146233489Y-72838604D01*
X146241016Y-72844987D01*
X146241304Y-72845443D01*
X146243747Y-72854724D01*
X146243747Y-72944117D01*
X146250048Y-72934637D01*
X146256249Y-72925615D01*
X146262351Y-72917052D01*
X146268354Y-72908946D01*
X146275719Y-72899458D01*
X146282928Y-72890685D01*
X146289982Y-72882628D01*
X146291374Y-72881102D01*
X146298331Y-72873726D01*
X146306505Y-72865551D01*
X146314491Y-72858115D01*
X146322287Y-72851418D01*
X146331145Y-72844537D01*
X146333628Y-72842756D01*
X146342367Y-72836979D01*
X146351059Y-72832044D01*
X146360936Y-72827434D01*
X146370751Y-72823923D01*
X146373196Y-72823217D01*
X146383087Y-72820866D01*
X146392979Y-72819187D01*
X146402871Y-72818179D01*
X146412763Y-72817843D01*
X146422985Y-72818119D01*
X146433035Y-72818820D01*
X146443220Y-72820002D01*
X146452928Y-72821686D01*
X146456727Y-72822484D01*
X146466404Y-72824788D01*
X146475834Y-72827539D01*
X146478953Y-72828590D01*
X146488364Y-72832437D01*
X146493119Y-72835429D01*
X146498492Y-72842023D01*
X146500935Y-72849839D01*
X146502246Y-72859773D01*
X146502400Y-72863517D01*
X146502751Y-72873438D01*
X146502877Y-72883461D01*
X146502889Y-72888185D01*
G37*
G36*
X147158681Y-73468750D02*
G01*
X147156238Y-73478032D01*
X147148224Y-73484257D01*
X147147445Y-73484626D01*
X147137748Y-73487626D01*
X147131325Y-73488778D01*
X147121147Y-73489655D01*
X147110675Y-73489980D01*
X147107145Y-73490000D01*
X147096923Y-73489855D01*
X147086629Y-73489313D01*
X147081256Y-73488778D01*
X147071501Y-73486743D01*
X147065624Y-73484626D01*
X147057853Y-73478487D01*
X147057564Y-73478032D01*
X147055610Y-73468750D01*
X147055610Y-73387662D01*
X147048991Y-73395226D01*
X147042383Y-73402530D01*
X147032492Y-73413000D01*
X147022628Y-73422886D01*
X147012789Y-73432188D01*
X147002976Y-73440907D01*
X146993188Y-73449041D01*
X146983427Y-73456592D01*
X146973691Y-73463558D01*
X146963981Y-73469941D01*
X146954297Y-73475740D01*
X146951074Y-73477543D01*
X146941401Y-73482563D01*
X146931706Y-73487089D01*
X146921989Y-73491121D01*
X146912251Y-73494659D01*
X146902492Y-73497704D01*
X146892711Y-73500255D01*
X146882908Y-73502312D01*
X146873084Y-73503876D01*
X146863239Y-73504945D01*
X146853372Y-73505521D01*
X146846782Y-73505631D01*
X146835368Y-73505451D01*
X146824297Y-73504910D01*
X146813569Y-73504008D01*
X146803185Y-73502746D01*
X146793144Y-73501123D01*
X146783447Y-73499140D01*
X146771052Y-73495934D01*
X146759267Y-73492087D01*
X146748093Y-73487599D01*
X146742735Y-73485115D01*
X146732423Y-73479696D01*
X146722616Y-73473818D01*
X146713311Y-73467483D01*
X146704511Y-73460690D01*
X146696214Y-73453439D01*
X146688422Y-73445730D01*
X146681132Y-73437564D01*
X146674347Y-73428939D01*
X146668043Y-73419845D01*
X146662196Y-73410392D01*
X146656807Y-73400580D01*
X146651877Y-73390409D01*
X146647404Y-73379880D01*
X146643389Y-73368992D01*
X146639832Y-73357746D01*
X146636734Y-73346140D01*
X146634100Y-73333982D01*
X146631818Y-73321197D01*
X146630337Y-73311198D01*
X146629053Y-73300847D01*
X146627967Y-73290143D01*
X146627078Y-73279088D01*
X146626387Y-73267681D01*
X146625893Y-73255921D01*
X146625597Y-73243810D01*
X146625498Y-73231346D01*
X146625498Y-72854724D01*
X146627941Y-72845687D01*
X146635581Y-72839409D01*
X146637222Y-72838604D01*
X146646807Y-72835608D01*
X146655052Y-72834452D01*
X146664909Y-72833819D01*
X146674698Y-72833536D01*
X146682651Y-72833475D01*
X146693267Y-72833590D01*
X146703399Y-72833979D01*
X146710006Y-72834452D01*
X146719898Y-72835978D01*
X146727592Y-72838604D01*
X146735728Y-72844247D01*
X146736873Y-72845687D01*
X146739560Y-72854968D01*
X146739560Y-73216203D01*
X146739629Y-73226225D01*
X146739934Y-73238992D01*
X146740483Y-73251080D01*
X146741277Y-73262489D01*
X146742315Y-73273218D01*
X146743598Y-73283269D01*
X146745544Y-73294876D01*
X146747376Y-73303398D01*
X146750091Y-73313393D01*
X146753200Y-73322923D01*
X146757451Y-73333745D01*
X146762268Y-73343897D01*
X146767652Y-73353380D01*
X146771556Y-73359330D01*
X146777901Y-73367662D01*
X146784848Y-73375255D01*
X146792396Y-73382110D01*
X146800544Y-73388227D01*
X146809294Y-73393605D01*
X146812344Y-73395233D01*
X146821970Y-73399550D01*
X146832162Y-73402973D01*
X146842921Y-73405503D01*
X146854247Y-73407140D01*
X146864118Y-73407822D01*
X146870230Y-73407934D01*
X146880851Y-73407442D01*
X146891464Y-73405965D01*
X146902069Y-73403503D01*
X146912667Y-73400057D01*
X146923257Y-73395626D01*
X146933840Y-73390211D01*
X146944415Y-73383811D01*
X146954982Y-73376427D01*
X146962950Y-73370259D01*
X146971008Y-73363572D01*
X146979156Y-73356366D01*
X146987394Y-73348640D01*
X146995722Y-73340395D01*
X147004141Y-73331630D01*
X147012649Y-73322346D01*
X147021248Y-73312542D01*
X147029937Y-73302218D01*
X147038716Y-73291376D01*
X147044619Y-73283859D01*
X147044619Y-72854724D01*
X147047062Y-72845443D01*
X147055099Y-72839203D01*
X147056343Y-72838604D01*
X147065755Y-72835608D01*
X147073684Y-72834452D01*
X147083464Y-72833819D01*
X147093376Y-72833536D01*
X147101528Y-72833475D01*
X147111359Y-72833570D01*
X147121709Y-72833936D01*
X147129127Y-72834452D01*
X147138897Y-72835978D01*
X147146224Y-72838604D01*
X147154442Y-72844310D01*
X147155505Y-72845443D01*
X147158681Y-72854724D01*
X147158681Y-73468750D01*
G37*
G36*
X147833035Y-73455806D02*
G01*
X147837418Y-73465099D01*
X147838653Y-73471926D01*
X147834299Y-73480794D01*
X147832058Y-73482428D01*
X147822673Y-73486326D01*
X147812274Y-73488290D01*
X147802115Y-73489263D01*
X147791277Y-73489797D01*
X147781507Y-73489984D01*
X147777592Y-73490000D01*
X147767761Y-73489938D01*
X147757018Y-73489690D01*
X147747185Y-73489197D01*
X147744863Y-73489023D01*
X147734663Y-73487785D01*
X147725568Y-73485603D01*
X147716730Y-73481253D01*
X147714577Y-73479497D01*
X147708567Y-73471526D01*
X147708227Y-73470949D01*
X147559727Y-73227194D01*
X147411960Y-73470949D01*
X147406088Y-73478758D01*
X147405366Y-73479497D01*
X147396994Y-73484644D01*
X147394375Y-73485603D01*
X147384328Y-73487987D01*
X147375568Y-73489023D01*
X147364951Y-73489655D01*
X147355029Y-73489922D01*
X147344794Y-73490000D01*
X147334108Y-73489864D01*
X147323594Y-73489397D01*
X147313681Y-73488497D01*
X147312065Y-73488290D01*
X147302261Y-73486326D01*
X147293503Y-73482428D01*
X147288008Y-73474230D01*
X147287885Y-73471926D01*
X147290690Y-73462537D01*
X147294480Y-73455806D01*
X147486943Y-73156364D01*
X147304982Y-72867669D01*
X147300461Y-72858444D01*
X147298876Y-72851793D01*
X147302994Y-72842528D01*
X147305226Y-72840802D01*
X147314732Y-72836663D01*
X147325010Y-72834940D01*
X147335256Y-72834106D01*
X147345141Y-72833681D01*
X147355063Y-72833498D01*
X147360425Y-72833475D01*
X147371053Y-72833552D01*
X147381367Y-72833819D01*
X147391665Y-72834392D01*
X147392421Y-72834452D01*
X147402514Y-72835636D01*
X147411228Y-72837627D01*
X147420319Y-72841769D01*
X147421730Y-72843000D01*
X147427668Y-72851001D01*
X147427836Y-72851304D01*
X147568764Y-73079916D01*
X147711646Y-72851304D01*
X147717752Y-72843733D01*
X147725956Y-72838338D01*
X147727034Y-72837871D01*
X147736726Y-72835297D01*
X147743398Y-72834452D01*
X147753420Y-72833819D01*
X147763914Y-72833536D01*
X147772707Y-72833475D01*
X147783393Y-72833591D01*
X147793907Y-72833991D01*
X147803819Y-72834763D01*
X147805436Y-72834940D01*
X147815286Y-72836523D01*
X147824242Y-72840069D01*
X147829678Y-72848512D01*
X147829616Y-72850572D01*
X147826715Y-72860456D01*
X147822777Y-72867669D01*
X147642281Y-73152944D01*
X147833035Y-73455806D01*
G37*
G36*
X148036809Y-72536619D02*
G01*
X148047342Y-72537168D01*
X148054808Y-72537941D01*
X148064577Y-72539528D01*
X148071905Y-72541849D01*
X148080013Y-72547426D01*
X148080942Y-72548688D01*
X148083628Y-72557969D01*
X148083628Y-72920669D01*
X148090498Y-72913670D01*
X148098998Y-72905329D01*
X148107404Y-72897442D01*
X148115714Y-72890007D01*
X148123928Y-72883025D01*
X148132047Y-72876497D01*
X148136873Y-72872798D01*
X148144934Y-72866877D01*
X148154528Y-72860259D01*
X148164036Y-72854174D01*
X148173459Y-72848621D01*
X148182795Y-72843601D01*
X148187431Y-72841290D01*
X148196682Y-72836943D01*
X148205933Y-72833059D01*
X148215184Y-72829638D01*
X148225976Y-72826234D01*
X148236769Y-72823461D01*
X148247785Y-72821272D01*
X148259035Y-72819621D01*
X148268864Y-72818633D01*
X148278864Y-72818041D01*
X148289036Y-72817843D01*
X148301502Y-72818081D01*
X148313620Y-72818796D01*
X148325390Y-72819988D01*
X148336813Y-72821656D01*
X148347887Y-72823800D01*
X148358614Y-72826421D01*
X148368993Y-72829519D01*
X148379025Y-72833093D01*
X148388708Y-72837144D01*
X148398044Y-72841671D01*
X148404075Y-72844954D01*
X148412892Y-72850201D01*
X148421391Y-72855773D01*
X148429573Y-72861672D01*
X148437437Y-72867898D01*
X148444983Y-72874449D01*
X148452212Y-72881327D01*
X148459123Y-72888531D01*
X148465716Y-72896062D01*
X148471991Y-72903919D01*
X148477949Y-72912102D01*
X148481744Y-72917739D01*
X148487233Y-72926396D01*
X148492434Y-72935333D01*
X148497348Y-72944548D01*
X148501974Y-72954043D01*
X148506313Y-72963817D01*
X148510363Y-72973870D01*
X148514127Y-72984201D01*
X148517602Y-72994812D01*
X148520790Y-73005702D01*
X148523690Y-73016872D01*
X148525464Y-73024473D01*
X148527908Y-73035984D01*
X148530112Y-73047619D01*
X148532075Y-73059380D01*
X148533798Y-73071264D01*
X148535281Y-73083273D01*
X148536523Y-73095407D01*
X148537525Y-73107665D01*
X148538286Y-73120048D01*
X148538807Y-73132555D01*
X148539088Y-73145187D01*
X148539141Y-73153677D01*
X148539072Y-73163781D01*
X148538866Y-73173758D01*
X148538523Y-73183610D01*
X148537750Y-73198152D01*
X148536668Y-73212410D01*
X148535277Y-73226385D01*
X148533577Y-73240076D01*
X148531568Y-73253484D01*
X148529249Y-73266609D01*
X148526622Y-73279450D01*
X148523685Y-73292008D01*
X148521556Y-73300223D01*
X148518156Y-73312237D01*
X148514460Y-73323916D01*
X148510468Y-73335261D01*
X148506180Y-73346270D01*
X148501595Y-73356945D01*
X148496714Y-73367285D01*
X148491537Y-73377290D01*
X148486064Y-73386960D01*
X148480295Y-73396295D01*
X148474229Y-73405295D01*
X148470020Y-73411109D01*
X148463517Y-73419530D01*
X148456740Y-73427573D01*
X148449687Y-73435238D01*
X148442360Y-73442525D01*
X148434758Y-73449434D01*
X148426881Y-73455966D01*
X148418729Y-73462120D01*
X148410303Y-73467896D01*
X148401602Y-73473294D01*
X148392626Y-73478314D01*
X148386489Y-73481451D01*
X148377112Y-73485772D01*
X148367481Y-73489668D01*
X148357597Y-73493140D01*
X148347460Y-73496186D01*
X148337070Y-73498807D01*
X148326426Y-73501003D01*
X148315528Y-73502774D01*
X148304378Y-73504120D01*
X148292974Y-73505041D01*
X148281317Y-73505537D01*
X148273405Y-73505631D01*
X148262477Y-73505425D01*
X148251858Y-73504807D01*
X148241548Y-73503776D01*
X148231548Y-73502334D01*
X148221856Y-73500479D01*
X148218695Y-73499769D01*
X148207747Y-73496854D01*
X148198456Y-73493797D01*
X148189251Y-73490225D01*
X148180132Y-73486138D01*
X148171099Y-73481535D01*
X148169602Y-73480718D01*
X148160617Y-73475532D01*
X148151616Y-73469865D01*
X148142597Y-73463717D01*
X148133561Y-73457088D01*
X148124507Y-73449978D01*
X148121486Y-73447501D01*
X148113934Y-73440963D01*
X148106240Y-73434020D01*
X148098402Y-73426671D01*
X148090421Y-73418917D01*
X148082297Y-73410757D01*
X148074030Y-73402192D01*
X148070683Y-73398653D01*
X148070683Y-73469972D01*
X148067752Y-73479009D01*
X148059710Y-73484833D01*
X148058960Y-73485115D01*
X148049063Y-73487791D01*
X148043572Y-73488778D01*
X148033744Y-73489655D01*
X148023403Y-73489980D01*
X148019881Y-73490000D01*
X148009413Y-73489798D01*
X147999582Y-73489130D01*
X147996434Y-73488778D01*
X147986722Y-73486821D01*
X147980558Y-73484870D01*
X147972544Y-73479003D01*
X147972254Y-73478520D01*
X147970300Y-73468750D01*
X147970300Y-73288743D01*
X148083628Y-73288743D01*
X148092382Y-73299400D01*
X148101059Y-73309572D01*
X148109659Y-73319258D01*
X148118181Y-73328460D01*
X148126626Y-73337176D01*
X148134994Y-73345407D01*
X148143284Y-73353153D01*
X148151497Y-73360413D01*
X148159633Y-73367189D01*
X148167692Y-73373479D01*
X148173021Y-73377404D01*
X148183703Y-73384559D01*
X148194499Y-73390761D01*
X148205410Y-73396008D01*
X148216435Y-73400301D01*
X148227575Y-73403641D01*
X148238829Y-73406026D01*
X148250198Y-73407457D01*
X148261681Y-73407934D01*
X148272115Y-73407606D01*
X148282167Y-73406621D01*
X148291838Y-73404980D01*
X148303389Y-73402006D01*
X148314344Y-73398006D01*
X148324703Y-73392980D01*
X148334466Y-73386929D01*
X148343650Y-73380037D01*
X148352273Y-73372489D01*
X148360337Y-73364285D01*
X148367839Y-73355426D01*
X148374781Y-73345910D01*
X148381163Y-73335738D01*
X148383558Y-73331486D01*
X148388100Y-73322689D01*
X148392321Y-73313641D01*
X148396221Y-73304341D01*
X148399801Y-73294788D01*
X148403060Y-73284984D01*
X148405998Y-73274928D01*
X148408616Y-73264621D01*
X148410914Y-73254061D01*
X148412974Y-73243295D01*
X148414760Y-73232491D01*
X148416272Y-73221649D01*
X148417508Y-73210769D01*
X148418470Y-73199850D01*
X148419157Y-73188894D01*
X148419569Y-73177899D01*
X148419706Y-73166866D01*
X148419592Y-73154879D01*
X148419248Y-73142976D01*
X148418676Y-73131157D01*
X148417875Y-73119422D01*
X148416844Y-73107771D01*
X148415585Y-73096204D01*
X148414096Y-73084720D01*
X148412379Y-73073321D01*
X148410437Y-73062128D01*
X148408151Y-73051263D01*
X148405521Y-73040726D01*
X148402548Y-73030518D01*
X148399232Y-73020637D01*
X148395572Y-73011085D01*
X148391569Y-73001861D01*
X148387222Y-72992965D01*
X148381364Y-72982385D01*
X148374934Y-72972472D01*
X148367931Y-72963227D01*
X148360355Y-72954650D01*
X148352208Y-72946740D01*
X148343487Y-72939499D01*
X148339839Y-72936789D01*
X148330322Y-72930668D01*
X148320090Y-72925584D01*
X148309142Y-72921537D01*
X148297478Y-72918528D01*
X148287632Y-72916868D01*
X148277328Y-72915872D01*
X148266566Y-72915540D01*
X148255606Y-72915937D01*
X148244706Y-72917128D01*
X148233868Y-72919112D01*
X148223091Y-72921891D01*
X148213759Y-72925066D01*
X148204358Y-72929037D01*
X148194886Y-72933802D01*
X148185344Y-72939362D01*
X148179860Y-72942896D01*
X148171557Y-72948692D01*
X148163133Y-72955089D01*
X148154589Y-72962087D01*
X148145925Y-72969686D01*
X148138614Y-72976478D01*
X148134187Y-72980753D01*
X148126705Y-72988290D01*
X148119069Y-72996400D01*
X148111278Y-73005082D01*
X148103332Y-73014337D01*
X148096863Y-73022152D01*
X148090295Y-73030334D01*
X148083628Y-73038883D01*
X148083628Y-73288743D01*
X147970300Y-73288743D01*
X147970300Y-72558213D01*
X147972742Y-72548688D01*
X147980378Y-72542365D01*
X147981535Y-72541849D01*
X147991495Y-72539063D01*
X147999120Y-72537941D01*
X148008977Y-72536992D01*
X148018767Y-72536567D01*
X148026720Y-72536475D01*
X148036809Y-72536619D01*
G37*
G36*
X149087702Y-72583486D02*
G01*
X149099705Y-72583836D01*
X149111508Y-72584418D01*
X149123111Y-72585232D01*
X149134513Y-72586280D01*
X149145714Y-72587560D01*
X149156716Y-72589074D01*
X149167517Y-72590819D01*
X149178118Y-72592798D01*
X149188518Y-72595010D01*
X149198718Y-72597454D01*
X149208718Y-72600131D01*
X149218517Y-72603041D01*
X149228116Y-72606184D01*
X149237514Y-72609559D01*
X149246713Y-72613168D01*
X149255715Y-72616999D01*
X149268862Y-72623147D01*
X149281578Y-72629776D01*
X149293866Y-72636886D01*
X149305724Y-72644477D01*
X149317153Y-72652548D01*
X149328152Y-72661100D01*
X149338723Y-72670134D01*
X149348863Y-72679648D01*
X149358575Y-72689642D01*
X149367857Y-72700118D01*
X149376708Y-72711070D01*
X149385125Y-72722495D01*
X149393108Y-72734392D01*
X149400658Y-72746761D01*
X149407774Y-72759602D01*
X149412278Y-72768426D01*
X149416588Y-72777459D01*
X149420706Y-72786702D01*
X149424631Y-72796155D01*
X149428363Y-72805818D01*
X149431903Y-72815690D01*
X149435250Y-72825773D01*
X149438404Y-72836066D01*
X149439909Y-72841290D01*
X149442807Y-72851889D01*
X149445519Y-72862681D01*
X149448043Y-72873665D01*
X149450381Y-72884842D01*
X149452531Y-72896212D01*
X149454495Y-72907774D01*
X149456271Y-72919529D01*
X149457861Y-72931477D01*
X149459263Y-72943618D01*
X149460479Y-72955951D01*
X149461507Y-72968477D01*
X149462349Y-72981196D01*
X149463003Y-72994107D01*
X149463471Y-73007212D01*
X149463751Y-73020508D01*
X149463845Y-73033998D01*
X149463744Y-73047530D01*
X149463444Y-73060892D01*
X149462943Y-73074084D01*
X149462242Y-73087106D01*
X149461340Y-73099958D01*
X149460238Y-73112640D01*
X149458936Y-73125153D01*
X149457433Y-73137496D01*
X149455730Y-73149669D01*
X149453827Y-73161672D01*
X149451723Y-73173506D01*
X149449419Y-73185169D01*
X149446915Y-73196663D01*
X149444210Y-73207987D01*
X149441305Y-73219141D01*
X149438199Y-73230125D01*
X149434926Y-73240923D01*
X149431456Y-73251519D01*
X149427789Y-73261913D01*
X149423926Y-73272104D01*
X149419867Y-73282094D01*
X149415610Y-73291880D01*
X149411158Y-73301465D01*
X149406509Y-73310847D01*
X149401663Y-73320027D01*
X149396621Y-73329005D01*
X149391382Y-73337781D01*
X149385946Y-73346354D01*
X149380314Y-73354725D01*
X149374486Y-73362894D01*
X149368461Y-73370861D01*
X149362240Y-73378625D01*
X149355849Y-73386177D01*
X149349257Y-73393508D01*
X149342462Y-73400618D01*
X149335464Y-73407506D01*
X149328265Y-73414174D01*
X149320863Y-73420619D01*
X149313259Y-73426844D01*
X149305453Y-73432847D01*
X149297445Y-73438628D01*
X149289234Y-73444189D01*
X149280821Y-73449528D01*
X149272206Y-73454645D01*
X149263388Y-73459542D01*
X149254368Y-73464217D01*
X149245146Y-73468670D01*
X149235722Y-73472903D01*
X149226096Y-73476866D01*
X149216270Y-73480573D01*
X149206244Y-73484025D01*
X149196017Y-73487221D01*
X149185590Y-73490162D01*
X149174963Y-73492846D01*
X149164135Y-73495276D01*
X149153107Y-73497449D01*
X149141878Y-73499367D01*
X149130449Y-73501029D01*
X149118820Y-73502435D01*
X149106991Y-73503586D01*
X149094961Y-73504480D01*
X149082730Y-73505120D01*
X149070300Y-73505503D01*
X149057669Y-73505631D01*
X149045256Y-73505514D01*
X149033054Y-73505162D01*
X149021061Y-73504575D01*
X149009278Y-73503753D01*
X148997705Y-73502697D01*
X148986342Y-73501406D01*
X148975189Y-73499881D01*
X148964246Y-73498121D01*
X148953513Y-73496126D01*
X148942989Y-73493896D01*
X148932676Y-73491432D01*
X148922572Y-73488732D01*
X148912678Y-73485799D01*
X148902994Y-73482630D01*
X148893520Y-73479227D01*
X148884256Y-73475589D01*
X148875226Y-73471698D01*
X148862049Y-73465463D01*
X148849314Y-73458752D01*
X148837022Y-73451564D01*
X148825171Y-73443900D01*
X148813763Y-73435759D01*
X148802797Y-73427141D01*
X148792274Y-73418047D01*
X148782192Y-73408477D01*
X148772553Y-73398430D01*
X148763356Y-73387906D01*
X148754638Y-73376899D01*
X148746346Y-73365403D01*
X148738478Y-73353418D01*
X148731036Y-73340943D01*
X148726310Y-73332354D01*
X148721774Y-73323548D01*
X148717426Y-73314524D01*
X148713267Y-73305283D01*
X148709297Y-73295825D01*
X148705516Y-73286148D01*
X148701924Y-73276255D01*
X148698521Y-73266143D01*
X148695307Y-73255814D01*
X148692281Y-73245268D01*
X148689442Y-73234514D01*
X148686786Y-73223561D01*
X148684313Y-73212410D01*
X148682023Y-73201060D01*
X148679917Y-73189512D01*
X148677993Y-73177766D01*
X148676253Y-73165821D01*
X148674696Y-73153677D01*
X148673322Y-73141335D01*
X148672131Y-73128795D01*
X148671124Y-73116056D01*
X148670300Y-73103119D01*
X148669658Y-73089983D01*
X148669200Y-73076649D01*
X148668926Y-73063116D01*
X148668834Y-73049385D01*
X148668891Y-73041814D01*
X148793886Y-73041814D01*
X148793937Y-73051657D01*
X148794202Y-73066239D01*
X148794696Y-73080603D01*
X148795416Y-73094747D01*
X148796364Y-73108672D01*
X148797540Y-73122379D01*
X148798943Y-73135866D01*
X148800574Y-73149135D01*
X148802432Y-73162185D01*
X148804518Y-73175015D01*
X148806831Y-73187627D01*
X148809459Y-73199924D01*
X148812395Y-73211904D01*
X148815641Y-73223566D01*
X148819196Y-73234911D01*
X148823060Y-73245937D01*
X148827233Y-73256646D01*
X148831715Y-73267038D01*
X148836507Y-73277111D01*
X148841607Y-73286867D01*
X148847017Y-73296305D01*
X148850795Y-73302421D01*
X148856794Y-73311256D01*
X148863157Y-73319717D01*
X148869885Y-73327805D01*
X148876979Y-73335520D01*
X148884437Y-73342861D01*
X148892260Y-73349828D01*
X148900448Y-73356422D01*
X148909001Y-73362642D01*
X148917919Y-73368489D01*
X148927202Y-73373962D01*
X148933593Y-73377404D01*
X148943580Y-73382161D01*
X148954030Y-73386451D01*
X148964943Y-73390273D01*
X148976321Y-73393627D01*
X148988162Y-73396512D01*
X149000466Y-73398930D01*
X149013235Y-73400880D01*
X149026467Y-73402362D01*
X149040162Y-73403376D01*
X149054322Y-73403922D01*
X149064019Y-73404026D01*
X149078322Y-73403771D01*
X149092195Y-73403004D01*
X149105639Y-73401727D01*
X149118653Y-73399939D01*
X149131238Y-73397640D01*
X149143394Y-73394830D01*
X149155121Y-73391509D01*
X149166418Y-73387677D01*
X149177286Y-73383334D01*
X149187724Y-73378481D01*
X149194445Y-73374961D01*
X149204200Y-73369287D01*
X149213590Y-73363257D01*
X149222615Y-73356871D01*
X149231276Y-73350128D01*
X149239571Y-73343029D01*
X149247502Y-73335574D01*
X149255067Y-73327762D01*
X149262268Y-73319594D01*
X149269104Y-73311070D01*
X149275574Y-73302189D01*
X149279685Y-73296071D01*
X149285567Y-73286637D01*
X149291123Y-73276928D01*
X149296352Y-73266945D01*
X149301255Y-73256687D01*
X149305832Y-73246154D01*
X149310082Y-73235346D01*
X149314006Y-73224263D01*
X149317604Y-73212906D01*
X149320876Y-73201274D01*
X149323821Y-73189367D01*
X149325603Y-73181277D01*
X149328047Y-73168980D01*
X149330251Y-73156547D01*
X149332215Y-73143976D01*
X149333938Y-73131268D01*
X149335421Y-73118422D01*
X149336663Y-73105439D01*
X149337665Y-73092319D01*
X149338426Y-73079061D01*
X149338947Y-73065666D01*
X149339227Y-73052133D01*
X149339281Y-73043035D01*
X149339163Y-73028841D01*
X149338808Y-73014836D01*
X149338218Y-73001021D01*
X149337392Y-72987394D01*
X149336329Y-72973955D01*
X149335030Y-72960706D01*
X149333495Y-72947646D01*
X149331724Y-72934774D01*
X149329717Y-72922092D01*
X149327474Y-72909598D01*
X149325847Y-72901374D01*
X149323216Y-72889210D01*
X149320266Y-72877354D01*
X149316999Y-72865808D01*
X149313414Y-72854571D01*
X149309511Y-72843643D01*
X149305291Y-72833024D01*
X149300753Y-72822715D01*
X149295897Y-72812714D01*
X149290724Y-72803023D01*
X149285232Y-72793640D01*
X149281395Y-72787557D01*
X149275349Y-72778676D01*
X149268933Y-72770169D01*
X149262148Y-72762035D01*
X149254994Y-72754275D01*
X149247471Y-72746888D01*
X149239578Y-72739875D01*
X149231316Y-72733236D01*
X149222685Y-72726970D01*
X149213685Y-72721077D01*
X149204316Y-72715558D01*
X149197864Y-72712086D01*
X149187847Y-72707241D01*
X149177396Y-72702873D01*
X149166512Y-72698981D01*
X149155194Y-72695565D01*
X149143443Y-72692627D01*
X149131257Y-72690164D01*
X149118639Y-72688179D01*
X149105586Y-72686670D01*
X149092100Y-72685637D01*
X149078180Y-72685081D01*
X149068660Y-72684975D01*
X149054451Y-72685233D01*
X149040676Y-72686005D01*
X149027334Y-72687293D01*
X149014426Y-72689097D01*
X149001952Y-72691415D01*
X148989911Y-72694249D01*
X148978304Y-72697597D01*
X148967131Y-72701461D01*
X148956391Y-72705841D01*
X148946085Y-72710735D01*
X148939455Y-72714284D01*
X148929870Y-72719906D01*
X148920625Y-72725870D01*
X148911718Y-72732179D01*
X148903151Y-72738831D01*
X148894923Y-72745826D01*
X148887034Y-72753165D01*
X148879484Y-72760847D01*
X148872273Y-72768872D01*
X148865402Y-72777242D01*
X148858869Y-72785954D01*
X148854703Y-72791953D01*
X148848773Y-72801211D01*
X148843165Y-72810755D01*
X148837880Y-72820588D01*
X148832916Y-72830708D01*
X148828274Y-72841116D01*
X148823954Y-72851811D01*
X148819956Y-72862794D01*
X148816280Y-72874065D01*
X148812927Y-72885623D01*
X148809895Y-72897469D01*
X148808053Y-72905526D01*
X148805521Y-72917722D01*
X148803238Y-72930038D01*
X148801205Y-72942475D01*
X148799420Y-72955031D01*
X148797884Y-72967708D01*
X148796598Y-72980505D01*
X148795560Y-72993422D01*
X148794772Y-73006460D01*
X148794232Y-73019617D01*
X148793942Y-73032895D01*
X148793886Y-73041814D01*
X148668891Y-73041814D01*
X148668933Y-73036212D01*
X148669231Y-73023190D01*
X148669727Y-73010322D01*
X148670422Y-72997606D01*
X148671315Y-72985043D01*
X148672406Y-72972632D01*
X148673696Y-72960374D01*
X148675184Y-72948269D01*
X148676871Y-72936316D01*
X148678756Y-72924516D01*
X148680840Y-72912869D01*
X148683122Y-72901374D01*
X148685603Y-72890032D01*
X148688282Y-72878843D01*
X148691159Y-72867806D01*
X148694235Y-72856922D01*
X148697539Y-72846186D01*
X148701040Y-72835654D01*
X148704737Y-72825326D01*
X148708630Y-72815202D01*
X148712721Y-72805283D01*
X148717007Y-72795567D01*
X148721490Y-72786056D01*
X148726170Y-72776749D01*
X148731046Y-72767647D01*
X148736119Y-72758748D01*
X148741389Y-72750053D01*
X148746854Y-72741563D01*
X148752517Y-72733277D01*
X148758376Y-72725195D01*
X148764431Y-72717317D01*
X148770683Y-72709644D01*
X148777133Y-72702181D01*
X148783781Y-72694936D01*
X148790627Y-72687908D01*
X148797672Y-72681098D01*
X148804916Y-72674505D01*
X148812357Y-72668130D01*
X148819998Y-72661972D01*
X148827836Y-72656032D01*
X148835873Y-72650310D01*
X148844109Y-72644805D01*
X148852543Y-72639517D01*
X148861175Y-72634447D01*
X148870006Y-72629595D01*
X148879036Y-72624960D01*
X148888263Y-72620543D01*
X148897690Y-72616343D01*
X148907314Y-72612350D01*
X148917137Y-72608615D01*
X148927159Y-72605137D01*
X148937379Y-72601917D01*
X148947798Y-72598955D01*
X148958415Y-72596250D01*
X148969230Y-72593803D01*
X148980244Y-72591613D01*
X148991456Y-72589681D01*
X149002867Y-72588007D01*
X149014476Y-72586590D01*
X149026284Y-72585431D01*
X149038290Y-72584529D01*
X149050494Y-72583885D01*
X149062897Y-72583499D01*
X149075498Y-72583370D01*
X149087702Y-72583486D01*
G37*
G36*
X149953796Y-73430893D02*
G01*
X149953564Y-73441502D01*
X149952762Y-73451748D01*
X149951045Y-73461903D01*
X149950865Y-73462644D01*
X149947702Y-73472294D01*
X149942561Y-73479986D01*
X149934738Y-73485996D01*
X149926196Y-73490244D01*
X149916742Y-73493931D01*
X149907085Y-73496833D01*
X149901039Y-73498304D01*
X149891237Y-73500342D01*
X149880973Y-73502092D01*
X149871242Y-73503433D01*
X149861343Y-73504592D01*
X149851492Y-73505322D01*
X149841689Y-73505622D01*
X149839734Y-73505631D01*
X149827919Y-73505429D01*
X149816531Y-73504822D01*
X149805571Y-73503811D01*
X149795038Y-73502395D01*
X149784932Y-73500574D01*
X149775254Y-73498350D01*
X149763758Y-73495000D01*
X149757180Y-73492686D01*
X149746793Y-73488389D01*
X149737002Y-73483436D01*
X149727807Y-73477828D01*
X149719208Y-73471563D01*
X149711206Y-73464642D01*
X149703800Y-73457066D01*
X149701004Y-73453852D01*
X149694427Y-73445345D01*
X149688434Y-73436158D01*
X149683026Y-73426292D01*
X149678202Y-73415746D01*
X149673962Y-73404520D01*
X149670991Y-73395050D01*
X149669009Y-73387662D01*
X149666662Y-73377426D01*
X149664627Y-73366748D01*
X149662906Y-73355628D01*
X149661498Y-73344064D01*
X149660403Y-73332058D01*
X149659620Y-73319610D01*
X149659151Y-73306718D01*
X149659004Y-73296759D01*
X149658995Y-73293384D01*
X149658995Y-72927264D01*
X149572533Y-72927264D01*
X149563129Y-72924516D01*
X149556310Y-72916949D01*
X149555924Y-72916273D01*
X149552448Y-72907101D01*
X149550677Y-72897192D01*
X149549913Y-72886567D01*
X149549818Y-72880614D01*
X149550100Y-72870781D01*
X149551222Y-72860561D01*
X149551528Y-72858876D01*
X149553902Y-72849350D01*
X149555924Y-72844221D01*
X149562198Y-72836405D01*
X149563007Y-72835917D01*
X149572686Y-72833477D01*
X149573021Y-72833475D01*
X149658995Y-72833475D01*
X149658995Y-72683998D01*
X149661437Y-72674961D01*
X149668703Y-72668202D01*
X149670230Y-72667390D01*
X149679611Y-72664308D01*
X149687815Y-72662993D01*
X149697673Y-72662044D01*
X149707462Y-72661619D01*
X149715415Y-72661528D01*
X149725504Y-72661671D01*
X149736037Y-72662220D01*
X149743503Y-72662993D01*
X149753272Y-72664703D01*
X149760600Y-72667390D01*
X149768500Y-72673355D01*
X149769637Y-72674961D01*
X149772323Y-72683998D01*
X149772323Y-72833475D01*
X149931081Y-72833475D01*
X149940607Y-72835917D01*
X149947319Y-72843502D01*
X149947690Y-72844221D01*
X149951247Y-72853562D01*
X149952330Y-72858876D01*
X149953429Y-72868707D01*
X149953790Y-72879012D01*
X149953796Y-72880614D01*
X149953492Y-72890752D01*
X149952400Y-72900735D01*
X149949920Y-72910810D01*
X149947445Y-72916273D01*
X149940809Y-72924162D01*
X149931081Y-72927264D01*
X149772323Y-72927264D01*
X149772323Y-73277020D01*
X149772489Y-73288879D01*
X149772984Y-73300184D01*
X149773811Y-73310935D01*
X149774968Y-73321132D01*
X149777025Y-73333867D01*
X149779670Y-73345618D01*
X149782902Y-73356383D01*
X149786722Y-73366165D01*
X149791130Y-73374961D01*
X149797805Y-73384460D01*
X149805923Y-73392349D01*
X149815484Y-73398628D01*
X149826488Y-73403297D01*
X149836330Y-73405873D01*
X149847096Y-73407419D01*
X149858785Y-73407934D01*
X149869267Y-73407588D01*
X149879714Y-73406420D01*
X149886873Y-73405003D01*
X149896510Y-73402383D01*
X149906428Y-73399259D01*
X149908855Y-73398408D01*
X149918408Y-73394844D01*
X149925464Y-73391814D01*
X149935035Y-73388837D01*
X149937920Y-73388639D01*
X149944270Y-73390593D01*
X149949155Y-73397187D01*
X149951677Y-73406674D01*
X149952330Y-73410132D01*
X149953474Y-73420127D01*
X149953794Y-73430118D01*
X149953796Y-73430893D01*
G37*
X161393333Y-93854819D02*
X161393333Y-92854819D01*
X161393333Y-92854819D02*
X161774285Y-92854819D01*
X161774285Y-92854819D02*
X161869523Y-92902438D01*
X161869523Y-92902438D02*
X161917142Y-92950057D01*
X161917142Y-92950057D02*
X161964761Y-93045295D01*
X161964761Y-93045295D02*
X161964761Y-93188152D01*
X161964761Y-93188152D02*
X161917142Y-93283390D01*
X161917142Y-93283390D02*
X161869523Y-93331009D01*
X161869523Y-93331009D02*
X161774285Y-93378628D01*
X161774285Y-93378628D02*
X161393333Y-93378628D01*
X162583809Y-92854819D02*
X162774285Y-92854819D01*
X162774285Y-92854819D02*
X162869523Y-92902438D01*
X162869523Y-92902438D02*
X162964761Y-92997676D01*
X162964761Y-92997676D02*
X163012380Y-93188152D01*
X163012380Y-93188152D02*
X163012380Y-93521485D01*
X163012380Y-93521485D02*
X162964761Y-93711961D01*
X162964761Y-93711961D02*
X162869523Y-93807200D01*
X162869523Y-93807200D02*
X162774285Y-93854819D01*
X162774285Y-93854819D02*
X162583809Y-93854819D01*
X162583809Y-93854819D02*
X162488571Y-93807200D01*
X162488571Y-93807200D02*
X162393333Y-93711961D01*
X162393333Y-93711961D02*
X162345714Y-93521485D01*
X162345714Y-93521485D02*
X162345714Y-93188152D01*
X162345714Y-93188152D02*
X162393333Y-92997676D01*
X162393333Y-92997676D02*
X162488571Y-92902438D01*
X162488571Y-92902438D02*
X162583809Y-92854819D01*
X163298095Y-92854819D02*
X163869523Y-92854819D01*
X163583809Y-93854819D02*
X163583809Y-92854819D01*
X154773333Y-75604819D02*
X154440000Y-75128628D01*
X154201905Y-75604819D02*
X154201905Y-74604819D01*
X154201905Y-74604819D02*
X154582857Y-74604819D01*
X154582857Y-74604819D02*
X154678095Y-74652438D01*
X154678095Y-74652438D02*
X154725714Y-74700057D01*
X154725714Y-74700057D02*
X154773333Y-74795295D01*
X154773333Y-74795295D02*
X154773333Y-74938152D01*
X154773333Y-74938152D02*
X154725714Y-75033390D01*
X154725714Y-75033390D02*
X154678095Y-75081009D01*
X154678095Y-75081009D02*
X154582857Y-75128628D01*
X154582857Y-75128628D02*
X154201905Y-75128628D01*
X155106667Y-74604819D02*
X155725714Y-74604819D01*
X155725714Y-74604819D02*
X155392381Y-74985771D01*
X155392381Y-74985771D02*
X155535238Y-74985771D01*
X155535238Y-74985771D02*
X155630476Y-75033390D01*
X155630476Y-75033390D02*
X155678095Y-75081009D01*
X155678095Y-75081009D02*
X155725714Y-75176247D01*
X155725714Y-75176247D02*
X155725714Y-75414342D01*
X155725714Y-75414342D02*
X155678095Y-75509580D01*
X155678095Y-75509580D02*
X155630476Y-75557200D01*
X155630476Y-75557200D02*
X155535238Y-75604819D01*
X155535238Y-75604819D02*
X155249524Y-75604819D01*
X155249524Y-75604819D02*
X155154286Y-75557200D01*
X155154286Y-75557200D02*
X155106667Y-75509580D01*
X154773333Y-83224819D02*
X154440000Y-82748628D01*
X154201905Y-83224819D02*
X154201905Y-82224819D01*
X154201905Y-82224819D02*
X154582857Y-82224819D01*
X154582857Y-82224819D02*
X154678095Y-82272438D01*
X154678095Y-82272438D02*
X154725714Y-82320057D01*
X154725714Y-82320057D02*
X154773333Y-82415295D01*
X154773333Y-82415295D02*
X154773333Y-82558152D01*
X154773333Y-82558152D02*
X154725714Y-82653390D01*
X154725714Y-82653390D02*
X154678095Y-82701009D01*
X154678095Y-82701009D02*
X154582857Y-82748628D01*
X154582857Y-82748628D02*
X154201905Y-82748628D01*
X155725714Y-83224819D02*
X155154286Y-83224819D01*
X155440000Y-83224819D02*
X155440000Y-82224819D01*
X155440000Y-82224819D02*
X155344762Y-82367676D01*
X155344762Y-82367676D02*
X155249524Y-82462914D01*
X155249524Y-82462914D02*
X155154286Y-82510533D01*
X156741905Y-77704819D02*
X156741905Y-76704819D01*
X156741905Y-76704819D02*
X156980000Y-76704819D01*
X156980000Y-76704819D02*
X157122857Y-76752438D01*
X157122857Y-76752438D02*
X157218095Y-76847676D01*
X157218095Y-76847676D02*
X157265714Y-76942914D01*
X157265714Y-76942914D02*
X157313333Y-77133390D01*
X157313333Y-77133390D02*
X157313333Y-77276247D01*
X157313333Y-77276247D02*
X157265714Y-77466723D01*
X157265714Y-77466723D02*
X157218095Y-77561961D01*
X157218095Y-77561961D02*
X157122857Y-77657200D01*
X157122857Y-77657200D02*
X156980000Y-77704819D01*
X156980000Y-77704819D02*
X156741905Y-77704819D01*
X157646667Y-76704819D02*
X158265714Y-76704819D01*
X158265714Y-76704819D02*
X157932381Y-77085771D01*
X157932381Y-77085771D02*
X158075238Y-77085771D01*
X158075238Y-77085771D02*
X158170476Y-77133390D01*
X158170476Y-77133390D02*
X158218095Y-77181009D01*
X158218095Y-77181009D02*
X158265714Y-77276247D01*
X158265714Y-77276247D02*
X158265714Y-77514342D01*
X158265714Y-77514342D02*
X158218095Y-77609580D01*
X158218095Y-77609580D02*
X158170476Y-77657200D01*
X158170476Y-77657200D02*
X158075238Y-77704819D01*
X158075238Y-77704819D02*
X157789524Y-77704819D01*
X157789524Y-77704819D02*
X157694286Y-77657200D01*
X157694286Y-77657200D02*
X157646667Y-77609580D01*
X150391905Y-92314819D02*
X150391905Y-91314819D01*
X150391905Y-91314819D02*
X150630000Y-91314819D01*
X150630000Y-91314819D02*
X150772857Y-91362438D01*
X150772857Y-91362438D02*
X150868095Y-91457676D01*
X150868095Y-91457676D02*
X150915714Y-91552914D01*
X150915714Y-91552914D02*
X150963333Y-91743390D01*
X150963333Y-91743390D02*
X150963333Y-91886247D01*
X150963333Y-91886247D02*
X150915714Y-92076723D01*
X150915714Y-92076723D02*
X150868095Y-92171961D01*
X150868095Y-92171961D02*
X150772857Y-92267200D01*
X150772857Y-92267200D02*
X150630000Y-92314819D01*
X150630000Y-92314819D02*
X150391905Y-92314819D01*
X151344286Y-91410057D02*
X151391905Y-91362438D01*
X151391905Y-91362438D02*
X151487143Y-91314819D01*
X151487143Y-91314819D02*
X151725238Y-91314819D01*
X151725238Y-91314819D02*
X151820476Y-91362438D01*
X151820476Y-91362438D02*
X151868095Y-91410057D01*
X151868095Y-91410057D02*
X151915714Y-91505295D01*
X151915714Y-91505295D02*
X151915714Y-91600533D01*
X151915714Y-91600533D02*
X151868095Y-91743390D01*
X151868095Y-91743390D02*
X151296667Y-92314819D01*
X151296667Y-92314819D02*
X151915714Y-92314819D01*
X145311905Y-81314819D02*
X145311905Y-80314819D01*
X145311905Y-80314819D02*
X145550000Y-80314819D01*
X145550000Y-80314819D02*
X145692857Y-80362438D01*
X145692857Y-80362438D02*
X145788095Y-80457676D01*
X145788095Y-80457676D02*
X145835714Y-80552914D01*
X145835714Y-80552914D02*
X145883333Y-80743390D01*
X145883333Y-80743390D02*
X145883333Y-80886247D01*
X145883333Y-80886247D02*
X145835714Y-81076723D01*
X145835714Y-81076723D02*
X145788095Y-81171961D01*
X145788095Y-81171961D02*
X145692857Y-81267200D01*
X145692857Y-81267200D02*
X145550000Y-81314819D01*
X145550000Y-81314819D02*
X145311905Y-81314819D01*
X146835714Y-81314819D02*
X146264286Y-81314819D01*
X146550000Y-81314819D02*
X146550000Y-80314819D01*
X146550000Y-80314819D02*
X146454762Y-80457676D01*
X146454762Y-80457676D02*
X146359524Y-80552914D01*
X146359524Y-80552914D02*
X146264286Y-80600533D01*
D11*
%TO.C,POT*%
X159190000Y-87660000D02*
X159190000Y-85530000D01*
X159190000Y-92271000D02*
X159190000Y-90140000D01*
X165394000Y-85530000D02*
X159190000Y-85530000D01*
X165930000Y-89809000D02*
X165930000Y-87990000D01*
X165394000Y-92271000D02*
X159190000Y-92271000D01*
%TO.C,J1*%
X163770000Y-82610000D02*
X166430000Y-82610000D01*
X163770000Y-77470000D02*
X163770000Y-82610000D01*
X163770000Y-76200000D02*
X163770000Y-74870000D01*
X166430000Y-77470000D02*
X166430000Y-82610000D01*
X163770000Y-74870000D02*
X165100000Y-74870000D01*
X163770000Y-77470000D02*
X166430000Y-77470000D01*
D12*
%TO.C,D3*%
X158390000Y-76200000D02*
G75*
G03*
X158390000Y-76200000I-50000J0D01*
G01*
D11*
%TO.C,D2*%
X152690000Y-87820000D02*
X152690000Y-87664000D01*
X152690000Y-90136000D02*
X152690000Y-89980000D01*
X150088871Y-89979836D02*
G75*
G03*
X152170960Y-89979999I1041129J1079836D01*
G01*
X149457666Y-89978608D02*
G75*
G03*
X152689999Y-90135515I1672334J1078608D01*
G01*
X152170960Y-87820001D02*
G75*
G03*
X150088871Y-87820164I-1040960J-1079999D01*
G01*
X152689999Y-87664485D02*
G75*
G03*
X149457666Y-87821392I-1559999J-1235515D01*
G01*
%TO.C,D1*%
X144490000Y-84900000D02*
X144490000Y-85056000D01*
X144490000Y-82584000D02*
X144490000Y-82740000D01*
X147091129Y-82740164D02*
G75*
G03*
X145009040Y-82740001I-1041129J-1079836D01*
G01*
X147722334Y-82741392D02*
G75*
G03*
X144490001Y-82584485I-1672334J-1078608D01*
G01*
X145009040Y-84899999D02*
G75*
G03*
X147091129Y-84899836I1040960J1079999D01*
G01*
X144490001Y-85055515D02*
G75*
G03*
X147722334Y-84898608I1559999J1235515D01*
G01*
%TD*%
M02*
