%TF.GenerationSoftware,KiCad,Pcbnew,7.0.7*%
%TF.CreationDate,2023-08-26T23:34:29+05:30*%
%TF.ProjectId,ir_project,69725f70-726f-46a6-9563-742e6b696361,rev?*%
%TF.SameCoordinates,Original*%
%TF.FileFunction,Copper,L2,Bot*%
%TF.FilePolarity,Positive*%
%FSLAX46Y46*%
G04 Gerber Fmt 4.6, Leading zero omitted, Abs format (unit mm)*
G04 Created by KiCad (PCBNEW 7.0.7) date 2023-08-26 23:34:29*
%MOMM*%
%LPD*%
G01*
G04 APERTURE LIST*
G04 Aperture macros list*
%AMRoundRect*
0 Rectangle with rounded corners*
0 $1 Rounding radius*
0 $2 $3 $4 $5 $6 $7 $8 $9 X,Y pos of 4 corners*
0 Add a 4 corners polygon primitive as box body*
4,1,4,$2,$3,$4,$5,$6,$7,$8,$9,$2,$3,0*
0 Add four circle primitives for the rounded corners*
1,1,$1+$1,$2,$3*
1,1,$1+$1,$4,$5*
1,1,$1+$1,$6,$7*
1,1,$1+$1,$8,$9*
0 Add four rect primitives between the rounded corners*
20,1,$1+$1,$2,$3,$4,$5,0*
20,1,$1+$1,$4,$5,$6,$7,0*
20,1,$1+$1,$6,$7,$8,$9,0*
20,1,$1+$1,$8,$9,$2,$3,0*%
G04 Aperture macros list end*
%ADD10C,0.125000*%
%TA.AperFunction,NonConductor*%
%ADD11C,0.125000*%
%TD*%
%TA.AperFunction,SMDPad,CuDef*%
%ADD12R,2.410000X3.100000*%
%TD*%
%TA.AperFunction,ComponentPad*%
%ADD13C,0.500000*%
%TD*%
%TA.AperFunction,SMDPad,CuDef*%
%ADD14RoundRect,0.150000X0.650000X0.150000X-0.650000X0.150000X-0.650000X-0.150000X0.650000X-0.150000X0*%
%TD*%
%TA.AperFunction,ComponentPad*%
%ADD15R,1.700000X1.700000*%
%TD*%
%TA.AperFunction,ComponentPad*%
%ADD16O,1.700000X1.700000*%
%TD*%
%TA.AperFunction,ComponentPad*%
%ADD17R,1.800000X1.800000*%
%TD*%
%TA.AperFunction,ComponentPad*%
%ADD18C,1.800000*%
%TD*%
%TA.AperFunction,ViaPad*%
%ADD19C,0.800000*%
%TD*%
%TA.AperFunction,Conductor*%
%ADD20C,0.250000*%
%TD*%
G04 APERTURE END LIST*
D10*
D11*
X167072309Y-81150144D02*
X167572309Y-80983478D01*
X167572309Y-80983478D02*
X167072309Y-80816811D01*
X167548500Y-80435859D02*
X167572309Y-80483478D01*
X167572309Y-80483478D02*
X167572309Y-80578716D01*
X167572309Y-80578716D02*
X167548500Y-80626335D01*
X167548500Y-80626335D02*
X167524690Y-80650145D01*
X167524690Y-80650145D02*
X167477071Y-80673954D01*
X167477071Y-80673954D02*
X167334214Y-80673954D01*
X167334214Y-80673954D02*
X167286595Y-80650145D01*
X167286595Y-80650145D02*
X167262785Y-80626335D01*
X167262785Y-80626335D02*
X167238976Y-80578716D01*
X167238976Y-80578716D02*
X167238976Y-80483478D01*
X167238976Y-80483478D02*
X167262785Y-80435859D01*
X167548500Y-80007288D02*
X167572309Y-80054907D01*
X167572309Y-80054907D02*
X167572309Y-80150145D01*
X167572309Y-80150145D02*
X167548500Y-80197764D01*
X167548500Y-80197764D02*
X167524690Y-80221574D01*
X167524690Y-80221574D02*
X167477071Y-80245383D01*
X167477071Y-80245383D02*
X167334214Y-80245383D01*
X167334214Y-80245383D02*
X167286595Y-80221574D01*
X167286595Y-80221574D02*
X167262785Y-80197764D01*
X167262785Y-80197764D02*
X167238976Y-80150145D01*
X167238976Y-80150145D02*
X167238976Y-80054907D01*
X167238976Y-80054907D02*
X167262785Y-80007288D01*
D10*
D11*
X167096119Y-78276811D02*
X167072309Y-78324430D01*
X167072309Y-78324430D02*
X167072309Y-78395859D01*
X167072309Y-78395859D02*
X167096119Y-78467287D01*
X167096119Y-78467287D02*
X167143738Y-78514906D01*
X167143738Y-78514906D02*
X167191357Y-78538716D01*
X167191357Y-78538716D02*
X167286595Y-78562525D01*
X167286595Y-78562525D02*
X167358023Y-78562525D01*
X167358023Y-78562525D02*
X167453261Y-78538716D01*
X167453261Y-78538716D02*
X167500880Y-78514906D01*
X167500880Y-78514906D02*
X167548500Y-78467287D01*
X167548500Y-78467287D02*
X167572309Y-78395859D01*
X167572309Y-78395859D02*
X167572309Y-78348240D01*
X167572309Y-78348240D02*
X167548500Y-78276811D01*
X167548500Y-78276811D02*
X167524690Y-78253002D01*
X167524690Y-78253002D02*
X167358023Y-78253002D01*
X167358023Y-78253002D02*
X167358023Y-78348240D01*
X167572309Y-78038716D02*
X167072309Y-78038716D01*
X167072309Y-78038716D02*
X167572309Y-77753002D01*
X167572309Y-77753002D02*
X167072309Y-77753002D01*
X167572309Y-77514906D02*
X167072309Y-77514906D01*
X167072309Y-77514906D02*
X167072309Y-77395858D01*
X167072309Y-77395858D02*
X167096119Y-77324430D01*
X167096119Y-77324430D02*
X167143738Y-77276811D01*
X167143738Y-77276811D02*
X167191357Y-77253001D01*
X167191357Y-77253001D02*
X167286595Y-77229192D01*
X167286595Y-77229192D02*
X167358023Y-77229192D01*
X167358023Y-77229192D02*
X167453261Y-77253001D01*
X167453261Y-77253001D02*
X167500880Y-77276811D01*
X167500880Y-77276811D02*
X167548500Y-77324430D01*
X167548500Y-77324430D02*
X167572309Y-77395858D01*
X167572309Y-77395858D02*
X167572309Y-77514906D01*
D10*
D11*
X167072309Y-75903478D02*
X167072309Y-75808240D01*
X167072309Y-75808240D02*
X167096119Y-75760621D01*
X167096119Y-75760621D02*
X167143738Y-75713002D01*
X167143738Y-75713002D02*
X167238976Y-75689192D01*
X167238976Y-75689192D02*
X167405642Y-75689192D01*
X167405642Y-75689192D02*
X167500880Y-75713002D01*
X167500880Y-75713002D02*
X167548500Y-75760621D01*
X167548500Y-75760621D02*
X167572309Y-75808240D01*
X167572309Y-75808240D02*
X167572309Y-75903478D01*
X167572309Y-75903478D02*
X167548500Y-75951097D01*
X167548500Y-75951097D02*
X167500880Y-75998716D01*
X167500880Y-75998716D02*
X167405642Y-76022525D01*
X167405642Y-76022525D02*
X167238976Y-76022525D01*
X167238976Y-76022525D02*
X167143738Y-75998716D01*
X167143738Y-75998716D02*
X167096119Y-75951097D01*
X167096119Y-75951097D02*
X167072309Y-75903478D01*
X167048500Y-75117763D02*
X167691357Y-75546334D01*
X167572309Y-74951096D02*
X167072309Y-74951096D01*
X167072309Y-74951096D02*
X167072309Y-74760620D01*
X167072309Y-74760620D02*
X167096119Y-74713001D01*
X167096119Y-74713001D02*
X167119928Y-74689191D01*
X167119928Y-74689191D02*
X167167547Y-74665382D01*
X167167547Y-74665382D02*
X167238976Y-74665382D01*
X167238976Y-74665382D02*
X167286595Y-74689191D01*
X167286595Y-74689191D02*
X167310404Y-74713001D01*
X167310404Y-74713001D02*
X167334214Y-74760620D01*
X167334214Y-74760620D02*
X167334214Y-74951096D01*
D12*
%TO.P,U1,9*%
%TO.N,N/C*%
X153985000Y-80040000D03*
D13*
X154940000Y-81340000D03*
X154940000Y-78740000D03*
X154940000Y-80040000D03*
X153030000Y-81340000D03*
X153030000Y-80040000D03*
X153030000Y-78740000D03*
D14*
%TO.P,U1,8*%
X151335000Y-78135000D03*
%TO.P,U1,7*%
X151335000Y-79405000D03*
%TO.P,U1,6*%
X151335000Y-80675000D03*
%TO.P,U1,5*%
X151335000Y-81945000D03*
%TO.P,U1,4*%
X156635000Y-81945000D03*
%TO.P,U1,3,+*%
%TO.N,Net-(D1-A)*%
X156635000Y-80675000D03*
%TO.P,U1,2,-*%
%TO.N,Net-(U1A--)*%
X156635000Y-79405000D03*
%TO.P,U1,1*%
%TO.N,Net-(R3-Pad1)*%
X156635000Y-78135000D03*
%TD*%
D15*
%TO.P,J1,1,Pin_1*%
%TO.N,/O{slash}P*%
X165100000Y-76200000D03*
D16*
%TO.P,J1,2,Pin_2*%
%TO.N,GND*%
X165100000Y-78740000D03*
%TO.P,J1,3,Pin_3*%
%TO.N,+5V*%
X165100000Y-81280000D03*
%TD*%
D17*
%TO.P,D2,1,K*%
%TO.N,Net-(D2-K)*%
X152400000Y-88900000D03*
D18*
%TO.P,D2,2,A*%
%TO.N,+5V*%
X149860000Y-88900000D03*
%TD*%
D17*
%TO.P,D1,1,K*%
%TO.N,+5V*%
X144780000Y-83820000D03*
D18*
%TO.P,D1,2,A*%
%TO.N,Net-(D1-A)*%
X147320000Y-83820000D03*
%TD*%
D19*
%TO.N,GND*%
X160020000Y-86360000D03*
X156480497Y-83820000D03*
%TO.N,Net-(D1-A)*%
X157035500Y-81045500D03*
%TO.N,Net-(U1A--)*%
X157480000Y-83820000D03*
%TO.N,Net-(D1-A)*%
X155789241Y-81071516D03*
%TO.N,Net-(R3-Pad1)*%
X157550403Y-78554063D03*
%TD*%
D20*
%TO.N,Net-(R3-Pad1)*%
X154940000Y-77423845D02*
X154940000Y-76200000D01*
X155651155Y-78135000D02*
X154940000Y-77423845D01*
X156635000Y-78135000D02*
X155651155Y-78135000D01*
%TO.N,GND*%
X156480497Y-85487810D02*
X157352687Y-86360000D01*
X156480497Y-83820000D02*
X156480497Y-85487810D01*
X157352687Y-86360000D02*
X160020000Y-86360000D01*
%TO.N,Net-(D1-A)*%
X156665000Y-80675000D02*
X157035500Y-81045500D01*
X156635000Y-80675000D02*
X156665000Y-80675000D01*
%TO.N,Net-(U1A--)*%
X157760000Y-80328249D02*
X157760000Y-83540000D01*
X156836751Y-79405000D02*
X157760000Y-80328249D01*
X156635000Y-79405000D02*
X156836751Y-79405000D01*
%TO.N,Net-(D1-A)*%
X155580757Y-81280000D02*
X155789241Y-81071516D01*
X155515000Y-81280000D02*
X155580757Y-81280000D01*
X155828249Y-81280000D02*
X155515000Y-81280000D01*
X156433249Y-80675000D02*
X155828249Y-81280000D01*
X156635000Y-80675000D02*
X156433249Y-80675000D01*
%TO.N,Net-(R3-Pad1)*%
X157550403Y-78669597D02*
X157550403Y-78554063D01*
X157480000Y-78740000D02*
X157550403Y-78669597D01*
X156875000Y-78135000D02*
X157480000Y-78740000D01*
X156635000Y-78135000D02*
X156875000Y-78135000D01*
%TD*%
M02*
