%TF.GenerationSoftware,KiCad,Pcbnew,7.0.7*%
%TF.CreationDate,2023-08-26T23:35:01+05:30*%
%TF.ProjectId,ir_project,69725f70-726f-46a6-9563-742e6b696361,rev?*%
%TF.SameCoordinates,Original*%
%TF.FileFunction,Drillmap*%
%TF.FilePolarity,Positive*%
%FSLAX45Y45*%
G04 Gerber Fmt 4.5, Leading zero omitted, Abs format (unit mm)*
G04 Created by KiCad (PCBNEW 7.0.7) date 2023-08-26 23:35:01*
%MOMM*%
%LPD*%
G01*
G04 APERTURE LIST*
%ADD10C,0.100000*%
%ADD11C,0.200000*%
%ADD12C,0.020000*%
%ADD13C,0.040000*%
%ADD14C,0.090000*%
G04 APERTURE END LIST*
D10*
X14224000Y-7112000D02*
X17272000Y-7112000D01*
X17272000Y-9398000D01*
X14224000Y-9398000D01*
X14224000Y-7112000D01*
D11*
D12*
X15293000Y-7864000D02*
X15313000Y-7884000D01*
X15313000Y-7864000D02*
X15293000Y-7884000D01*
X15293000Y-7994000D02*
X15313000Y-8014000D01*
X15313000Y-7994000D02*
X15293000Y-8014000D01*
X15293000Y-8124000D02*
X15313000Y-8144000D01*
X15313000Y-8124000D02*
X15293000Y-8144000D01*
X15484000Y-7864000D02*
X15504000Y-7884000D01*
X15504000Y-7864000D02*
X15484000Y-7884000D01*
X15484000Y-7994000D02*
X15504000Y-8014000D01*
X15504000Y-7994000D02*
X15484000Y-8014000D01*
X15484000Y-8124000D02*
X15504000Y-8144000D01*
X15504000Y-8124000D02*
X15484000Y-8144000D01*
D13*
X15598924Y-8107152D02*
G75*
G03*
X15598924Y-8107152I-20000J0D01*
G01*
X15668050Y-8382000D02*
G75*
G03*
X15668050Y-8382000I-20000J0D01*
G01*
X15723550Y-8104550D02*
G75*
G03*
X15723550Y-8104550I-20000J0D01*
G01*
X15768000Y-8382000D02*
G75*
G03*
X15768000Y-8382000I-20000J0D01*
G01*
X15775040Y-7855406D02*
G75*
G03*
X15775040Y-7855406I-20000J0D01*
G01*
X16022000Y-8636000D02*
G75*
G03*
X16022000Y-8636000I-20000J0D01*
G01*
D14*
X14478000Y-8337000D02*
X14478000Y-8427000D01*
X14433000Y-8382000D02*
X14523000Y-8382000D01*
X14732000Y-8337000D02*
X14732000Y-8427000D01*
X14687000Y-8382000D02*
X14777000Y-8382000D01*
X14986000Y-8845000D02*
X14986000Y-8935000D01*
X14941000Y-8890000D02*
X15031000Y-8890000D01*
X15240000Y-8845000D02*
X15240000Y-8935000D01*
X15195000Y-8890000D02*
X15285000Y-8890000D01*
D10*
X16545356Y-7655356D02*
X16545356Y-7584644D01*
X16474644Y-7584644D01*
X16474644Y-7655356D01*
X16545356Y-7655356D01*
X16545356Y-7909356D02*
X16545356Y-7838644D01*
X16474644Y-7838644D01*
X16474644Y-7909356D01*
X16545356Y-7909356D01*
X16545356Y-8163356D02*
X16545356Y-8092644D01*
X16474644Y-8092644D01*
X16474644Y-8163356D01*
X16545356Y-8163356D01*
D11*
X14479777Y-9714484D02*
X14479777Y-9514484D01*
X14479777Y-9514484D02*
X14527396Y-9514484D01*
X14527396Y-9514484D02*
X14555967Y-9524008D01*
X14555967Y-9524008D02*
X14575015Y-9543055D01*
X14575015Y-9543055D02*
X14584539Y-9562103D01*
X14584539Y-9562103D02*
X14594062Y-9600198D01*
X14594062Y-9600198D02*
X14594062Y-9628770D01*
X14594062Y-9628770D02*
X14584539Y-9666865D01*
X14584539Y-9666865D02*
X14575015Y-9685912D01*
X14575015Y-9685912D02*
X14555967Y-9704960D01*
X14555967Y-9704960D02*
X14527396Y-9714484D01*
X14527396Y-9714484D02*
X14479777Y-9714484D01*
X14679777Y-9714484D02*
X14679777Y-9581150D01*
X14679777Y-9619246D02*
X14689301Y-9600198D01*
X14689301Y-9600198D02*
X14698824Y-9590674D01*
X14698824Y-9590674D02*
X14717872Y-9581150D01*
X14717872Y-9581150D02*
X14736920Y-9581150D01*
X14803586Y-9714484D02*
X14803586Y-9581150D01*
X14803586Y-9514484D02*
X14794062Y-9524008D01*
X14794062Y-9524008D02*
X14803586Y-9533531D01*
X14803586Y-9533531D02*
X14813110Y-9524008D01*
X14813110Y-9524008D02*
X14803586Y-9514484D01*
X14803586Y-9514484D02*
X14803586Y-9533531D01*
X14927396Y-9714484D02*
X14908348Y-9704960D01*
X14908348Y-9704960D02*
X14898824Y-9685912D01*
X14898824Y-9685912D02*
X14898824Y-9514484D01*
X15032158Y-9714484D02*
X15013110Y-9704960D01*
X15013110Y-9704960D02*
X15003586Y-9685912D01*
X15003586Y-9685912D02*
X15003586Y-9514484D01*
X15260729Y-9714484D02*
X15260729Y-9514484D01*
X15260729Y-9514484D02*
X15327396Y-9657341D01*
X15327396Y-9657341D02*
X15394062Y-9514484D01*
X15394062Y-9514484D02*
X15394062Y-9714484D01*
X15575015Y-9714484D02*
X15575015Y-9609722D01*
X15575015Y-9609722D02*
X15565491Y-9590674D01*
X15565491Y-9590674D02*
X15546443Y-9581150D01*
X15546443Y-9581150D02*
X15508348Y-9581150D01*
X15508348Y-9581150D02*
X15489301Y-9590674D01*
X15575015Y-9704960D02*
X15555967Y-9714484D01*
X15555967Y-9714484D02*
X15508348Y-9714484D01*
X15508348Y-9714484D02*
X15489301Y-9704960D01*
X15489301Y-9704960D02*
X15479777Y-9685912D01*
X15479777Y-9685912D02*
X15479777Y-9666865D01*
X15479777Y-9666865D02*
X15489301Y-9647817D01*
X15489301Y-9647817D02*
X15508348Y-9638293D01*
X15508348Y-9638293D02*
X15555967Y-9638293D01*
X15555967Y-9638293D02*
X15575015Y-9628770D01*
X15670253Y-9581150D02*
X15670253Y-9781150D01*
X15670253Y-9590674D02*
X15689301Y-9581150D01*
X15689301Y-9581150D02*
X15727396Y-9581150D01*
X15727396Y-9581150D02*
X15746443Y-9590674D01*
X15746443Y-9590674D02*
X15755967Y-9600198D01*
X15755967Y-9600198D02*
X15765491Y-9619246D01*
X15765491Y-9619246D02*
X15765491Y-9676389D01*
X15765491Y-9676389D02*
X15755967Y-9695436D01*
X15755967Y-9695436D02*
X15746443Y-9704960D01*
X15746443Y-9704960D02*
X15727396Y-9714484D01*
X15727396Y-9714484D02*
X15689301Y-9714484D01*
X15689301Y-9714484D02*
X15670253Y-9704960D01*
X15851205Y-9695436D02*
X15860729Y-9704960D01*
X15860729Y-9704960D02*
X15851205Y-9714484D01*
X15851205Y-9714484D02*
X15841682Y-9704960D01*
X15841682Y-9704960D02*
X15851205Y-9695436D01*
X15851205Y-9695436D02*
X15851205Y-9714484D01*
X15851205Y-9590674D02*
X15860729Y-9600198D01*
X15860729Y-9600198D02*
X15851205Y-9609722D01*
X15851205Y-9609722D02*
X15841682Y-9600198D01*
X15841682Y-9600198D02*
X15851205Y-9590674D01*
X15851205Y-9590674D02*
X15851205Y-9609722D01*
D12*
X14199000Y-10033000D02*
X14219000Y-10053000D01*
X14219000Y-10033000D02*
X14199000Y-10053000D01*
D11*
X14517872Y-9934484D02*
X14536920Y-9934484D01*
X14536920Y-9934484D02*
X14555967Y-9944008D01*
X14555967Y-9944008D02*
X14565491Y-9953531D01*
X14565491Y-9953531D02*
X14575015Y-9972579D01*
X14575015Y-9972579D02*
X14584539Y-10010674D01*
X14584539Y-10010674D02*
X14584539Y-10058293D01*
X14584539Y-10058293D02*
X14575015Y-10096389D01*
X14575015Y-10096389D02*
X14565491Y-10115436D01*
X14565491Y-10115436D02*
X14555967Y-10124960D01*
X14555967Y-10124960D02*
X14536920Y-10134484D01*
X14536920Y-10134484D02*
X14517872Y-10134484D01*
X14517872Y-10134484D02*
X14498824Y-10124960D01*
X14498824Y-10124960D02*
X14489301Y-10115436D01*
X14489301Y-10115436D02*
X14479777Y-10096389D01*
X14479777Y-10096389D02*
X14470253Y-10058293D01*
X14470253Y-10058293D02*
X14470253Y-10010674D01*
X14470253Y-10010674D02*
X14479777Y-9972579D01*
X14479777Y-9972579D02*
X14489301Y-9953531D01*
X14489301Y-9953531D02*
X14498824Y-9944008D01*
X14498824Y-9944008D02*
X14517872Y-9934484D01*
X14670253Y-10115436D02*
X14679777Y-10124960D01*
X14679777Y-10124960D02*
X14670253Y-10134484D01*
X14670253Y-10134484D02*
X14660729Y-10124960D01*
X14660729Y-10124960D02*
X14670253Y-10115436D01*
X14670253Y-10115436D02*
X14670253Y-10134484D01*
X14755967Y-9953531D02*
X14765491Y-9944008D01*
X14765491Y-9944008D02*
X14784539Y-9934484D01*
X14784539Y-9934484D02*
X14832158Y-9934484D01*
X14832158Y-9934484D02*
X14851205Y-9944008D01*
X14851205Y-9944008D02*
X14860729Y-9953531D01*
X14860729Y-9953531D02*
X14870253Y-9972579D01*
X14870253Y-9972579D02*
X14870253Y-9991627D01*
X14870253Y-9991627D02*
X14860729Y-10020198D01*
X14860729Y-10020198D02*
X14746443Y-10134484D01*
X14746443Y-10134484D02*
X14870253Y-10134484D01*
X14994062Y-9934484D02*
X15013110Y-9934484D01*
X15013110Y-9934484D02*
X15032158Y-9944008D01*
X15032158Y-9944008D02*
X15041682Y-9953531D01*
X15041682Y-9953531D02*
X15051205Y-9972579D01*
X15051205Y-9972579D02*
X15060729Y-10010674D01*
X15060729Y-10010674D02*
X15060729Y-10058293D01*
X15060729Y-10058293D02*
X15051205Y-10096389D01*
X15051205Y-10096389D02*
X15041682Y-10115436D01*
X15041682Y-10115436D02*
X15032158Y-10124960D01*
X15032158Y-10124960D02*
X15013110Y-10134484D01*
X15013110Y-10134484D02*
X14994062Y-10134484D01*
X14994062Y-10134484D02*
X14975015Y-10124960D01*
X14975015Y-10124960D02*
X14965491Y-10115436D01*
X14965491Y-10115436D02*
X14955967Y-10096389D01*
X14955967Y-10096389D02*
X14946443Y-10058293D01*
X14946443Y-10058293D02*
X14946443Y-10010674D01*
X14946443Y-10010674D02*
X14955967Y-9972579D01*
X14955967Y-9972579D02*
X14965491Y-9953531D01*
X14965491Y-9953531D02*
X14975015Y-9944008D01*
X14975015Y-9944008D02*
X14994062Y-9934484D01*
X15184539Y-9934484D02*
X15203586Y-9934484D01*
X15203586Y-9934484D02*
X15222634Y-9944008D01*
X15222634Y-9944008D02*
X15232158Y-9953531D01*
X15232158Y-9953531D02*
X15241682Y-9972579D01*
X15241682Y-9972579D02*
X15251205Y-10010674D01*
X15251205Y-10010674D02*
X15251205Y-10058293D01*
X15251205Y-10058293D02*
X15241682Y-10096389D01*
X15241682Y-10096389D02*
X15232158Y-10115436D01*
X15232158Y-10115436D02*
X15222634Y-10124960D01*
X15222634Y-10124960D02*
X15203586Y-10134484D01*
X15203586Y-10134484D02*
X15184539Y-10134484D01*
X15184539Y-10134484D02*
X15165491Y-10124960D01*
X15165491Y-10124960D02*
X15155967Y-10115436D01*
X15155967Y-10115436D02*
X15146443Y-10096389D01*
X15146443Y-10096389D02*
X15136920Y-10058293D01*
X15136920Y-10058293D02*
X15136920Y-10010674D01*
X15136920Y-10010674D02*
X15146443Y-9972579D01*
X15146443Y-9972579D02*
X15155967Y-9953531D01*
X15155967Y-9953531D02*
X15165491Y-9944008D01*
X15165491Y-9944008D02*
X15184539Y-9934484D01*
X15336920Y-10134484D02*
X15336920Y-10001150D01*
X15336920Y-10020198D02*
X15346443Y-10010674D01*
X15346443Y-10010674D02*
X15365491Y-10001150D01*
X15365491Y-10001150D02*
X15394063Y-10001150D01*
X15394063Y-10001150D02*
X15413110Y-10010674D01*
X15413110Y-10010674D02*
X15422634Y-10029722D01*
X15422634Y-10029722D02*
X15422634Y-10134484D01*
X15422634Y-10029722D02*
X15432158Y-10010674D01*
X15432158Y-10010674D02*
X15451205Y-10001150D01*
X15451205Y-10001150D02*
X15479777Y-10001150D01*
X15479777Y-10001150D02*
X15498824Y-10010674D01*
X15498824Y-10010674D02*
X15508348Y-10029722D01*
X15508348Y-10029722D02*
X15508348Y-10134484D01*
X15603586Y-10134484D02*
X15603586Y-10001150D01*
X15603586Y-10020198D02*
X15613110Y-10010674D01*
X15613110Y-10010674D02*
X15632158Y-10001150D01*
X15632158Y-10001150D02*
X15660729Y-10001150D01*
X15660729Y-10001150D02*
X15679777Y-10010674D01*
X15679777Y-10010674D02*
X15689301Y-10029722D01*
X15689301Y-10029722D02*
X15689301Y-10134484D01*
X15689301Y-10029722D02*
X15698824Y-10010674D01*
X15698824Y-10010674D02*
X15717872Y-10001150D01*
X15717872Y-10001150D02*
X15746443Y-10001150D01*
X15746443Y-10001150D02*
X15765491Y-10010674D01*
X15765491Y-10010674D02*
X15775015Y-10029722D01*
X15775015Y-10029722D02*
X15775015Y-10134484D01*
X16165491Y-9924960D02*
X15994063Y-10182103D01*
X16422634Y-9934484D02*
X16441682Y-9934484D01*
X16441682Y-9934484D02*
X16460729Y-9944008D01*
X16460729Y-9944008D02*
X16470253Y-9953531D01*
X16470253Y-9953531D02*
X16479777Y-9972579D01*
X16479777Y-9972579D02*
X16489301Y-10010674D01*
X16489301Y-10010674D02*
X16489301Y-10058293D01*
X16489301Y-10058293D02*
X16479777Y-10096389D01*
X16479777Y-10096389D02*
X16470253Y-10115436D01*
X16470253Y-10115436D02*
X16460729Y-10124960D01*
X16460729Y-10124960D02*
X16441682Y-10134484D01*
X16441682Y-10134484D02*
X16422634Y-10134484D01*
X16422634Y-10134484D02*
X16403586Y-10124960D01*
X16403586Y-10124960D02*
X16394063Y-10115436D01*
X16394063Y-10115436D02*
X16384539Y-10096389D01*
X16384539Y-10096389D02*
X16375015Y-10058293D01*
X16375015Y-10058293D02*
X16375015Y-10010674D01*
X16375015Y-10010674D02*
X16384539Y-9972579D01*
X16384539Y-9972579D02*
X16394063Y-9953531D01*
X16394063Y-9953531D02*
X16403586Y-9944008D01*
X16403586Y-9944008D02*
X16422634Y-9934484D01*
X16575015Y-10115436D02*
X16584539Y-10124960D01*
X16584539Y-10124960D02*
X16575015Y-10134484D01*
X16575015Y-10134484D02*
X16565491Y-10124960D01*
X16565491Y-10124960D02*
X16575015Y-10115436D01*
X16575015Y-10115436D02*
X16575015Y-10134484D01*
X16708348Y-9934484D02*
X16727396Y-9934484D01*
X16727396Y-9934484D02*
X16746444Y-9944008D01*
X16746444Y-9944008D02*
X16755967Y-9953531D01*
X16755967Y-9953531D02*
X16765491Y-9972579D01*
X16765491Y-9972579D02*
X16775015Y-10010674D01*
X16775015Y-10010674D02*
X16775015Y-10058293D01*
X16775015Y-10058293D02*
X16765491Y-10096389D01*
X16765491Y-10096389D02*
X16755967Y-10115436D01*
X16755967Y-10115436D02*
X16746444Y-10124960D01*
X16746444Y-10124960D02*
X16727396Y-10134484D01*
X16727396Y-10134484D02*
X16708348Y-10134484D01*
X16708348Y-10134484D02*
X16689301Y-10124960D01*
X16689301Y-10124960D02*
X16679777Y-10115436D01*
X16679777Y-10115436D02*
X16670253Y-10096389D01*
X16670253Y-10096389D02*
X16660729Y-10058293D01*
X16660729Y-10058293D02*
X16660729Y-10010674D01*
X16660729Y-10010674D02*
X16670253Y-9972579D01*
X16670253Y-9972579D02*
X16679777Y-9953531D01*
X16679777Y-9953531D02*
X16689301Y-9944008D01*
X16689301Y-9944008D02*
X16708348Y-9934484D01*
X16898825Y-9934484D02*
X16917872Y-9934484D01*
X16917872Y-9934484D02*
X16936920Y-9944008D01*
X16936920Y-9944008D02*
X16946444Y-9953531D01*
X16946444Y-9953531D02*
X16955968Y-9972579D01*
X16955968Y-9972579D02*
X16965491Y-10010674D01*
X16965491Y-10010674D02*
X16965491Y-10058293D01*
X16965491Y-10058293D02*
X16955968Y-10096389D01*
X16955968Y-10096389D02*
X16946444Y-10115436D01*
X16946444Y-10115436D02*
X16936920Y-10124960D01*
X16936920Y-10124960D02*
X16917872Y-10134484D01*
X16917872Y-10134484D02*
X16898825Y-10134484D01*
X16898825Y-10134484D02*
X16879777Y-10124960D01*
X16879777Y-10124960D02*
X16870253Y-10115436D01*
X16870253Y-10115436D02*
X16860729Y-10096389D01*
X16860729Y-10096389D02*
X16851206Y-10058293D01*
X16851206Y-10058293D02*
X16851206Y-10010674D01*
X16851206Y-10010674D02*
X16860729Y-9972579D01*
X16860729Y-9972579D02*
X16870253Y-9953531D01*
X16870253Y-9953531D02*
X16879777Y-9944008D01*
X16879777Y-9944008D02*
X16898825Y-9934484D01*
X17032158Y-9934484D02*
X17165491Y-9934484D01*
X17165491Y-9934484D02*
X17079777Y-10134484D01*
X17251206Y-10134484D02*
X17289301Y-10134484D01*
X17289301Y-10134484D02*
X17308349Y-10124960D01*
X17308349Y-10124960D02*
X17317872Y-10115436D01*
X17317872Y-10115436D02*
X17336920Y-10086865D01*
X17336920Y-10086865D02*
X17346444Y-10048770D01*
X17346444Y-10048770D02*
X17346444Y-9972579D01*
X17346444Y-9972579D02*
X17336920Y-9953531D01*
X17336920Y-9953531D02*
X17327396Y-9944008D01*
X17327396Y-9944008D02*
X17308349Y-9934484D01*
X17308349Y-9934484D02*
X17270253Y-9934484D01*
X17270253Y-9934484D02*
X17251206Y-9944008D01*
X17251206Y-9944008D02*
X17241682Y-9953531D01*
X17241682Y-9953531D02*
X17232158Y-9972579D01*
X17232158Y-9972579D02*
X17232158Y-10020198D01*
X17232158Y-10020198D02*
X17241682Y-10039246D01*
X17241682Y-10039246D02*
X17251206Y-10048770D01*
X17251206Y-10048770D02*
X17270253Y-10058293D01*
X17270253Y-10058293D02*
X17308349Y-10058293D01*
X17308349Y-10058293D02*
X17327396Y-10048770D01*
X17327396Y-10048770D02*
X17336920Y-10039246D01*
X17336920Y-10039246D02*
X17346444Y-10020198D01*
X17422634Y-9934484D02*
X17422634Y-9972579D01*
X17498825Y-9934484D02*
X17498825Y-9972579D01*
X17794063Y-10210674D02*
X17784539Y-10201150D01*
X17784539Y-10201150D02*
X17765491Y-10172579D01*
X17765491Y-10172579D02*
X17755968Y-10153531D01*
X17755968Y-10153531D02*
X17746444Y-10124960D01*
X17746444Y-10124960D02*
X17736920Y-10077341D01*
X17736920Y-10077341D02*
X17736920Y-10039246D01*
X17736920Y-10039246D02*
X17746444Y-9991627D01*
X17746444Y-9991627D02*
X17755968Y-9963055D01*
X17755968Y-9963055D02*
X17765491Y-9944008D01*
X17765491Y-9944008D02*
X17784539Y-9915436D01*
X17784539Y-9915436D02*
X17794063Y-9905912D01*
X17955968Y-9934484D02*
X17917872Y-9934484D01*
X17917872Y-9934484D02*
X17898825Y-9944008D01*
X17898825Y-9944008D02*
X17889301Y-9953531D01*
X17889301Y-9953531D02*
X17870253Y-9982103D01*
X17870253Y-9982103D02*
X17860730Y-10020198D01*
X17860730Y-10020198D02*
X17860730Y-10096389D01*
X17860730Y-10096389D02*
X17870253Y-10115436D01*
X17870253Y-10115436D02*
X17879777Y-10124960D01*
X17879777Y-10124960D02*
X17898825Y-10134484D01*
X17898825Y-10134484D02*
X17936920Y-10134484D01*
X17936920Y-10134484D02*
X17955968Y-10124960D01*
X17955968Y-10124960D02*
X17965491Y-10115436D01*
X17965491Y-10115436D02*
X17975015Y-10096389D01*
X17975015Y-10096389D02*
X17975015Y-10048770D01*
X17975015Y-10048770D02*
X17965491Y-10029722D01*
X17965491Y-10029722D02*
X17955968Y-10020198D01*
X17955968Y-10020198D02*
X17936920Y-10010674D01*
X17936920Y-10010674D02*
X17898825Y-10010674D01*
X17898825Y-10010674D02*
X17879777Y-10020198D01*
X17879777Y-10020198D02*
X17870253Y-10029722D01*
X17870253Y-10029722D02*
X17860730Y-10048770D01*
X18213111Y-10134484D02*
X18213111Y-9934484D01*
X18298825Y-10134484D02*
X18298825Y-10029722D01*
X18298825Y-10029722D02*
X18289301Y-10010674D01*
X18289301Y-10010674D02*
X18270253Y-10001150D01*
X18270253Y-10001150D02*
X18241682Y-10001150D01*
X18241682Y-10001150D02*
X18222634Y-10010674D01*
X18222634Y-10010674D02*
X18213111Y-10020198D01*
X18422634Y-10134484D02*
X18403587Y-10124960D01*
X18403587Y-10124960D02*
X18394063Y-10115436D01*
X18394063Y-10115436D02*
X18384539Y-10096389D01*
X18384539Y-10096389D02*
X18384539Y-10039246D01*
X18384539Y-10039246D02*
X18394063Y-10020198D01*
X18394063Y-10020198D02*
X18403587Y-10010674D01*
X18403587Y-10010674D02*
X18422634Y-10001150D01*
X18422634Y-10001150D02*
X18451206Y-10001150D01*
X18451206Y-10001150D02*
X18470253Y-10010674D01*
X18470253Y-10010674D02*
X18479777Y-10020198D01*
X18479777Y-10020198D02*
X18489301Y-10039246D01*
X18489301Y-10039246D02*
X18489301Y-10096389D01*
X18489301Y-10096389D02*
X18479777Y-10115436D01*
X18479777Y-10115436D02*
X18470253Y-10124960D01*
X18470253Y-10124960D02*
X18451206Y-10134484D01*
X18451206Y-10134484D02*
X18422634Y-10134484D01*
X18603587Y-10134484D02*
X18584539Y-10124960D01*
X18584539Y-10124960D02*
X18575015Y-10105912D01*
X18575015Y-10105912D02*
X18575015Y-9934484D01*
X18755968Y-10124960D02*
X18736920Y-10134484D01*
X18736920Y-10134484D02*
X18698825Y-10134484D01*
X18698825Y-10134484D02*
X18679777Y-10124960D01*
X18679777Y-10124960D02*
X18670253Y-10105912D01*
X18670253Y-10105912D02*
X18670253Y-10029722D01*
X18670253Y-10029722D02*
X18679777Y-10010674D01*
X18679777Y-10010674D02*
X18698825Y-10001150D01*
X18698825Y-10001150D02*
X18736920Y-10001150D01*
X18736920Y-10001150D02*
X18755968Y-10010674D01*
X18755968Y-10010674D02*
X18765492Y-10029722D01*
X18765492Y-10029722D02*
X18765492Y-10048770D01*
X18765492Y-10048770D02*
X18670253Y-10067817D01*
X18841682Y-10124960D02*
X18860730Y-10134484D01*
X18860730Y-10134484D02*
X18898825Y-10134484D01*
X18898825Y-10134484D02*
X18917873Y-10124960D01*
X18917873Y-10124960D02*
X18927396Y-10105912D01*
X18927396Y-10105912D02*
X18927396Y-10096389D01*
X18927396Y-10096389D02*
X18917873Y-10077341D01*
X18917873Y-10077341D02*
X18898825Y-10067817D01*
X18898825Y-10067817D02*
X18870253Y-10067817D01*
X18870253Y-10067817D02*
X18851206Y-10058293D01*
X18851206Y-10058293D02*
X18841682Y-10039246D01*
X18841682Y-10039246D02*
X18841682Y-10029722D01*
X18841682Y-10029722D02*
X18851206Y-10010674D01*
X18851206Y-10010674D02*
X18870253Y-10001150D01*
X18870253Y-10001150D02*
X18898825Y-10001150D01*
X18898825Y-10001150D02*
X18917873Y-10010674D01*
X18994063Y-10210674D02*
X19003587Y-10201150D01*
X19003587Y-10201150D02*
X19022634Y-10172579D01*
X19022634Y-10172579D02*
X19032158Y-10153531D01*
X19032158Y-10153531D02*
X19041682Y-10124960D01*
X19041682Y-10124960D02*
X19051206Y-10077341D01*
X19051206Y-10077341D02*
X19051206Y-10039246D01*
X19051206Y-10039246D02*
X19041682Y-9991627D01*
X19041682Y-9991627D02*
X19032158Y-9963055D01*
X19032158Y-9963055D02*
X19022634Y-9944008D01*
X19022634Y-9944008D02*
X19003587Y-9915436D01*
X19003587Y-9915436D02*
X18994063Y-9905912D01*
D13*
X14219000Y-10307000D02*
G75*
G03*
X14219000Y-10307000I-20000J0D01*
G01*
D11*
X14517872Y-10198484D02*
X14536920Y-10198484D01*
X14536920Y-10198484D02*
X14555967Y-10208008D01*
X14555967Y-10208008D02*
X14565491Y-10217531D01*
X14565491Y-10217531D02*
X14575015Y-10236579D01*
X14575015Y-10236579D02*
X14584539Y-10274674D01*
X14584539Y-10274674D02*
X14584539Y-10322293D01*
X14584539Y-10322293D02*
X14575015Y-10360389D01*
X14575015Y-10360389D02*
X14565491Y-10379436D01*
X14565491Y-10379436D02*
X14555967Y-10388960D01*
X14555967Y-10388960D02*
X14536920Y-10398484D01*
X14536920Y-10398484D02*
X14517872Y-10398484D01*
X14517872Y-10398484D02*
X14498824Y-10388960D01*
X14498824Y-10388960D02*
X14489301Y-10379436D01*
X14489301Y-10379436D02*
X14479777Y-10360389D01*
X14479777Y-10360389D02*
X14470253Y-10322293D01*
X14470253Y-10322293D02*
X14470253Y-10274674D01*
X14470253Y-10274674D02*
X14479777Y-10236579D01*
X14479777Y-10236579D02*
X14489301Y-10217531D01*
X14489301Y-10217531D02*
X14498824Y-10208008D01*
X14498824Y-10208008D02*
X14517872Y-10198484D01*
X14670253Y-10379436D02*
X14679777Y-10388960D01*
X14679777Y-10388960D02*
X14670253Y-10398484D01*
X14670253Y-10398484D02*
X14660729Y-10388960D01*
X14660729Y-10388960D02*
X14670253Y-10379436D01*
X14670253Y-10379436D02*
X14670253Y-10398484D01*
X14851205Y-10265150D02*
X14851205Y-10398484D01*
X14803586Y-10188960D02*
X14755967Y-10331817D01*
X14755967Y-10331817D02*
X14879777Y-10331817D01*
X14994062Y-10198484D02*
X15013110Y-10198484D01*
X15013110Y-10198484D02*
X15032158Y-10208008D01*
X15032158Y-10208008D02*
X15041682Y-10217531D01*
X15041682Y-10217531D02*
X15051205Y-10236579D01*
X15051205Y-10236579D02*
X15060729Y-10274674D01*
X15060729Y-10274674D02*
X15060729Y-10322293D01*
X15060729Y-10322293D02*
X15051205Y-10360389D01*
X15051205Y-10360389D02*
X15041682Y-10379436D01*
X15041682Y-10379436D02*
X15032158Y-10388960D01*
X15032158Y-10388960D02*
X15013110Y-10398484D01*
X15013110Y-10398484D02*
X14994062Y-10398484D01*
X14994062Y-10398484D02*
X14975015Y-10388960D01*
X14975015Y-10388960D02*
X14965491Y-10379436D01*
X14965491Y-10379436D02*
X14955967Y-10360389D01*
X14955967Y-10360389D02*
X14946443Y-10322293D01*
X14946443Y-10322293D02*
X14946443Y-10274674D01*
X14946443Y-10274674D02*
X14955967Y-10236579D01*
X14955967Y-10236579D02*
X14965491Y-10217531D01*
X14965491Y-10217531D02*
X14975015Y-10208008D01*
X14975015Y-10208008D02*
X14994062Y-10198484D01*
X15184539Y-10198484D02*
X15203586Y-10198484D01*
X15203586Y-10198484D02*
X15222634Y-10208008D01*
X15222634Y-10208008D02*
X15232158Y-10217531D01*
X15232158Y-10217531D02*
X15241682Y-10236579D01*
X15241682Y-10236579D02*
X15251205Y-10274674D01*
X15251205Y-10274674D02*
X15251205Y-10322293D01*
X15251205Y-10322293D02*
X15241682Y-10360389D01*
X15241682Y-10360389D02*
X15232158Y-10379436D01*
X15232158Y-10379436D02*
X15222634Y-10388960D01*
X15222634Y-10388960D02*
X15203586Y-10398484D01*
X15203586Y-10398484D02*
X15184539Y-10398484D01*
X15184539Y-10398484D02*
X15165491Y-10388960D01*
X15165491Y-10388960D02*
X15155967Y-10379436D01*
X15155967Y-10379436D02*
X15146443Y-10360389D01*
X15146443Y-10360389D02*
X15136920Y-10322293D01*
X15136920Y-10322293D02*
X15136920Y-10274674D01*
X15136920Y-10274674D02*
X15146443Y-10236579D01*
X15146443Y-10236579D02*
X15155967Y-10217531D01*
X15155967Y-10217531D02*
X15165491Y-10208008D01*
X15165491Y-10208008D02*
X15184539Y-10198484D01*
X15336920Y-10398484D02*
X15336920Y-10265150D01*
X15336920Y-10284198D02*
X15346443Y-10274674D01*
X15346443Y-10274674D02*
X15365491Y-10265150D01*
X15365491Y-10265150D02*
X15394063Y-10265150D01*
X15394063Y-10265150D02*
X15413110Y-10274674D01*
X15413110Y-10274674D02*
X15422634Y-10293722D01*
X15422634Y-10293722D02*
X15422634Y-10398484D01*
X15422634Y-10293722D02*
X15432158Y-10274674D01*
X15432158Y-10274674D02*
X15451205Y-10265150D01*
X15451205Y-10265150D02*
X15479777Y-10265150D01*
X15479777Y-10265150D02*
X15498824Y-10274674D01*
X15498824Y-10274674D02*
X15508348Y-10293722D01*
X15508348Y-10293722D02*
X15508348Y-10398484D01*
X15603586Y-10398484D02*
X15603586Y-10265150D01*
X15603586Y-10284198D02*
X15613110Y-10274674D01*
X15613110Y-10274674D02*
X15632158Y-10265150D01*
X15632158Y-10265150D02*
X15660729Y-10265150D01*
X15660729Y-10265150D02*
X15679777Y-10274674D01*
X15679777Y-10274674D02*
X15689301Y-10293722D01*
X15689301Y-10293722D02*
X15689301Y-10398484D01*
X15689301Y-10293722D02*
X15698824Y-10274674D01*
X15698824Y-10274674D02*
X15717872Y-10265150D01*
X15717872Y-10265150D02*
X15746443Y-10265150D01*
X15746443Y-10265150D02*
X15765491Y-10274674D01*
X15765491Y-10274674D02*
X15775015Y-10293722D01*
X15775015Y-10293722D02*
X15775015Y-10398484D01*
X16165491Y-10188960D02*
X15994063Y-10446103D01*
X16422634Y-10198484D02*
X16441682Y-10198484D01*
X16441682Y-10198484D02*
X16460729Y-10208008D01*
X16460729Y-10208008D02*
X16470253Y-10217531D01*
X16470253Y-10217531D02*
X16479777Y-10236579D01*
X16479777Y-10236579D02*
X16489301Y-10274674D01*
X16489301Y-10274674D02*
X16489301Y-10322293D01*
X16489301Y-10322293D02*
X16479777Y-10360389D01*
X16479777Y-10360389D02*
X16470253Y-10379436D01*
X16470253Y-10379436D02*
X16460729Y-10388960D01*
X16460729Y-10388960D02*
X16441682Y-10398484D01*
X16441682Y-10398484D02*
X16422634Y-10398484D01*
X16422634Y-10398484D02*
X16403586Y-10388960D01*
X16403586Y-10388960D02*
X16394063Y-10379436D01*
X16394063Y-10379436D02*
X16384539Y-10360389D01*
X16384539Y-10360389D02*
X16375015Y-10322293D01*
X16375015Y-10322293D02*
X16375015Y-10274674D01*
X16375015Y-10274674D02*
X16384539Y-10236579D01*
X16384539Y-10236579D02*
X16394063Y-10217531D01*
X16394063Y-10217531D02*
X16403586Y-10208008D01*
X16403586Y-10208008D02*
X16422634Y-10198484D01*
X16575015Y-10379436D02*
X16584539Y-10388960D01*
X16584539Y-10388960D02*
X16575015Y-10398484D01*
X16575015Y-10398484D02*
X16565491Y-10388960D01*
X16565491Y-10388960D02*
X16575015Y-10379436D01*
X16575015Y-10379436D02*
X16575015Y-10398484D01*
X16708348Y-10198484D02*
X16727396Y-10198484D01*
X16727396Y-10198484D02*
X16746444Y-10208008D01*
X16746444Y-10208008D02*
X16755967Y-10217531D01*
X16755967Y-10217531D02*
X16765491Y-10236579D01*
X16765491Y-10236579D02*
X16775015Y-10274674D01*
X16775015Y-10274674D02*
X16775015Y-10322293D01*
X16775015Y-10322293D02*
X16765491Y-10360389D01*
X16765491Y-10360389D02*
X16755967Y-10379436D01*
X16755967Y-10379436D02*
X16746444Y-10388960D01*
X16746444Y-10388960D02*
X16727396Y-10398484D01*
X16727396Y-10398484D02*
X16708348Y-10398484D01*
X16708348Y-10398484D02*
X16689301Y-10388960D01*
X16689301Y-10388960D02*
X16679777Y-10379436D01*
X16679777Y-10379436D02*
X16670253Y-10360389D01*
X16670253Y-10360389D02*
X16660729Y-10322293D01*
X16660729Y-10322293D02*
X16660729Y-10274674D01*
X16660729Y-10274674D02*
X16670253Y-10236579D01*
X16670253Y-10236579D02*
X16679777Y-10217531D01*
X16679777Y-10217531D02*
X16689301Y-10208008D01*
X16689301Y-10208008D02*
X16708348Y-10198484D01*
X16965491Y-10398484D02*
X16851206Y-10398484D01*
X16908348Y-10398484D02*
X16908348Y-10198484D01*
X16908348Y-10198484D02*
X16889301Y-10227055D01*
X16889301Y-10227055D02*
X16870253Y-10246103D01*
X16870253Y-10246103D02*
X16851206Y-10255627D01*
X17146444Y-10198484D02*
X17051206Y-10198484D01*
X17051206Y-10198484D02*
X17041682Y-10293722D01*
X17041682Y-10293722D02*
X17051206Y-10284198D01*
X17051206Y-10284198D02*
X17070253Y-10274674D01*
X17070253Y-10274674D02*
X17117872Y-10274674D01*
X17117872Y-10274674D02*
X17136920Y-10284198D01*
X17136920Y-10284198D02*
X17146444Y-10293722D01*
X17146444Y-10293722D02*
X17155968Y-10312770D01*
X17155968Y-10312770D02*
X17155968Y-10360389D01*
X17155968Y-10360389D02*
X17146444Y-10379436D01*
X17146444Y-10379436D02*
X17136920Y-10388960D01*
X17136920Y-10388960D02*
X17117872Y-10398484D01*
X17117872Y-10398484D02*
X17070253Y-10398484D01*
X17070253Y-10398484D02*
X17051206Y-10388960D01*
X17051206Y-10388960D02*
X17041682Y-10379436D01*
X17222634Y-10198484D02*
X17355968Y-10198484D01*
X17355968Y-10198484D02*
X17270253Y-10398484D01*
X17422634Y-10198484D02*
X17422634Y-10236579D01*
X17498825Y-10198484D02*
X17498825Y-10236579D01*
X17794063Y-10474674D02*
X17784539Y-10465150D01*
X17784539Y-10465150D02*
X17765491Y-10436579D01*
X17765491Y-10436579D02*
X17755968Y-10417531D01*
X17755968Y-10417531D02*
X17746444Y-10388960D01*
X17746444Y-10388960D02*
X17736920Y-10341341D01*
X17736920Y-10341341D02*
X17736920Y-10303246D01*
X17736920Y-10303246D02*
X17746444Y-10255627D01*
X17746444Y-10255627D02*
X17755968Y-10227055D01*
X17755968Y-10227055D02*
X17765491Y-10208008D01*
X17765491Y-10208008D02*
X17784539Y-10179436D01*
X17784539Y-10179436D02*
X17794063Y-10169912D01*
X17955968Y-10198484D02*
X17917872Y-10198484D01*
X17917872Y-10198484D02*
X17898825Y-10208008D01*
X17898825Y-10208008D02*
X17889301Y-10217531D01*
X17889301Y-10217531D02*
X17870253Y-10246103D01*
X17870253Y-10246103D02*
X17860730Y-10284198D01*
X17860730Y-10284198D02*
X17860730Y-10360389D01*
X17860730Y-10360389D02*
X17870253Y-10379436D01*
X17870253Y-10379436D02*
X17879777Y-10388960D01*
X17879777Y-10388960D02*
X17898825Y-10398484D01*
X17898825Y-10398484D02*
X17936920Y-10398484D01*
X17936920Y-10398484D02*
X17955968Y-10388960D01*
X17955968Y-10388960D02*
X17965491Y-10379436D01*
X17965491Y-10379436D02*
X17975015Y-10360389D01*
X17975015Y-10360389D02*
X17975015Y-10312770D01*
X17975015Y-10312770D02*
X17965491Y-10293722D01*
X17965491Y-10293722D02*
X17955968Y-10284198D01*
X17955968Y-10284198D02*
X17936920Y-10274674D01*
X17936920Y-10274674D02*
X17898825Y-10274674D01*
X17898825Y-10274674D02*
X17879777Y-10284198D01*
X17879777Y-10284198D02*
X17870253Y-10293722D01*
X17870253Y-10293722D02*
X17860730Y-10312770D01*
X18213111Y-10398484D02*
X18213111Y-10198484D01*
X18298825Y-10398484D02*
X18298825Y-10293722D01*
X18298825Y-10293722D02*
X18289301Y-10274674D01*
X18289301Y-10274674D02*
X18270253Y-10265150D01*
X18270253Y-10265150D02*
X18241682Y-10265150D01*
X18241682Y-10265150D02*
X18222634Y-10274674D01*
X18222634Y-10274674D02*
X18213111Y-10284198D01*
X18422634Y-10398484D02*
X18403587Y-10388960D01*
X18403587Y-10388960D02*
X18394063Y-10379436D01*
X18394063Y-10379436D02*
X18384539Y-10360389D01*
X18384539Y-10360389D02*
X18384539Y-10303246D01*
X18384539Y-10303246D02*
X18394063Y-10284198D01*
X18394063Y-10284198D02*
X18403587Y-10274674D01*
X18403587Y-10274674D02*
X18422634Y-10265150D01*
X18422634Y-10265150D02*
X18451206Y-10265150D01*
X18451206Y-10265150D02*
X18470253Y-10274674D01*
X18470253Y-10274674D02*
X18479777Y-10284198D01*
X18479777Y-10284198D02*
X18489301Y-10303246D01*
X18489301Y-10303246D02*
X18489301Y-10360389D01*
X18489301Y-10360389D02*
X18479777Y-10379436D01*
X18479777Y-10379436D02*
X18470253Y-10388960D01*
X18470253Y-10388960D02*
X18451206Y-10398484D01*
X18451206Y-10398484D02*
X18422634Y-10398484D01*
X18603587Y-10398484D02*
X18584539Y-10388960D01*
X18584539Y-10388960D02*
X18575015Y-10369912D01*
X18575015Y-10369912D02*
X18575015Y-10198484D01*
X18755968Y-10388960D02*
X18736920Y-10398484D01*
X18736920Y-10398484D02*
X18698825Y-10398484D01*
X18698825Y-10398484D02*
X18679777Y-10388960D01*
X18679777Y-10388960D02*
X18670253Y-10369912D01*
X18670253Y-10369912D02*
X18670253Y-10293722D01*
X18670253Y-10293722D02*
X18679777Y-10274674D01*
X18679777Y-10274674D02*
X18698825Y-10265150D01*
X18698825Y-10265150D02*
X18736920Y-10265150D01*
X18736920Y-10265150D02*
X18755968Y-10274674D01*
X18755968Y-10274674D02*
X18765492Y-10293722D01*
X18765492Y-10293722D02*
X18765492Y-10312770D01*
X18765492Y-10312770D02*
X18670253Y-10331817D01*
X18841682Y-10388960D02*
X18860730Y-10398484D01*
X18860730Y-10398484D02*
X18898825Y-10398484D01*
X18898825Y-10398484D02*
X18917873Y-10388960D01*
X18917873Y-10388960D02*
X18927396Y-10369912D01*
X18927396Y-10369912D02*
X18927396Y-10360389D01*
X18927396Y-10360389D02*
X18917873Y-10341341D01*
X18917873Y-10341341D02*
X18898825Y-10331817D01*
X18898825Y-10331817D02*
X18870253Y-10331817D01*
X18870253Y-10331817D02*
X18851206Y-10322293D01*
X18851206Y-10322293D02*
X18841682Y-10303246D01*
X18841682Y-10303246D02*
X18841682Y-10293722D01*
X18841682Y-10293722D02*
X18851206Y-10274674D01*
X18851206Y-10274674D02*
X18870253Y-10265150D01*
X18870253Y-10265150D02*
X18898825Y-10265150D01*
X18898825Y-10265150D02*
X18917873Y-10274674D01*
X18994063Y-10474674D02*
X19003587Y-10465150D01*
X19003587Y-10465150D02*
X19022634Y-10436579D01*
X19022634Y-10436579D02*
X19032158Y-10417531D01*
X19032158Y-10417531D02*
X19041682Y-10388960D01*
X19041682Y-10388960D02*
X19051206Y-10341341D01*
X19051206Y-10341341D02*
X19051206Y-10303246D01*
X19051206Y-10303246D02*
X19041682Y-10255627D01*
X19041682Y-10255627D02*
X19032158Y-10227055D01*
X19032158Y-10227055D02*
X19022634Y-10208008D01*
X19022634Y-10208008D02*
X19003587Y-10179436D01*
X19003587Y-10179436D02*
X18994063Y-10169912D01*
D14*
X14174000Y-10526000D02*
X14174000Y-10616000D01*
X14129000Y-10571000D02*
X14219000Y-10571000D01*
D11*
X14517872Y-10462484D02*
X14536920Y-10462484D01*
X14536920Y-10462484D02*
X14555967Y-10472008D01*
X14555967Y-10472008D02*
X14565491Y-10481531D01*
X14565491Y-10481531D02*
X14575015Y-10500579D01*
X14575015Y-10500579D02*
X14584539Y-10538674D01*
X14584539Y-10538674D02*
X14584539Y-10586293D01*
X14584539Y-10586293D02*
X14575015Y-10624389D01*
X14575015Y-10624389D02*
X14565491Y-10643436D01*
X14565491Y-10643436D02*
X14555967Y-10652960D01*
X14555967Y-10652960D02*
X14536920Y-10662484D01*
X14536920Y-10662484D02*
X14517872Y-10662484D01*
X14517872Y-10662484D02*
X14498824Y-10652960D01*
X14498824Y-10652960D02*
X14489301Y-10643436D01*
X14489301Y-10643436D02*
X14479777Y-10624389D01*
X14479777Y-10624389D02*
X14470253Y-10586293D01*
X14470253Y-10586293D02*
X14470253Y-10538674D01*
X14470253Y-10538674D02*
X14479777Y-10500579D01*
X14479777Y-10500579D02*
X14489301Y-10481531D01*
X14489301Y-10481531D02*
X14498824Y-10472008D01*
X14498824Y-10472008D02*
X14517872Y-10462484D01*
X14670253Y-10643436D02*
X14679777Y-10652960D01*
X14679777Y-10652960D02*
X14670253Y-10662484D01*
X14670253Y-10662484D02*
X14660729Y-10652960D01*
X14660729Y-10652960D02*
X14670253Y-10643436D01*
X14670253Y-10643436D02*
X14670253Y-10662484D01*
X14775015Y-10662484D02*
X14813110Y-10662484D01*
X14813110Y-10662484D02*
X14832158Y-10652960D01*
X14832158Y-10652960D02*
X14841682Y-10643436D01*
X14841682Y-10643436D02*
X14860729Y-10614865D01*
X14860729Y-10614865D02*
X14870253Y-10576770D01*
X14870253Y-10576770D02*
X14870253Y-10500579D01*
X14870253Y-10500579D02*
X14860729Y-10481531D01*
X14860729Y-10481531D02*
X14851205Y-10472008D01*
X14851205Y-10472008D02*
X14832158Y-10462484D01*
X14832158Y-10462484D02*
X14794062Y-10462484D01*
X14794062Y-10462484D02*
X14775015Y-10472008D01*
X14775015Y-10472008D02*
X14765491Y-10481531D01*
X14765491Y-10481531D02*
X14755967Y-10500579D01*
X14755967Y-10500579D02*
X14755967Y-10548198D01*
X14755967Y-10548198D02*
X14765491Y-10567246D01*
X14765491Y-10567246D02*
X14775015Y-10576770D01*
X14775015Y-10576770D02*
X14794062Y-10586293D01*
X14794062Y-10586293D02*
X14832158Y-10586293D01*
X14832158Y-10586293D02*
X14851205Y-10576770D01*
X14851205Y-10576770D02*
X14860729Y-10567246D01*
X14860729Y-10567246D02*
X14870253Y-10548198D01*
X14994062Y-10462484D02*
X15013110Y-10462484D01*
X15013110Y-10462484D02*
X15032158Y-10472008D01*
X15032158Y-10472008D02*
X15041682Y-10481531D01*
X15041682Y-10481531D02*
X15051205Y-10500579D01*
X15051205Y-10500579D02*
X15060729Y-10538674D01*
X15060729Y-10538674D02*
X15060729Y-10586293D01*
X15060729Y-10586293D02*
X15051205Y-10624389D01*
X15051205Y-10624389D02*
X15041682Y-10643436D01*
X15041682Y-10643436D02*
X15032158Y-10652960D01*
X15032158Y-10652960D02*
X15013110Y-10662484D01*
X15013110Y-10662484D02*
X14994062Y-10662484D01*
X14994062Y-10662484D02*
X14975015Y-10652960D01*
X14975015Y-10652960D02*
X14965491Y-10643436D01*
X14965491Y-10643436D02*
X14955967Y-10624389D01*
X14955967Y-10624389D02*
X14946443Y-10586293D01*
X14946443Y-10586293D02*
X14946443Y-10538674D01*
X14946443Y-10538674D02*
X14955967Y-10500579D01*
X14955967Y-10500579D02*
X14965491Y-10481531D01*
X14965491Y-10481531D02*
X14975015Y-10472008D01*
X14975015Y-10472008D02*
X14994062Y-10462484D01*
X15184539Y-10462484D02*
X15203586Y-10462484D01*
X15203586Y-10462484D02*
X15222634Y-10472008D01*
X15222634Y-10472008D02*
X15232158Y-10481531D01*
X15232158Y-10481531D02*
X15241682Y-10500579D01*
X15241682Y-10500579D02*
X15251205Y-10538674D01*
X15251205Y-10538674D02*
X15251205Y-10586293D01*
X15251205Y-10586293D02*
X15241682Y-10624389D01*
X15241682Y-10624389D02*
X15232158Y-10643436D01*
X15232158Y-10643436D02*
X15222634Y-10652960D01*
X15222634Y-10652960D02*
X15203586Y-10662484D01*
X15203586Y-10662484D02*
X15184539Y-10662484D01*
X15184539Y-10662484D02*
X15165491Y-10652960D01*
X15165491Y-10652960D02*
X15155967Y-10643436D01*
X15155967Y-10643436D02*
X15146443Y-10624389D01*
X15146443Y-10624389D02*
X15136920Y-10586293D01*
X15136920Y-10586293D02*
X15136920Y-10538674D01*
X15136920Y-10538674D02*
X15146443Y-10500579D01*
X15146443Y-10500579D02*
X15155967Y-10481531D01*
X15155967Y-10481531D02*
X15165491Y-10472008D01*
X15165491Y-10472008D02*
X15184539Y-10462484D01*
X15336920Y-10662484D02*
X15336920Y-10529150D01*
X15336920Y-10548198D02*
X15346443Y-10538674D01*
X15346443Y-10538674D02*
X15365491Y-10529150D01*
X15365491Y-10529150D02*
X15394063Y-10529150D01*
X15394063Y-10529150D02*
X15413110Y-10538674D01*
X15413110Y-10538674D02*
X15422634Y-10557722D01*
X15422634Y-10557722D02*
X15422634Y-10662484D01*
X15422634Y-10557722D02*
X15432158Y-10538674D01*
X15432158Y-10538674D02*
X15451205Y-10529150D01*
X15451205Y-10529150D02*
X15479777Y-10529150D01*
X15479777Y-10529150D02*
X15498824Y-10538674D01*
X15498824Y-10538674D02*
X15508348Y-10557722D01*
X15508348Y-10557722D02*
X15508348Y-10662484D01*
X15603586Y-10662484D02*
X15603586Y-10529150D01*
X15603586Y-10548198D02*
X15613110Y-10538674D01*
X15613110Y-10538674D02*
X15632158Y-10529150D01*
X15632158Y-10529150D02*
X15660729Y-10529150D01*
X15660729Y-10529150D02*
X15679777Y-10538674D01*
X15679777Y-10538674D02*
X15689301Y-10557722D01*
X15689301Y-10557722D02*
X15689301Y-10662484D01*
X15689301Y-10557722D02*
X15698824Y-10538674D01*
X15698824Y-10538674D02*
X15717872Y-10529150D01*
X15717872Y-10529150D02*
X15746443Y-10529150D01*
X15746443Y-10529150D02*
X15765491Y-10538674D01*
X15765491Y-10538674D02*
X15775015Y-10557722D01*
X15775015Y-10557722D02*
X15775015Y-10662484D01*
X16165491Y-10452960D02*
X15994063Y-10710103D01*
X16422634Y-10462484D02*
X16441682Y-10462484D01*
X16441682Y-10462484D02*
X16460729Y-10472008D01*
X16460729Y-10472008D02*
X16470253Y-10481531D01*
X16470253Y-10481531D02*
X16479777Y-10500579D01*
X16479777Y-10500579D02*
X16489301Y-10538674D01*
X16489301Y-10538674D02*
X16489301Y-10586293D01*
X16489301Y-10586293D02*
X16479777Y-10624389D01*
X16479777Y-10624389D02*
X16470253Y-10643436D01*
X16470253Y-10643436D02*
X16460729Y-10652960D01*
X16460729Y-10652960D02*
X16441682Y-10662484D01*
X16441682Y-10662484D02*
X16422634Y-10662484D01*
X16422634Y-10662484D02*
X16403586Y-10652960D01*
X16403586Y-10652960D02*
X16394063Y-10643436D01*
X16394063Y-10643436D02*
X16384539Y-10624389D01*
X16384539Y-10624389D02*
X16375015Y-10586293D01*
X16375015Y-10586293D02*
X16375015Y-10538674D01*
X16375015Y-10538674D02*
X16384539Y-10500579D01*
X16384539Y-10500579D02*
X16394063Y-10481531D01*
X16394063Y-10481531D02*
X16403586Y-10472008D01*
X16403586Y-10472008D02*
X16422634Y-10462484D01*
X16575015Y-10643436D02*
X16584539Y-10652960D01*
X16584539Y-10652960D02*
X16575015Y-10662484D01*
X16575015Y-10662484D02*
X16565491Y-10652960D01*
X16565491Y-10652960D02*
X16575015Y-10643436D01*
X16575015Y-10643436D02*
X16575015Y-10662484D01*
X16708348Y-10462484D02*
X16727396Y-10462484D01*
X16727396Y-10462484D02*
X16746444Y-10472008D01*
X16746444Y-10472008D02*
X16755967Y-10481531D01*
X16755967Y-10481531D02*
X16765491Y-10500579D01*
X16765491Y-10500579D02*
X16775015Y-10538674D01*
X16775015Y-10538674D02*
X16775015Y-10586293D01*
X16775015Y-10586293D02*
X16765491Y-10624389D01*
X16765491Y-10624389D02*
X16755967Y-10643436D01*
X16755967Y-10643436D02*
X16746444Y-10652960D01*
X16746444Y-10652960D02*
X16727396Y-10662484D01*
X16727396Y-10662484D02*
X16708348Y-10662484D01*
X16708348Y-10662484D02*
X16689301Y-10652960D01*
X16689301Y-10652960D02*
X16679777Y-10643436D01*
X16679777Y-10643436D02*
X16670253Y-10624389D01*
X16670253Y-10624389D02*
X16660729Y-10586293D01*
X16660729Y-10586293D02*
X16660729Y-10538674D01*
X16660729Y-10538674D02*
X16670253Y-10500579D01*
X16670253Y-10500579D02*
X16679777Y-10481531D01*
X16679777Y-10481531D02*
X16689301Y-10472008D01*
X16689301Y-10472008D02*
X16708348Y-10462484D01*
X16841682Y-10462484D02*
X16965491Y-10462484D01*
X16965491Y-10462484D02*
X16898825Y-10538674D01*
X16898825Y-10538674D02*
X16927396Y-10538674D01*
X16927396Y-10538674D02*
X16946444Y-10548198D01*
X16946444Y-10548198D02*
X16955968Y-10557722D01*
X16955968Y-10557722D02*
X16965491Y-10576770D01*
X16965491Y-10576770D02*
X16965491Y-10624389D01*
X16965491Y-10624389D02*
X16955968Y-10643436D01*
X16955968Y-10643436D02*
X16946444Y-10652960D01*
X16946444Y-10652960D02*
X16927396Y-10662484D01*
X16927396Y-10662484D02*
X16870253Y-10662484D01*
X16870253Y-10662484D02*
X16851206Y-10652960D01*
X16851206Y-10652960D02*
X16841682Y-10643436D01*
X17146444Y-10462484D02*
X17051206Y-10462484D01*
X17051206Y-10462484D02*
X17041682Y-10557722D01*
X17041682Y-10557722D02*
X17051206Y-10548198D01*
X17051206Y-10548198D02*
X17070253Y-10538674D01*
X17070253Y-10538674D02*
X17117872Y-10538674D01*
X17117872Y-10538674D02*
X17136920Y-10548198D01*
X17136920Y-10548198D02*
X17146444Y-10557722D01*
X17146444Y-10557722D02*
X17155968Y-10576770D01*
X17155968Y-10576770D02*
X17155968Y-10624389D01*
X17155968Y-10624389D02*
X17146444Y-10643436D01*
X17146444Y-10643436D02*
X17136920Y-10652960D01*
X17136920Y-10652960D02*
X17117872Y-10662484D01*
X17117872Y-10662484D02*
X17070253Y-10662484D01*
X17070253Y-10662484D02*
X17051206Y-10652960D01*
X17051206Y-10652960D02*
X17041682Y-10643436D01*
X17327396Y-10529150D02*
X17327396Y-10662484D01*
X17279777Y-10452960D02*
X17232158Y-10595817D01*
X17232158Y-10595817D02*
X17355968Y-10595817D01*
X17422634Y-10462484D02*
X17422634Y-10500579D01*
X17498825Y-10462484D02*
X17498825Y-10500579D01*
X17794063Y-10738674D02*
X17784539Y-10729150D01*
X17784539Y-10729150D02*
X17765491Y-10700579D01*
X17765491Y-10700579D02*
X17755968Y-10681531D01*
X17755968Y-10681531D02*
X17746444Y-10652960D01*
X17746444Y-10652960D02*
X17736920Y-10605341D01*
X17736920Y-10605341D02*
X17736920Y-10567246D01*
X17736920Y-10567246D02*
X17746444Y-10519627D01*
X17746444Y-10519627D02*
X17755968Y-10491055D01*
X17755968Y-10491055D02*
X17765491Y-10472008D01*
X17765491Y-10472008D02*
X17784539Y-10443436D01*
X17784539Y-10443436D02*
X17794063Y-10433912D01*
X17955968Y-10529150D02*
X17955968Y-10662484D01*
X17908349Y-10452960D02*
X17860730Y-10595817D01*
X17860730Y-10595817D02*
X17984539Y-10595817D01*
X18213111Y-10662484D02*
X18213111Y-10462484D01*
X18298825Y-10662484D02*
X18298825Y-10557722D01*
X18298825Y-10557722D02*
X18289301Y-10538674D01*
X18289301Y-10538674D02*
X18270253Y-10529150D01*
X18270253Y-10529150D02*
X18241682Y-10529150D01*
X18241682Y-10529150D02*
X18222634Y-10538674D01*
X18222634Y-10538674D02*
X18213111Y-10548198D01*
X18422634Y-10662484D02*
X18403587Y-10652960D01*
X18403587Y-10652960D02*
X18394063Y-10643436D01*
X18394063Y-10643436D02*
X18384539Y-10624389D01*
X18384539Y-10624389D02*
X18384539Y-10567246D01*
X18384539Y-10567246D02*
X18394063Y-10548198D01*
X18394063Y-10548198D02*
X18403587Y-10538674D01*
X18403587Y-10538674D02*
X18422634Y-10529150D01*
X18422634Y-10529150D02*
X18451206Y-10529150D01*
X18451206Y-10529150D02*
X18470253Y-10538674D01*
X18470253Y-10538674D02*
X18479777Y-10548198D01*
X18479777Y-10548198D02*
X18489301Y-10567246D01*
X18489301Y-10567246D02*
X18489301Y-10624389D01*
X18489301Y-10624389D02*
X18479777Y-10643436D01*
X18479777Y-10643436D02*
X18470253Y-10652960D01*
X18470253Y-10652960D02*
X18451206Y-10662484D01*
X18451206Y-10662484D02*
X18422634Y-10662484D01*
X18603587Y-10662484D02*
X18584539Y-10652960D01*
X18584539Y-10652960D02*
X18575015Y-10633912D01*
X18575015Y-10633912D02*
X18575015Y-10462484D01*
X18755968Y-10652960D02*
X18736920Y-10662484D01*
X18736920Y-10662484D02*
X18698825Y-10662484D01*
X18698825Y-10662484D02*
X18679777Y-10652960D01*
X18679777Y-10652960D02*
X18670253Y-10633912D01*
X18670253Y-10633912D02*
X18670253Y-10557722D01*
X18670253Y-10557722D02*
X18679777Y-10538674D01*
X18679777Y-10538674D02*
X18698825Y-10529150D01*
X18698825Y-10529150D02*
X18736920Y-10529150D01*
X18736920Y-10529150D02*
X18755968Y-10538674D01*
X18755968Y-10538674D02*
X18765492Y-10557722D01*
X18765492Y-10557722D02*
X18765492Y-10576770D01*
X18765492Y-10576770D02*
X18670253Y-10595817D01*
X18841682Y-10652960D02*
X18860730Y-10662484D01*
X18860730Y-10662484D02*
X18898825Y-10662484D01*
X18898825Y-10662484D02*
X18917873Y-10652960D01*
X18917873Y-10652960D02*
X18927396Y-10633912D01*
X18927396Y-10633912D02*
X18927396Y-10624389D01*
X18927396Y-10624389D02*
X18917873Y-10605341D01*
X18917873Y-10605341D02*
X18898825Y-10595817D01*
X18898825Y-10595817D02*
X18870253Y-10595817D01*
X18870253Y-10595817D02*
X18851206Y-10586293D01*
X18851206Y-10586293D02*
X18841682Y-10567246D01*
X18841682Y-10567246D02*
X18841682Y-10557722D01*
X18841682Y-10557722D02*
X18851206Y-10538674D01*
X18851206Y-10538674D02*
X18870253Y-10529150D01*
X18870253Y-10529150D02*
X18898825Y-10529150D01*
X18898825Y-10529150D02*
X18917873Y-10538674D01*
X18994063Y-10738674D02*
X19003587Y-10729150D01*
X19003587Y-10729150D02*
X19022634Y-10700579D01*
X19022634Y-10700579D02*
X19032158Y-10681531D01*
X19032158Y-10681531D02*
X19041682Y-10652960D01*
X19041682Y-10652960D02*
X19051206Y-10605341D01*
X19051206Y-10605341D02*
X19051206Y-10567246D01*
X19051206Y-10567246D02*
X19041682Y-10519627D01*
X19041682Y-10519627D02*
X19032158Y-10491055D01*
X19032158Y-10491055D02*
X19022634Y-10472008D01*
X19022634Y-10472008D02*
X19003587Y-10443436D01*
X19003587Y-10443436D02*
X18994063Y-10433912D01*
D10*
X14204356Y-10870356D02*
X14204356Y-10799644D01*
X14133644Y-10799644D01*
X14133644Y-10870356D01*
X14204356Y-10870356D01*
D11*
X14584539Y-10926484D02*
X14470253Y-10926484D01*
X14527396Y-10926484D02*
X14527396Y-10726484D01*
X14527396Y-10726484D02*
X14508348Y-10755055D01*
X14508348Y-10755055D02*
X14489301Y-10774103D01*
X14489301Y-10774103D02*
X14470253Y-10783627D01*
X14670253Y-10907436D02*
X14679777Y-10916960D01*
X14679777Y-10916960D02*
X14670253Y-10926484D01*
X14670253Y-10926484D02*
X14660729Y-10916960D01*
X14660729Y-10916960D02*
X14670253Y-10907436D01*
X14670253Y-10907436D02*
X14670253Y-10926484D01*
X14803586Y-10726484D02*
X14822634Y-10726484D01*
X14822634Y-10726484D02*
X14841682Y-10736008D01*
X14841682Y-10736008D02*
X14851205Y-10745531D01*
X14851205Y-10745531D02*
X14860729Y-10764579D01*
X14860729Y-10764579D02*
X14870253Y-10802674D01*
X14870253Y-10802674D02*
X14870253Y-10850293D01*
X14870253Y-10850293D02*
X14860729Y-10888389D01*
X14860729Y-10888389D02*
X14851205Y-10907436D01*
X14851205Y-10907436D02*
X14841682Y-10916960D01*
X14841682Y-10916960D02*
X14822634Y-10926484D01*
X14822634Y-10926484D02*
X14803586Y-10926484D01*
X14803586Y-10926484D02*
X14784539Y-10916960D01*
X14784539Y-10916960D02*
X14775015Y-10907436D01*
X14775015Y-10907436D02*
X14765491Y-10888389D01*
X14765491Y-10888389D02*
X14755967Y-10850293D01*
X14755967Y-10850293D02*
X14755967Y-10802674D01*
X14755967Y-10802674D02*
X14765491Y-10764579D01*
X14765491Y-10764579D02*
X14775015Y-10745531D01*
X14775015Y-10745531D02*
X14784539Y-10736008D01*
X14784539Y-10736008D02*
X14803586Y-10726484D01*
X14994062Y-10726484D02*
X15013110Y-10726484D01*
X15013110Y-10726484D02*
X15032158Y-10736008D01*
X15032158Y-10736008D02*
X15041682Y-10745531D01*
X15041682Y-10745531D02*
X15051205Y-10764579D01*
X15051205Y-10764579D02*
X15060729Y-10802674D01*
X15060729Y-10802674D02*
X15060729Y-10850293D01*
X15060729Y-10850293D02*
X15051205Y-10888389D01*
X15051205Y-10888389D02*
X15041682Y-10907436D01*
X15041682Y-10907436D02*
X15032158Y-10916960D01*
X15032158Y-10916960D02*
X15013110Y-10926484D01*
X15013110Y-10926484D02*
X14994062Y-10926484D01*
X14994062Y-10926484D02*
X14975015Y-10916960D01*
X14975015Y-10916960D02*
X14965491Y-10907436D01*
X14965491Y-10907436D02*
X14955967Y-10888389D01*
X14955967Y-10888389D02*
X14946443Y-10850293D01*
X14946443Y-10850293D02*
X14946443Y-10802674D01*
X14946443Y-10802674D02*
X14955967Y-10764579D01*
X14955967Y-10764579D02*
X14965491Y-10745531D01*
X14965491Y-10745531D02*
X14975015Y-10736008D01*
X14975015Y-10736008D02*
X14994062Y-10726484D01*
X15184539Y-10726484D02*
X15203586Y-10726484D01*
X15203586Y-10726484D02*
X15222634Y-10736008D01*
X15222634Y-10736008D02*
X15232158Y-10745531D01*
X15232158Y-10745531D02*
X15241682Y-10764579D01*
X15241682Y-10764579D02*
X15251205Y-10802674D01*
X15251205Y-10802674D02*
X15251205Y-10850293D01*
X15251205Y-10850293D02*
X15241682Y-10888389D01*
X15241682Y-10888389D02*
X15232158Y-10907436D01*
X15232158Y-10907436D02*
X15222634Y-10916960D01*
X15222634Y-10916960D02*
X15203586Y-10926484D01*
X15203586Y-10926484D02*
X15184539Y-10926484D01*
X15184539Y-10926484D02*
X15165491Y-10916960D01*
X15165491Y-10916960D02*
X15155967Y-10907436D01*
X15155967Y-10907436D02*
X15146443Y-10888389D01*
X15146443Y-10888389D02*
X15136920Y-10850293D01*
X15136920Y-10850293D02*
X15136920Y-10802674D01*
X15136920Y-10802674D02*
X15146443Y-10764579D01*
X15146443Y-10764579D02*
X15155967Y-10745531D01*
X15155967Y-10745531D02*
X15165491Y-10736008D01*
X15165491Y-10736008D02*
X15184539Y-10726484D01*
X15336920Y-10926484D02*
X15336920Y-10793150D01*
X15336920Y-10812198D02*
X15346443Y-10802674D01*
X15346443Y-10802674D02*
X15365491Y-10793150D01*
X15365491Y-10793150D02*
X15394063Y-10793150D01*
X15394063Y-10793150D02*
X15413110Y-10802674D01*
X15413110Y-10802674D02*
X15422634Y-10821722D01*
X15422634Y-10821722D02*
X15422634Y-10926484D01*
X15422634Y-10821722D02*
X15432158Y-10802674D01*
X15432158Y-10802674D02*
X15451205Y-10793150D01*
X15451205Y-10793150D02*
X15479777Y-10793150D01*
X15479777Y-10793150D02*
X15498824Y-10802674D01*
X15498824Y-10802674D02*
X15508348Y-10821722D01*
X15508348Y-10821722D02*
X15508348Y-10926484D01*
X15603586Y-10926484D02*
X15603586Y-10793150D01*
X15603586Y-10812198D02*
X15613110Y-10802674D01*
X15613110Y-10802674D02*
X15632158Y-10793150D01*
X15632158Y-10793150D02*
X15660729Y-10793150D01*
X15660729Y-10793150D02*
X15679777Y-10802674D01*
X15679777Y-10802674D02*
X15689301Y-10821722D01*
X15689301Y-10821722D02*
X15689301Y-10926484D01*
X15689301Y-10821722D02*
X15698824Y-10802674D01*
X15698824Y-10802674D02*
X15717872Y-10793150D01*
X15717872Y-10793150D02*
X15746443Y-10793150D01*
X15746443Y-10793150D02*
X15765491Y-10802674D01*
X15765491Y-10802674D02*
X15775015Y-10821722D01*
X15775015Y-10821722D02*
X15775015Y-10926484D01*
X16165491Y-10716960D02*
X15994063Y-10974103D01*
X16422634Y-10726484D02*
X16441682Y-10726484D01*
X16441682Y-10726484D02*
X16460729Y-10736008D01*
X16460729Y-10736008D02*
X16470253Y-10745531D01*
X16470253Y-10745531D02*
X16479777Y-10764579D01*
X16479777Y-10764579D02*
X16489301Y-10802674D01*
X16489301Y-10802674D02*
X16489301Y-10850293D01*
X16489301Y-10850293D02*
X16479777Y-10888389D01*
X16479777Y-10888389D02*
X16470253Y-10907436D01*
X16470253Y-10907436D02*
X16460729Y-10916960D01*
X16460729Y-10916960D02*
X16441682Y-10926484D01*
X16441682Y-10926484D02*
X16422634Y-10926484D01*
X16422634Y-10926484D02*
X16403586Y-10916960D01*
X16403586Y-10916960D02*
X16394063Y-10907436D01*
X16394063Y-10907436D02*
X16384539Y-10888389D01*
X16384539Y-10888389D02*
X16375015Y-10850293D01*
X16375015Y-10850293D02*
X16375015Y-10802674D01*
X16375015Y-10802674D02*
X16384539Y-10764579D01*
X16384539Y-10764579D02*
X16394063Y-10745531D01*
X16394063Y-10745531D02*
X16403586Y-10736008D01*
X16403586Y-10736008D02*
X16422634Y-10726484D01*
X16575015Y-10907436D02*
X16584539Y-10916960D01*
X16584539Y-10916960D02*
X16575015Y-10926484D01*
X16575015Y-10926484D02*
X16565491Y-10916960D01*
X16565491Y-10916960D02*
X16575015Y-10907436D01*
X16575015Y-10907436D02*
X16575015Y-10926484D01*
X16708348Y-10726484D02*
X16727396Y-10726484D01*
X16727396Y-10726484D02*
X16746444Y-10736008D01*
X16746444Y-10736008D02*
X16755967Y-10745531D01*
X16755967Y-10745531D02*
X16765491Y-10764579D01*
X16765491Y-10764579D02*
X16775015Y-10802674D01*
X16775015Y-10802674D02*
X16775015Y-10850293D01*
X16775015Y-10850293D02*
X16765491Y-10888389D01*
X16765491Y-10888389D02*
X16755967Y-10907436D01*
X16755967Y-10907436D02*
X16746444Y-10916960D01*
X16746444Y-10916960D02*
X16727396Y-10926484D01*
X16727396Y-10926484D02*
X16708348Y-10926484D01*
X16708348Y-10926484D02*
X16689301Y-10916960D01*
X16689301Y-10916960D02*
X16679777Y-10907436D01*
X16679777Y-10907436D02*
X16670253Y-10888389D01*
X16670253Y-10888389D02*
X16660729Y-10850293D01*
X16660729Y-10850293D02*
X16660729Y-10802674D01*
X16660729Y-10802674D02*
X16670253Y-10764579D01*
X16670253Y-10764579D02*
X16679777Y-10745531D01*
X16679777Y-10745531D02*
X16689301Y-10736008D01*
X16689301Y-10736008D02*
X16708348Y-10726484D01*
X16841682Y-10726484D02*
X16965491Y-10726484D01*
X16965491Y-10726484D02*
X16898825Y-10802674D01*
X16898825Y-10802674D02*
X16927396Y-10802674D01*
X16927396Y-10802674D02*
X16946444Y-10812198D01*
X16946444Y-10812198D02*
X16955968Y-10821722D01*
X16955968Y-10821722D02*
X16965491Y-10840770D01*
X16965491Y-10840770D02*
X16965491Y-10888389D01*
X16965491Y-10888389D02*
X16955968Y-10907436D01*
X16955968Y-10907436D02*
X16946444Y-10916960D01*
X16946444Y-10916960D02*
X16927396Y-10926484D01*
X16927396Y-10926484D02*
X16870253Y-10926484D01*
X16870253Y-10926484D02*
X16851206Y-10916960D01*
X16851206Y-10916960D02*
X16841682Y-10907436D01*
X17060729Y-10926484D02*
X17098825Y-10926484D01*
X17098825Y-10926484D02*
X17117872Y-10916960D01*
X17117872Y-10916960D02*
X17127396Y-10907436D01*
X17127396Y-10907436D02*
X17146444Y-10878865D01*
X17146444Y-10878865D02*
X17155968Y-10840770D01*
X17155968Y-10840770D02*
X17155968Y-10764579D01*
X17155968Y-10764579D02*
X17146444Y-10745531D01*
X17146444Y-10745531D02*
X17136920Y-10736008D01*
X17136920Y-10736008D02*
X17117872Y-10726484D01*
X17117872Y-10726484D02*
X17079777Y-10726484D01*
X17079777Y-10726484D02*
X17060729Y-10736008D01*
X17060729Y-10736008D02*
X17051206Y-10745531D01*
X17051206Y-10745531D02*
X17041682Y-10764579D01*
X17041682Y-10764579D02*
X17041682Y-10812198D01*
X17041682Y-10812198D02*
X17051206Y-10831246D01*
X17051206Y-10831246D02*
X17060729Y-10840770D01*
X17060729Y-10840770D02*
X17079777Y-10850293D01*
X17079777Y-10850293D02*
X17117872Y-10850293D01*
X17117872Y-10850293D02*
X17136920Y-10840770D01*
X17136920Y-10840770D02*
X17146444Y-10831246D01*
X17146444Y-10831246D02*
X17155968Y-10812198D01*
X17327396Y-10793150D02*
X17327396Y-10926484D01*
X17279777Y-10716960D02*
X17232158Y-10859817D01*
X17232158Y-10859817D02*
X17355968Y-10859817D01*
X17422634Y-10726484D02*
X17422634Y-10764579D01*
X17498825Y-10726484D02*
X17498825Y-10764579D01*
X17794063Y-11002674D02*
X17784539Y-10993150D01*
X17784539Y-10993150D02*
X17765491Y-10964579D01*
X17765491Y-10964579D02*
X17755968Y-10945531D01*
X17755968Y-10945531D02*
X17746444Y-10916960D01*
X17746444Y-10916960D02*
X17736920Y-10869341D01*
X17736920Y-10869341D02*
X17736920Y-10831246D01*
X17736920Y-10831246D02*
X17746444Y-10783627D01*
X17746444Y-10783627D02*
X17755968Y-10755055D01*
X17755968Y-10755055D02*
X17765491Y-10736008D01*
X17765491Y-10736008D02*
X17784539Y-10707436D01*
X17784539Y-10707436D02*
X17794063Y-10697912D01*
X17851206Y-10726484D02*
X17975015Y-10726484D01*
X17975015Y-10726484D02*
X17908349Y-10802674D01*
X17908349Y-10802674D02*
X17936920Y-10802674D01*
X17936920Y-10802674D02*
X17955968Y-10812198D01*
X17955968Y-10812198D02*
X17965491Y-10821722D01*
X17965491Y-10821722D02*
X17975015Y-10840770D01*
X17975015Y-10840770D02*
X17975015Y-10888389D01*
X17975015Y-10888389D02*
X17965491Y-10907436D01*
X17965491Y-10907436D02*
X17955968Y-10916960D01*
X17955968Y-10916960D02*
X17936920Y-10926484D01*
X17936920Y-10926484D02*
X17879777Y-10926484D01*
X17879777Y-10926484D02*
X17860730Y-10916960D01*
X17860730Y-10916960D02*
X17851206Y-10907436D01*
X18213111Y-10926484D02*
X18213111Y-10726484D01*
X18298825Y-10926484D02*
X18298825Y-10821722D01*
X18298825Y-10821722D02*
X18289301Y-10802674D01*
X18289301Y-10802674D02*
X18270253Y-10793150D01*
X18270253Y-10793150D02*
X18241682Y-10793150D01*
X18241682Y-10793150D02*
X18222634Y-10802674D01*
X18222634Y-10802674D02*
X18213111Y-10812198D01*
X18422634Y-10926484D02*
X18403587Y-10916960D01*
X18403587Y-10916960D02*
X18394063Y-10907436D01*
X18394063Y-10907436D02*
X18384539Y-10888389D01*
X18384539Y-10888389D02*
X18384539Y-10831246D01*
X18384539Y-10831246D02*
X18394063Y-10812198D01*
X18394063Y-10812198D02*
X18403587Y-10802674D01*
X18403587Y-10802674D02*
X18422634Y-10793150D01*
X18422634Y-10793150D02*
X18451206Y-10793150D01*
X18451206Y-10793150D02*
X18470253Y-10802674D01*
X18470253Y-10802674D02*
X18479777Y-10812198D01*
X18479777Y-10812198D02*
X18489301Y-10831246D01*
X18489301Y-10831246D02*
X18489301Y-10888389D01*
X18489301Y-10888389D02*
X18479777Y-10907436D01*
X18479777Y-10907436D02*
X18470253Y-10916960D01*
X18470253Y-10916960D02*
X18451206Y-10926484D01*
X18451206Y-10926484D02*
X18422634Y-10926484D01*
X18603587Y-10926484D02*
X18584539Y-10916960D01*
X18584539Y-10916960D02*
X18575015Y-10897912D01*
X18575015Y-10897912D02*
X18575015Y-10726484D01*
X18755968Y-10916960D02*
X18736920Y-10926484D01*
X18736920Y-10926484D02*
X18698825Y-10926484D01*
X18698825Y-10926484D02*
X18679777Y-10916960D01*
X18679777Y-10916960D02*
X18670253Y-10897912D01*
X18670253Y-10897912D02*
X18670253Y-10821722D01*
X18670253Y-10821722D02*
X18679777Y-10802674D01*
X18679777Y-10802674D02*
X18698825Y-10793150D01*
X18698825Y-10793150D02*
X18736920Y-10793150D01*
X18736920Y-10793150D02*
X18755968Y-10802674D01*
X18755968Y-10802674D02*
X18765492Y-10821722D01*
X18765492Y-10821722D02*
X18765492Y-10840770D01*
X18765492Y-10840770D02*
X18670253Y-10859817D01*
X18841682Y-10916960D02*
X18860730Y-10926484D01*
X18860730Y-10926484D02*
X18898825Y-10926484D01*
X18898825Y-10926484D02*
X18917873Y-10916960D01*
X18917873Y-10916960D02*
X18927396Y-10897912D01*
X18927396Y-10897912D02*
X18927396Y-10888389D01*
X18927396Y-10888389D02*
X18917873Y-10869341D01*
X18917873Y-10869341D02*
X18898825Y-10859817D01*
X18898825Y-10859817D02*
X18870253Y-10859817D01*
X18870253Y-10859817D02*
X18851206Y-10850293D01*
X18851206Y-10850293D02*
X18841682Y-10831246D01*
X18841682Y-10831246D02*
X18841682Y-10821722D01*
X18841682Y-10821722D02*
X18851206Y-10802674D01*
X18851206Y-10802674D02*
X18870253Y-10793150D01*
X18870253Y-10793150D02*
X18898825Y-10793150D01*
X18898825Y-10793150D02*
X18917873Y-10802674D01*
X18994063Y-11002674D02*
X19003587Y-10993150D01*
X19003587Y-10993150D02*
X19022634Y-10964579D01*
X19022634Y-10964579D02*
X19032158Y-10945531D01*
X19032158Y-10945531D02*
X19041682Y-10916960D01*
X19041682Y-10916960D02*
X19051206Y-10869341D01*
X19051206Y-10869341D02*
X19051206Y-10831246D01*
X19051206Y-10831246D02*
X19041682Y-10783627D01*
X19041682Y-10783627D02*
X19032158Y-10755055D01*
X19032158Y-10755055D02*
X19022634Y-10736008D01*
X19022634Y-10736008D02*
X19003587Y-10707436D01*
X19003587Y-10707436D02*
X18994063Y-10697912D01*
M02*
