%TF.GenerationSoftware,KiCad,Pcbnew,7.0.7*%
%TF.CreationDate,2023-08-26T23:34:29+05:30*%
%TF.ProjectId,ir_project,69725f70-726f-46a6-9563-742e6b696361,rev?*%
%TF.SameCoordinates,Original*%
%TF.FileFunction,Copper,L1,Top*%
%TF.FilePolarity,Positive*%
%FSLAX46Y46*%
G04 Gerber Fmt 4.6, Leading zero omitted, Abs format (unit mm)*
G04 Created by KiCad (PCBNEW 7.0.7) date 2023-08-26 23:34:29*
%MOMM*%
%LPD*%
G01*
G04 APERTURE LIST*
G04 Aperture macros list*
%AMRoundRect*
0 Rectangle with rounded corners*
0 $1 Rounding radius*
0 $2 $3 $4 $5 $6 $7 $8 $9 X,Y pos of 4 corners*
0 Add a 4 corners polygon primitive as box body*
4,1,4,$2,$3,$4,$5,$6,$7,$8,$9,$2,$3,0*
0 Add four circle primitives for the rounded corners*
1,1,$1+$1,$2,$3*
1,1,$1+$1,$4,$5*
1,1,$1+$1,$6,$7*
1,1,$1+$1,$8,$9*
0 Add four rect primitives between the rounded corners*
20,1,$1+$1,$2,$3,$4,$5,0*
20,1,$1+$1,$4,$5,$6,$7,0*
20,1,$1+$1,$6,$7,$8,$9,0*
20,1,$1+$1,$8,$9,$2,$3,0*%
G04 Aperture macros list end*
%TA.AperFunction,SMDPad,CuDef*%
%ADD10R,2.500000X2.000000*%
%TD*%
%TA.AperFunction,SMDPad,CuDef*%
%ADD11R,2.410000X3.100000*%
%TD*%
%TA.AperFunction,ComponentPad*%
%ADD12C,0.500000*%
%TD*%
%TA.AperFunction,SMDPad,CuDef*%
%ADD13RoundRect,0.100000X-0.130000X-0.100000X0.130000X-0.100000X0.130000X0.100000X-0.130000X0.100000X0*%
%TD*%
%TA.AperFunction,ComponentPad*%
%ADD14R,1.700000X1.700000*%
%TD*%
%TA.AperFunction,ComponentPad*%
%ADD15O,1.700000X1.700000*%
%TD*%
%TA.AperFunction,SMDPad,CuDef*%
%ADD16RoundRect,0.100000X0.130000X0.100000X-0.130000X0.100000X-0.130000X-0.100000X0.130000X-0.100000X0*%
%TD*%
%TA.AperFunction,ComponentPad*%
%ADD17R,1.800000X1.800000*%
%TD*%
%TA.AperFunction,ComponentPad*%
%ADD18C,1.800000*%
%TD*%
%TA.AperFunction,ViaPad*%
%ADD19C,0.800000*%
%TD*%
%TA.AperFunction,Conductor*%
%ADD20C,0.250000*%
%TD*%
G04 APERTURE END LIST*
D10*
%TO.P,POT,3,3*%
%TO.N,GND*%
X166885000Y-91050000D03*
%TO.P,POT,2,2*%
%TO.N,Net-(U1A--)*%
X158235000Y-88900000D03*
%TO.P,POT,1,1*%
%TO.N,+5V*%
X166885000Y-86750000D03*
%TD*%
D11*
%TO.P,U1,9*%
%TO.N,N/C*%
X153985000Y-80040000D03*
D12*
X154940000Y-81340000D03*
X154940000Y-78740000D03*
X154940000Y-80040000D03*
X153030000Y-81340000D03*
X153030000Y-80040000D03*
X153030000Y-78740000D03*
%TD*%
D13*
%TO.P,R3,2*%
%TO.N,/O{slash}P*%
X155260000Y-76200000D03*
%TO.P,R3,1*%
%TO.N,Net-(R3-Pad1)*%
X154620000Y-76200000D03*
%TD*%
%TO.P,R2,2*%
%TO.N,GND*%
X160340000Y-83820000D03*
%TO.P,R2,1*%
%TO.N,Net-(D1-A)*%
X159700000Y-83820000D03*
%TD*%
%TO.P,R1,2*%
%TO.N,GND*%
X155260000Y-83820000D03*
%TO.P,R1,1*%
%TO.N,Net-(D2-K)*%
X154620000Y-83820000D03*
%TD*%
D14*
%TO.P,J1,1,Pin_1*%
%TO.N,/O{slash}P*%
X165100000Y-76200000D03*
D15*
%TO.P,J1,2,Pin_2*%
%TO.N,GND*%
X165100000Y-78740000D03*
%TO.P,J1,3,Pin_3*%
%TO.N,+5V*%
X165100000Y-81280000D03*
%TD*%
D16*
%TO.P,D3,1,K*%
%TO.N,GND*%
X157800000Y-76200000D03*
%TO.P,D3,2,A*%
%TO.N,/O{slash}P*%
X157160000Y-76200000D03*
%TD*%
D17*
%TO.P,D2,1,K*%
%TO.N,Net-(D2-K)*%
X152400000Y-88900000D03*
D18*
%TO.P,D2,2,A*%
%TO.N,+5V*%
X149860000Y-88900000D03*
%TD*%
D17*
%TO.P,D1,1,K*%
%TO.N,+5V*%
X144780000Y-83820000D03*
D18*
%TO.P,D1,2,A*%
%TO.N,Net-(D1-A)*%
X147320000Y-83820000D03*
%TD*%
D19*
%TO.N,GND*%
X160020000Y-86360000D03*
X156480497Y-83820000D03*
%TO.N,Net-(D1-A)*%
X157035500Y-81045500D03*
%TO.N,Net-(U1A--)*%
X157480000Y-83820000D03*
%TO.N,Net-(D1-A)*%
X155789241Y-81071516D03*
%TO.N,Net-(R3-Pad1)*%
X157550403Y-78554063D03*
%TD*%
D20*
%TO.N,Net-(R3-Pad1)*%
X154620000Y-76391041D02*
X154620000Y-76200000D01*
X155372771Y-77143812D02*
X154620000Y-76391041D01*
X157607313Y-77143812D02*
X155372771Y-77143812D01*
X157550403Y-78554063D02*
X157607313Y-78497153D01*
X157607313Y-78497153D02*
X157607313Y-77143812D01*
%TO.N,/O{slash}P*%
X157160000Y-76008959D02*
X157160000Y-76200000D01*
X164119884Y-75219884D02*
X157949075Y-75219884D01*
X165100000Y-76200000D02*
X164119884Y-75219884D01*
X157949075Y-75219884D02*
X157160000Y-76008959D01*
%TO.N,+5V*%
X160273275Y-93361725D02*
X166885000Y-86750000D01*
X169612933Y-83193877D02*
X169612933Y-91222067D01*
X169612933Y-91222067D02*
X167473275Y-93361725D01*
X167699056Y-81280000D02*
X169612933Y-83193877D01*
X165100000Y-81280000D02*
X167699056Y-81280000D01*
X167473275Y-93361725D02*
X160273275Y-93361725D01*
%TO.N,GND*%
X167640000Y-83820000D02*
X160340000Y-83820000D01*
X168460000Y-84640000D02*
X167640000Y-83820000D01*
X168460000Y-89475000D02*
X168460000Y-84640000D01*
X166885000Y-91050000D02*
X168460000Y-89475000D01*
%TO.N,+5V*%
X151797929Y-93377929D02*
X149860000Y-91440000D01*
X160257071Y-93377929D02*
X151797929Y-93377929D01*
X149860000Y-91440000D02*
X149860000Y-88900000D01*
X166885000Y-86750000D02*
X160257071Y-93377929D01*
%TO.N,GND*%
X163152736Y-76792736D02*
X165100000Y-78740000D01*
X158392736Y-76792736D02*
X163152736Y-76792736D01*
X157800000Y-76200000D02*
X158392736Y-76792736D01*
X162571799Y-78751799D02*
X162560000Y-78740000D01*
X162571799Y-81588201D02*
X162571799Y-78751799D01*
X160340000Y-83820000D02*
X162571799Y-81588201D01*
%TO.N,Net-(D2-K)*%
X152400000Y-87676154D02*
X152400000Y-88900000D01*
X154620000Y-85456154D02*
X152400000Y-87676154D01*
X154620000Y-83820000D02*
X154620000Y-85456154D01*
%TO.N,+5V*%
X145886130Y-88900000D02*
X149860000Y-88900000D01*
X144780000Y-87793870D02*
X145886130Y-88900000D01*
X144780000Y-83820000D02*
X144780000Y-87793870D01*
%TO.N,GND*%
X160340000Y-86040000D02*
X160340000Y-83820000D01*
X160020000Y-86360000D02*
X160340000Y-86040000D01*
X155260000Y-83820000D02*
X156480497Y-83820000D01*
%TO.N,Net-(D1-A)*%
X159445500Y-81045500D02*
X159785000Y-81385000D01*
X157035500Y-81045500D02*
X159445500Y-81045500D01*
X159785000Y-81385000D02*
X159785000Y-83735000D01*
X159785000Y-83735000D02*
X159700000Y-83820000D01*
X159700000Y-83820000D02*
X159615500Y-83735500D01*
%TO.N,Net-(U1A--)*%
X158235000Y-84575000D02*
X158235000Y-88900000D01*
X157480000Y-83820000D02*
X158235000Y-84575000D01*
%TO.N,GND*%
X160340000Y-83628959D02*
X160340000Y-83820000D01*
%TO.N,Net-(D1-A)*%
X155789241Y-81071516D02*
X155789241Y-81640759D01*
X153610000Y-83820000D02*
X147320000Y-83820000D01*
X155789241Y-81640759D02*
X153610000Y-83820000D01*
%TO.N,GND*%
X162560000Y-78740000D02*
X165100000Y-78740000D01*
%TO.N,/O{slash}P*%
X157160000Y-76200000D02*
X155260000Y-76200000D01*
%TO.N,GND*%
X157800000Y-76200000D02*
X157800000Y-76391041D01*
%TO.N,/O{slash}P*%
X157160000Y-76200000D02*
X157245000Y-76200000D01*
%TD*%
M02*
